<?xml version="1.0" encoding="UTF-8"?>
<!DOCTYPE svg PUBLIC "-//W3C//DTD SVG 1.1//EN" "http://www.w3.org/Graphics/SVG/1.1/DTD/svg11.dtd">
<!-- Creator: CorelDRAW 2018 (64 Bit Versión de evaluación) -->
<svg xmlns="http://www.w3.org/2000/svg" xml:space="preserve" width="380mm" height="285mm" version="1.1" style="shape-rendering:geometricPrecision; text-rendering:geometricPrecision; image-rendering:optimizeQuality; fill-rule:evenodd; clip-rule:evenodd"
viewBox="0 0 38000 28500"
 xmlns:xlink="http://www.w3.org/1999/xlink">
 <defs>
  <style type="text/css">
   <![CDATA[
    .fil0 {fill:none}
    .fil1 {fill:#CB3538;fill-rule:nonzero}
    .fil2 {fill:#2F464A;fill-rule:nonzero}
   ]]>
  </style>
 </defs>
 <g id="Capa_x0020_1">
  <metadata id="CorelCorpID_0Corel-Layer"/>
  <g id="_1498590902736">
   <rect class="fil0" x="5686" y="6950.46" width="26181.11" height="14811.02"/>
   <g>
    <path class="fil1" d="M16288.45 18166.24l-3.62 694.27 63.63 8.71c199.81,29.75 401.52,50.43 604.25,61.95 177.57,13.13 356.06,15.9 534.12,8.31 170.14,-9.79 338.33,-35.1 501.24,-75.38 191.17,-43.16 368.49,-118.54 519.9,-221.06 136.43,-92.82 240.64,-212.01 302.83,-346.14 108.44,-224.54 106.26,-473.54 -6.04,-696.9 -59.15,-115.86 -152.24,-218.72 -271.6,-299.93 -115.34,-82.91 -250.9,-145.86 -398.25,-184.95l-656.57 -194.27c-78.47,-26.56 -142.26,-74.97 -179.36,-136.2 -28.89,-50.95 -26.21,-109.75 7.35,-158.85 11.72,-17.25 26.48,-33.08 43.77,-47.03 20.13,-16.24 42.66,-30.47 67.1,-42.39 9.75,-4.79 19.7,-9.25 29.81,-13.41 73.42,-28.96 152.64,-47.35 234.07,-54.33 138.98,-15.98 280.26,-14.82 418.82,3.53 163.65,14.14 325.93,37.26 485.53,69.27l33.93 6.01 0 -640.49 -62.75 -10.74c-162.71,-31.06 -327.59,-54.48 -493.82,-70.12 -215.45,-22.92 -433.65,-23.67 -649.34,-2.21 -273.23,19.96 -533.13,103.28 -747.58,239.72 -145.39,91 -256,212.59 -319.35,351.02 -95.33,210.86 -95.64,441.61 -0.74,652.62 49.06,104.84 127.57,199.36 229.61,276.23 88.46,68.01 188.49,125.81 297.12,171.7 143.05,61.28 294.71,108.78 451.82,141.45 51.87,12.37 103.42,25.46 154.72,39.22l77.77 22.75c7.46,2.37 14.84,4.75 22.26,7.21 76.67,21.88 146.77,56.34 205.66,101.19 40.89,30.54 72.44,68.18 92.1,110.01 12.15,38.24 12.3,78.28 0.55,116.58 -24.59,61.77 -78.6,113.39 -150.32,143.73 -78.2,32.41 -162.99,53.56 -250.42,62.41 -128.33,16.24 -258.51,21.5 -388.22,15.61 -169.98,-10.19 -339.08,-28.2 -506.48,-53.91 -87.56,-14.29 -174.64,-30.54 -261.05,-48.7l-32.45 -6.49z"/>
    <path class="fil1" d="M12718.72 18835.29l0 -806.08 -19.82 6.89c-227.88,87.97 -475.78,138.18 -728.68,147.49 -262.77,16.4 -523.9,-44.97 -733.5,-172.39 -149.72,-92.13 -260.99,-218.19 -319.34,-361.63 -64.38,-156.3 -71.84,-323.97 -21.47,-483.52 46.74,-163.17 161.36,-308.91 325.19,-413.53 145.26,-96.91 322.76,-157.98 510.82,-175.73 332.57,-29.36 668.48,20.93 965.01,144.44l21.79 8.94 0 -810.68 -46.19 -9.85c-296.84,-75.99 -608.52,-108.53 -919.93,-96.01 -283.66,5.77 -563,56.69 -821.59,149.79 -261.05,95.38 -491.17,237.17 -672.67,414.54 -567.44,572.45 -582.56,1377.28 -36.91,1963.01 268.54,273.93 645.58,467.22 1069.57,548.4 446.96,86.62 915.2,73.53 1353.43,-37.81l74.29 -16.27z"/>
    <polygon class="fil1" points="14992.35,18888.58 14992.35,15865.1 14036.34,15865.1 14036.34,18888.58 "/>
    <polygon class="fil1" points="29142.36,18537.41 29142.36,18491.71 28737.74,18491.71 28737.74,18537.41 28906.03,18537.41 28906.03,18888.58 28974.07,18888.58 28974.07,18537.41 "/>
    <polygon class="fil1" points="29181.7,18888.58 29246.16,18888.58 29246.16,18571.65 29254.77,18571.65 29400.16,18888.58 29465.01,18888.58 29622.15,18556.36 29622.15,18888.58 29690.17,18888.58 29690.17,18491.71 29585.12,18491.71 29437.73,18818.58 29288.33,18491.71 29181.7,18491.71 "/>
    <path class="fil2" d="M7862.93 13435.31c8.91,95.18 62.56,184.07 150.24,249.01 87.71,64.9 202.88,100.97 322.57,100.97 119.61,0 234.83,-36.07 322.49,-100.97 87.71,-64.94 141.4,-153.83 150.25,-249.01l0 -837.94c-4.78,-97.42 -56.69,-189.55 -144.87,-257.13 -88.11,-67.54 -205.63,-105.29 -327.87,-105.29 -122.29,0 -239.8,37.75 -327.95,105.29 -88.14,67.58 -140.05,159.71 -144.86,257.13l0 837.94z"/>
    <path class="fil2" d="M10480.25 13435.31c8.93,95.18 62.61,184.07 150.24,249.01 87.71,64.9 202.89,100.97 322.57,100.97 119.61,0 234.83,-36.07 322.51,-100.97 87.71,-64.94 141.39,-153.83 150.27,-249.01l0 -1878.53c-4.82,-97.38 -56.72,-189.54 -144.87,-257.12 -88.14,-67.55 -205.65,-105.28 -327.91,-105.28 -122.29,0 -239.79,37.73 -327.95,105.28 -88.1,67.58 -140.05,159.74 -144.86,257.12l0 1878.53z"/>
    <path class="fil2" d="M13083.65 14191.93c8.88,95.12 62.53,184.05 150.24,248.93 87.66,64.93 202.85,100.97 322.54,100.97 119.6,0 234.82,-36.04 322.53,-100.97 87.67,-64.88 141.35,-153.81 150.23,-248.93l0 -4063.46c-4.78,-97.43 -56.72,-189.57 -144.86,-257.15 -88.15,-67.54 -205.66,-105.31 -327.9,-105.31 -122.29,0 -239.8,37.77 -327.92,105.31 -88.14,67.58 -140.09,159.72 -144.86,257.15l0 4063.46z"/>
    <path class="fil2" d="M15700.62 13435.31c8.88,95.18 62.53,184.07 150.24,249.01 87.67,64.9 202.89,100.97 322.5,100.97 119.68,0 234.86,-36.07 322.57,-100.97 87.67,-64.94 141.36,-153.83 150.24,-249.01l0 -1878.53c-4.81,-97.38 -56.76,-189.54 -144.87,-257.12 -88.18,-67.55 -205.66,-105.28 -327.94,-105.28 -122.26,0 -239.77,37.73 -327.88,105.28 -88.18,67.58 -140.05,159.74 -144.86,257.12l0 1878.53z"/>
    <path class="fil2" d="M18305.95 13435.31c8.92,95.18 62.6,184.07 150.28,249.01 87.71,64.9 202.88,100.97 322.54,100.97 119.62,0 234.85,-36.07 322.51,-100.97 87.71,-64.94 141.36,-153.83 150.25,-249.01l0 -837.94c-4.82,-97.42 -56.73,-189.55 -144.87,-257.13 -88.11,-67.54 -205.62,-105.29 -327.89,-105.29 -122.29,0 -239.77,37.75 -327.95,105.29 -88.11,67.58 -140.05,159.71 -144.87,257.13l0 837.94z"/>
    <path class="fil2" d="M20920.9 13435.31c8.88,95.18 62.56,184.07 150.23,249.01 87.67,64.9 202.93,100.97 322.58,100.97 119.6,0 234.82,-36.07 322.5,-100.97 87.71,-64.94 141.36,-153.83 150.27,-249.01l0 -1878.53c-4.81,-97.38 -56.72,-189.54 -144.86,-257.12 -88.15,-67.55 -205.66,-105.28 -327.91,-105.28 -122.28,0 -239.81,37.73 -327.94,105.28 -88.15,67.58 -140.06,159.74 -144.87,257.12l0 1878.53z"/>
    <path class="fil2" d="M23525.2 14191.93c8.88,95.12 62.52,184.05 150.24,248.93 87.66,64.93 202.85,100.97 322.49,100.97 119.64,0 234.86,-36.04 322.59,-100.97 87.66,-64.88 141.34,-153.81 150.22,-248.93l0 -4063.46c-4.81,-97.43 -56.75,-189.57 -144.86,-257.15 -88.15,-67.54 -205.66,-105.31 -327.95,-105.31 -122.24,0 -239.77,37.77 -327.95,105.31 -88.1,67.58 -140.01,159.72 -144.78,257.15l0 4063.46z"/>
    <path class="fil2" d="M26138.02 13435.31c8.88,95.18 62.54,184.07 150.24,249.01 87.67,64.9 202.89,100.97 322.54,100.97 119.64,0 234.83,-36.07 322.54,-100.97 87.67,-64.94 141.35,-153.83 150.23,-249.01l0 -1878.53c-4.81,-97.38 -56.72,-189.54 -144.86,-257.12 -88.15,-67.55 -205.66,-105.28 -327.91,-105.28 -122.29,0 -239.81,37.73 -327.91,105.28 -88.14,67.58 -140.05,159.74 -144.87,257.12l0 1878.53z"/>
    <path class="fil2" d="M28744.62 13435.31c8.88,95.18 62.52,184.07 150.23,249.01 87.68,64.9 202.85,100.97 322.5,100.97 119.64,0 234.87,-36.07 322.58,-100.97 87.67,-64.94 141.36,-153.83 150.24,-249.01l0 -837.94c-4.83,-97.42 -56.76,-189.55 -144.88,-257.13 -88.14,-67.54 -205.65,-105.29 -327.94,-105.29 -122.25,0 -239.76,37.75 -327.87,105.29 -88.18,67.58 -140.08,159.71 -144.86,257.13l0 837.94z"/>
    <path class="fil1" d="M22708.18 18835.29l0 -806.08 -19.83 6.89c-227.87,87.97 -475.76,138.18 -728.67,147.49 -262.73,16.4 -523.86,-44.97 -733.42,-172.35 -149.72,-92.17 -261.08,-218.23 -319.38,-361.67 -64.38,-156.3 -71.84,-323.97 -21.51,-483.52 46.73,-163.17 161.37,-308.91 325.23,-413.53 145.21,-96.91 322.77,-157.98 510.82,-175.73 332.56,-29.36 668.48,20.93 965.08,144.44l21.68 8.94 0 -810.68 -46.15 -9.85c-296.88,-75.99 -608.52,-108.53 -919.93,-96.01 -283.69,5.77 -563.05,56.69 -821.61,149.76 -261.03,95.41 -491.11,237.24 -672.65,414.57 -567.4,572.45 -582.52,1377.28 -36.87,1963.01 268.53,273.93 645.54,467.22 1069.57,548.4 446.92,86.62 915.15,73.53 1353.39,-37.81l74.25 -16.27z"/>
    <path class="fil1" d="M23715.54 17378.13c9.27,477.93 287.56,927.18 757.89,1223.52 470.33,296.34 1082.79,408.37 1668.06,305.06 794.73,-119.32 1414.03,-618.12 1555.78,-1252.95 141.74,-634.8 -223.62,-1273.37 -917.84,-1604.09 -613.03,-302.48 -1382.32,-319.7 -2015.63,-45.08 -633.36,274.6 -1033.46,798.83 -1048.26,1373.54zm1387.93 -620.19l0 0c206.59,-131.57 470.37,-192.29 733.14,-168.84 262.76,23.48 503.09,129.24 668.12,294.02 165.01,164.73 241.14,375.03 211.7,584.56 -29.45,209.53 -162.08,401.19 -368.72,532.76 -206.61,131.56 -470.32,192.28 -733.11,168.8 -262.77,-23.45 -503.12,-129.2 -668.12,-293.98 -165,-164.75 -241.14,-375.04 -211.69,-584.57 29.4,-209.53 162.03,-401.19 368.68,-532.75z"/>
   </g>
  </g>
 </g>
</svg>
