<?xml version="1.0" encoding="UTF-8"?>
<!DOCTYPE svg PUBLIC "-//W3C//DTD SVG 1.1//EN" "http://www.w3.org/Graphics/SVG/1.1/DTD/svg11.dtd">
<!-- Creator: CorelDRAW 2018 (64 Bit Versión de evaluación) -->
<svg xmlns="http://www.w3.org/2000/svg" xml:space="preserve" width="380mm" height="285mm" version="1.1" style="shape-rendering:geometricPrecision; text-rendering:geometricPrecision; image-rendering:optimizeQuality; fill-rule:evenodd; clip-rule:evenodd"
viewBox="0 0 38000 28500"
 xmlns:xlink="http://www.w3.org/1999/xlink">
 <defs>
  <style type="text/css">
   <![CDATA[
    .fil0 {fill:#0086CC;fill-rule:nonzero}
   ]]>
  </style>
 </defs>
 <g id="Capa_x0020_1">
  <metadata id="CorelCorpID_0Corel-Layer"/>
  <g id="_1721633702224">
   <path class="fil0" d="M23527.82 14567.44l1124.1 0 0 946.97 -2254.92 0 0 -3238.07 1130.82 0 0 2291.1zm-3686.06 -178.65l0 0 -1858.51 1461.95 -1699.32 -1336.43c-244.5,588.51 -835.13,999.34 -1518.75,999.34l-1452.32 0 0 -3237.31 1452.32 0c762.93,0 1311.61,482.25 1517.97,999.54l1700.1 -1336.05 629.91 495.34 -1556.67 1224.19 298.01 234.68 1557.05 -1224.39 629.89 495.35 -1556.85 1223.79 298.59 234.67 1558.58 -1223.8 0 -1123.32 1129.87 0 0 2289.94 1124.86 0 0 948.13 -2254.73 0 0 -1125.62zm-4487.68 -494.17l0 0c0,-440.29 -290.89,-688.43 -701.71,-688.43l-252.19 0 0 1377.23 245.65 0c381.74,0 708.25,-209.07 708.25,-688.8z"/>
   <path class="fil0" d="M18914.73 6427.91c-4156.19,0 -7525.96,3369.57 -7525.96,7525.95 0,4156.94 3369.77,7526.7 7525.96,7526.7 4156.94,0 7526.51,-3369.76 7526.51,-7526.7 0,-4156.38 -3369.57,-7525.95 -7526.51,-7525.95zm0 14237.93l0 0c-3706.86,0 -6712,-3004.94 -6712,-6711.98 0,-3706.86 3005.14,-6712.2 6712,-6712.2 3707.42,0 6712.56,3005.34 6712.56,6712.2 0,3707.04 -3005.14,6711.98 -6712.56,6711.98z"/>
  </g>
 </g>
</svg>
