<?xml version="1.0" encoding="UTF-8"?>
<!DOCTYPE svg PUBLIC "-//W3C//DTD SVG 1.1//EN" "http://www.w3.org/Graphics/SVG/1.1/DTD/svg11.dtd">
<!-- Creator: CorelDRAW 2018 (64 Bit Versión de evaluación) -->
<svg xmlns="http://www.w3.org/2000/svg" xml:space="preserve" width="380mm" height="285mm" version="1.1" style="shape-rendering:geometricPrecision; text-rendering:geometricPrecision; image-rendering:optimizeQuality; fill-rule:evenodd; clip-rule:evenodd"
viewBox="0 0 38000 28500"
 xmlns:xlink="http://www.w3.org/1999/xlink">
 <defs>
  <style type="text/css">
   <![CDATA[
    .fil0 {fill:#558BC8}
   ]]>
  </style>
 </defs>
 <g id="Capa_x0020_1">
  <metadata id="CorelCorpID_0Corel-Layer"/>
  <path id="HP-Inc-logo.eps" class="fil0" d="M23317.71 11863.98l-1144.92 0 -1603.35 4399.18 1144.95 0 1603.32 -4399.18zm-4350.39 9389.04c-71.46,0 -142.63,-1.3 -213.67,-3.36l1469.4 -4038.34 2022.21 0c354.93,0 744.56,-272.86 865.97,-606.23l1594.19 -4378.8c260.8,-716.91 -149.84,-1303.43 -912.68,-1303.43l-2805.41 -0.01 -2353.91 6468.25 -0.87 0 -1334.45 3666.69c-3165.95,-752.66 -5520.82,-3598.61 -5520.82,-6994.81 0,-3298.31 2220.96,-6077.59 5248.84,-6924.65l-1376.93 3784.52 -0.4 0 -2289.07 6288.47 1523.83 0.13 1946.67 -5343.64 1145.22 0 -1946.68 5343.64 1523.26 0.26 1814.09 -4985.42c260.97,-716.91 -149.7,-1303.43 -911.84,-1303.43l-1280.93 -0.01 1470.84 -4042.4c107.22,-4.76 214.83,-7.56 323.14,-7.56 3970.98,0 7190.05,3219.09 7190.05,7190.09 0,3970.9 -3219.07,7190.04 -7190.05,7190.04z"/>
 </g>
</svg>
