<?xml version="1.0" encoding="UTF-8"?>
<!DOCTYPE svg PUBLIC "-//W3C//DTD SVG 1.1//EN" "http://www.w3.org/Graphics/SVG/1.1/DTD/svg11.dtd">
<!-- Creator: CorelDRAW 2018 (64 Bit Versión de evaluación) -->
<svg xmlns="http://www.w3.org/2000/svg" xml:space="preserve" width="380mm" height="285mm" version="1.1" style="shape-rendering:geometricPrecision; text-rendering:geometricPrecision; image-rendering:optimizeQuality; fill-rule:evenodd; clip-rule:evenodd"
viewBox="0 0 38000 28500"
 xmlns:xlink="http://www.w3.org/1999/xlink">
 <defs>
  <style type="text/css">
   <![CDATA[
    .str0 {stroke:black;stroke-width:7.62;stroke-miterlimit:22.9256}
    .fil2 {fill:#FEFEFE}
    .fil0 {fill:#ED3237}
    .fil3 {fill:black}
    .fil1 {fill:white}
   ]]>
  </style>
 </defs>
 <g id="Capa_x0020_1">
  <metadata id="CorelCorpID_0Corel-Layer"/>
  <g id="_2671530020272">
   <path class="fil0" d="M23205.07 15655.3l325.3 1.18c-53.44,-376.23 -42.44,-556.97 -37.66,-938.32l5.15 -196.2c58.39,85.55 355.17,980.11 394.48,1133.39l390.16 0.62c129.21,-190.91 282.21,-920.51 426.44,-1137.9 3.6,455.27 8.35,660.59 -22.61,1136.3l631.36 2.17c-61.99,-512.48 -49.17,-984.06 -4,-1503.39l-745.83 -2.62c-72.87,163.3 -234,730.78 -309.18,823.85 -120.07,-200.65 -220.53,-824.1 -333.37,-824.07l-718.75 1.06c53.95,306.49 73.35,1217.05 -1.49,1503.93z"/>
   <path class="fil0" d="M26554.05 14167.91c-244.86,61.88 -265.56,226.16 -265.98,502.32 -1.35,866.6 -67.25,987.82 590.01,986.73 745.44,-1.27 1026.3,125.46 1026.1,-533.88 -0.25,-860.83 67.62,-974.49 -597.46,-972.32 -198.32,0.64 -587.12,-24.67 -752.67,17.15z"/>
   <path class="fil1" d="M12515.41 16388.42c915.71,-23.32 2203.07,-532.31 2004.47,-1526.06 -88.87,-444.69 -463.53,-854.34 -713.79,-1073.8 -217.44,-190.69 -768.9,-594.86 -1092.23,-712.95 53.86,108.93 235.72,343.41 323.47,457.74l1000.71 1375.3c-88.71,146.96 -1498.44,1312.67 -1616.91,1480.47l94.28 -0.7z"/>
   <path class="fil0" d="M16856.91 15361.92l42.22 291.32c265.86,11.03 543.46,3.41 811.02,3.69 295.35,0.31 532.61,34.48 571.4,-272.79 28.18,-223.06 49.36,-609.48 -101.59,-707.66 -264.33,-171.96 -773.28,108.93 -781.72,-174.86 -3.38,-113.77 9.31,-100.44 335.7,-99.59 213.84,0.53 325.42,-4.11 530.93,36.28 -7.85,-95.06 -16.51,-205.96 -50.85,-273.35 -112.65,-35.55 -903.7,-26.02 -1074.62,-13.25 -169.03,12.66 -257.85,95.29 -284.54,259.4 -15.98,98.3 -15.11,467.56 3.29,564.31 75.06,394.52 793.11,60.56 871.77,249.42 100.69,241.76 -206.38,182.31 -353.14,182.08 -230.18,-0.36 -315.12,7.12 -519.87,-45z"/>
   <path class="fil0" d="M28910.96 14551.46c0,325.19 27.59,786.53 -41.68,1104.99l329.29 2.08c-60.66,-472.25 -38.56,-728.25 -35.04,-1220.81l613.75 1212.74 742.85 2.95c7.12,-325.49 -37.55,-1262.49 43.23,-1499.5l-330.14 -4.22c66.15,484.06 36.2,664.8 35.24,1176.91 -99.87,-76.67 -563.85,-1081.71 -606.27,-1174.66l-797.94 2.84c59.42,124.93 46.71,240.5 46.71,396.68z"/>
   <path class="fil0" d="M20947.36 15654.2l1313.54 2.34 47.31 -278.19c-255.94,30.09 -480.1,34.87 -743.36,27.19l-6.52 -400.19c248.94,-4.39 423.48,-1.38 660.02,28.24l0.28 -312.76c-230.46,31.67 -415.08,35.61 -656.81,27.82l-2.11 -343.81c264.37,-7.42 466.43,-2.31 718.32,26.19l-42.78 -279.99 -1286.79 -0.59c54.17,359.78 80.18,1156.32 -1.1,1503.75z"/>
   <path class="fil0" d="M19303.15 15653.47l644.24 2.81c-72.65,-321.64 -57.83,-1174.38 -0.9,-1505.13l-640.9 -0.34c41.32,405.85 73.35,1114.47 -2.44,1502.66z"/>
   <path class="fil1" d="M26877.02 15386.05c543.86,55.55 455.51,111.91 454.5,-644.1 -0.39,-170.69 52.68,-321.3 -117.73,-340.01 -120.52,-13.21 -336.44,-39.88 -353.73,101.54 -15.14,123.72 -6.5,792.71 16.96,882.57z"/>
   <g>
    <polygon class="fil2" points="10239.02,9733.83 7478.32,13521.65 10253.9,18299.06 "/>
    <path class="fil3 str0" d="M12207.02 12430.13c705.94,283.39 1325.01,633.78 1802.25,1015.07 781.8,624.64 1192.88,1330.67 1031.5,1964.34 -162.43,637.01 -869.73,1068.88 -1871.13,1247.19 -363.52,64.72 -764.93,95.97 -1191.62,92l444.69 -399.86c116.19,-12.26 228.91,-28.1 337.62,-47.45 854.03,-152.07 1457.26,-520.37 1595.78,-1063.64 137.62,-540.43 -212.97,-1142.57 -879.71,-1675.3 -240.61,-192.23 -523.53,-375.27 -839.01,-542.73l-430.37 -589.62zm-3152.36 3804.78c-1030.43,-348.06 -1887.78,-829.68 -2477.15,-1352.56 -679.93,-603.2 -1005.76,-1265.78 -829.5,-1852.31 174.13,-581.63 816.74,-987.26 1719.17,-1174.54 392.32,-81.43 834.62,-123.05 1312.84,-119.85l-282.1 387.04c-212.26,16.82 -413.3,45.08 -600.9,84.04 -769.63,159.72 -1317.68,505.66 -1466.18,1001.71 -150.33,500.21 127.55,1065.28 707.44,1579.72 410.52,364.2 973.53,704.91 1644.83,979.3l153.62 264.47 117.93 202.98z"/>
    <polygon class="fil0" points="10239.02,9733.83 14019.36,14913.15 10253.9,18299.06 "/>
    <path class="fil3" d="M8773.66 15751.18c887.67,355.84 2348.95,640.3 3649.05,597.69l-454.2 408.41c-1025.56,-48.12 -2171.82,-250.93 -2911.32,-513.8l-283.53 -492.3z"/>
   </g>
  </g>
 </g>
</svg>
