<?xml version="1.0" encoding="UTF-8"?>
<!DOCTYPE svg PUBLIC "-//W3C//DTD SVG 1.1//EN" "http://www.w3.org/Graphics/SVG/1.1/DTD/svg11.dtd">
<!-- Creator: CorelDRAW 2018 (64 Bit Versión de evaluación) -->
<svg xmlns="http://www.w3.org/2000/svg" xml:space="preserve" width="380mm" height="285mm" version="1.1" style="shape-rendering:geometricPrecision; text-rendering:geometricPrecision; image-rendering:optimizeQuality; fill-rule:evenodd; clip-rule:evenodd"
viewBox="0 0 38000 28500"
 xmlns:xlink="http://www.w3.org/1999/xlink">
 <defs>
  <style type="text/css">
   <![CDATA[
    .fil1 {fill:black}
    .fil0 {fill:#005DAA}
   ]]>
  </style>
 </defs>
 <g id="Capa_x0020_1">
  <metadata id="CorelCorpID_0Corel-Layer"/>
  <g id="_2671523042848">
   <path class="fil0" d="M5725.69 15310.06c-281.28,0 -420.85,-5.8 -683.24,-139.55 -130.13,-66.32 -190.25,-130.67 -289,-212.03 -35.06,-28.9 -54.78,-49.81 -84.8,-82.9l-71.28 -87.08c-179.58,-222.56 -309.58,-573.28 -309.58,-881.63 0,-425.84 39.51,-614.07 251.07,-943.69 66.7,-103.9 227.06,-264.66 324.14,-337.45 388.01,-291 910.77,-340.05 1335.64,-115.28 159.03,84.15 269.73,184.42 387.61,310.78 101.4,108.72 212.8,298.62 270.52,435 144.83,342.36 160.12,845.92 0.23,1189.69 -73.76,158.63 -116.07,236.39 -222.87,363.52 -18.07,21.52 -19.26,28.91 -38.37,50.82 -70.32,80.65 -73.2,70.73 -119.93,116.82 -183.38,180.83 -490.26,332.98 -750.14,332.98zm-2185.61 -1606.55l0 17.53 0 17.22c0.09,353.14 3.08,517.77 113.81,871.5 53.98,172.38 150.63,378.23 249,518.82l161.89 214.67c167.9,177.19 259.92,275.09 468.07,408.49 240.28,154 629.72,290.42 953.21,290.42 381.5,0 585.64,-10.66 936.23,-196.58 94.68,-50.21 254.17,-156.29 331.26,-228.19 23.59,-21.99 40.78,-34.03 62.68,-55.54 41.33,-40.56 71.88,-87.31 117.32,-119.6l0 508.39 709.35 0c22.11,0 28.77,-7.07 28.77,-30.51l0 -4158.71c0,-23.44 -6.66,-30.51 -28.77,-30.51l-680.58 0c-47.4,0 -28.77,136.54 -28.77,233.86 0,88.12 0,176.27 0,264.37 -26.24,-18.64 -36.13,-35.23 -59.8,-58.58l-194.91 -169.47c-421.54,-337.02 -1051.63,-451.03 -1578.24,-323.15 -268.3,65.11 -470.04,149.13 -686.73,318.87 -27.63,21.64 -43.8,32.27 -71.59,56.27 -150.3,129.6 -314.25,300.39 -422.67,466.8 -208.23,319.59 -379.53,757.72 -379.53,1183.63z"/>
   <path class="fil0" d="M15091.28 13744.18c0,411.96 36.96,669.57 179.34,1019.78 73.56,180.96 170.07,342.98 283.8,492.08l172.17 203.74c28.86,25.84 39.08,31.12 66.89,61.25 274.52,297.27 817.1,541.46 1234.2,541.46 385.71,0 679.48,-52.56 987.5,-213.36 117.96,-61.6 225.59,-131.28 327.16,-212.22 25.54,-20.36 44.89,-34.46 71.35,-56.5 17.31,-14.44 19.87,-19.23 35.68,-33.33 176,-156.97 405.52,-435.97 502.07,-657.14 186.18,-426.46 233.09,-764.13 233.09,-1288.12 0,-23.44 -6.69,-30.51 -28.76,-30.51l-1744.67 0 0 660.95 977.79 0c-149.14,679.01 -696.68,1140.59 -1407.82,1066.21 -197.78,-20.68 -402.55,-112.89 -551.61,-218.17 -34.38,-24.29 -57.74,-41.26 -89.01,-68.27 -61.14,-52.82 -104.78,-97.09 -158.94,-156.8l-66.07 -82.45c-160.26,-212.56 -276.46,-558.17 -276.46,-845.57l0 -183.03c0,-381.16 180.17,-756.57 361.88,-948.18 122.48,-129.19 188.67,-193.04 357.08,-282.15 463.7,-245.37 1028.56,-180.54 1416.5,185.4 34.28,32.33 40.62,26.96 69.09,69.07 30.65,45.33 25.78,41.67 95.64,40.94l805.71 -0.54c-24.2,-110.14 -259.43,-442.27 -356.9,-546.72 -74.98,-80.4 -144.79,-157.41 -227.78,-226.12 -472.23,-390.9 -1143.73,-525.63 -1721.86,-372.2 -861.91,228.72 -1547.06,1145.49 -1547.06,2080.5z"/>
   <path class="fil0" d="M26393.24 13886.53c0,-527.62 149.41,-945.3 536.72,-1260.96 356.96,-290.93 910.87,-348.12 1307.12,-145.76 439.51,224.45 753.99,707.55 753.99,1284.7l0 122.02c0,416.45 -173.56,790.34 -371.45,999.04 -123.06,129.74 -207.62,214.78 -379.41,299.12 -76.29,37.46 -151.53,67.78 -243.53,87.42l-299.19 37.47 -291.97 -36.12c-96.2,-23.62 -173.51,-47.06 -251.9,-88.69 -469.24,-249.18 -760.38,-727.52 -760.38,-1298.24zm1270.21 -2287.82l13.64 0c37.68,2.17 61.57,10.83 115.71,10.17 211.25,-2.54 530.56,89.38 712.62,179.63 113.08,56.07 225.85,114.31 325.39,193.72 52.64,42.01 97.49,72.54 147.85,117.72l129.84 126.65c530.55,563.68 755.4,1337.55 567.05,2131.76 -35.39,149.32 -78.49,267.91 -127.11,393.93 -47.14,122.19 -113.36,242.69 -179.65,348.34l-164.51 222.06c-199.54,226.16 -353.22,376.88 -635,526.28 -312.96,165.91 -553.48,213.52 -939.44,213.52 -422.12,0 -909.79,-194.42 -1200.41,-465.44l-191.94 -192.93c-155.57,-164.74 -215.76,-276.01 -321.71,-462.06 -35.12,-61.68 -51.74,-109.59 -81.76,-177.66 -142.36,-323.14 -188.49,-603.5 -188.49,-999.89 0,-465.17 151.44,-868.27 377.7,-1216.08 109.95,-168.96 335.56,-418.25 506.06,-541.04 136.51,-98.33 165.73,-120.7 317.68,-201.94 115.11,-61.54 239.9,-108.73 372.58,-143.71 75.14,-19.82 133.46,-33.27 217.74,-43.56l226.16 -19.47z"/>
   <path class="fil0" d="M31435.52 12198.65l0.17 -366.25c0.6,-46.99 12.84,-101.49 -28.92,-101.49l-661.45 0 0 4219.73 718.95 0 0 -1962.42c0,-398.29 50.63,-827.99 175.61,-1094.91 141.32,-301.82 408.92,-491.31 744.65,-491.31 261.28,0 475.46,2.78 687.22,186.16 329.36,285.26 357.67,770.94 357.67,1267.86l0 2094.62 718.95 0 0 -2491.16c0,-471.14 -129.41,-938.79 -362.85,-1242.02 -141.33,-183.6 -318.42,-327.94 -527.15,-416.98 -346.04,-147.62 -893.84,-202.26 -1291.58,-24.62 -126.78,56.63 -187.61,99.29 -290.34,180.13 -34.34,27.02 -48.53,45.38 -83.5,74.09 -32.1,26.32 -50.36,50.12 -78.37,79.56 -14.39,15.13 -24.85,24.62 -37.82,41.24 -17.46,22.43 -19.62,32.39 -41.24,47.77z"/>
   <path class="fil0" d="M10183.22 15950.64l508.08 0c34.58,0 33.74,-40.34 67.18,-111.72l228.63 -530.28c19.02,-49.8 40.08,-86.5 57.53,-132.19l541.3 -1256.05c11.81,-26.89 19.95,-39.92 31.14,-68.67l167.14 -392.12c18.24,-43.52 37.92,-85.58 57.52,-132.18l230.04 -528.77c19.98,-42.62 37.5,-89.11 57.56,-132.16 56.32,-120.9 388.46,-879.31 392.88,-935.59l-747.7 0c-101.07,202.58 -224.07,550.06 -325.94,772.76l-968.19 2328.49c-29.44,-22.86 -29.37,-44.78 -45.21,-84.24l-839.36 -2048.23c-27.91,-69.05 -50.02,-132.3 -80.42,-199.41 -28.52,-62.96 -55.1,-130.66 -78.51,-191.26l-222.82 -546.61c-8.15,-15.96 -10.75,-31.5 -37.38,-31.5l-718.96 0c-47.98,0 -15.24,41.01 12.25,109.04l217.99 531.37c18.14,42.76 39.38,90.9 55.96,133.82 131.91,341.37 303.41,717.68 438.29,1060.31 138.82,352.62 302.95,715.63 436.76,1061.94 33.74,87.36 73.93,176.45 111.03,268.58l411.28 997.48c12.59,31.73 11.34,57.19 41.93,57.19z"/>
   <path class="fil0" d="M22309.57 11761.42l0 4189.22 2847.08 0 0 -732.1c0,-23.41 -6.67,-30.49 -28.76,-30.49l-2099.33 0 0 -3426.63c0,-23.44 -6.7,-30.51 -28.77,-30.51l-661.45 0c-22.08,0 -28.77,7.07 -28.77,30.51z"/>
   <path class="fil0" d="M13337.05 11761.42l0 4158.71c0,23.44 6.67,30.51 28.74,30.51l690.2 0 0 -4189.22c0,-23.44 -6.67,-30.51 -28.75,-30.51l-661.45 0c-22.07,0 -28.74,7.07 -28.74,30.51z"/>
   <polygon class="fil0" points="20296.51,15950.64 21005.89,15950.64 21005.89,11730.91 20296.51,11730.91 "/>
   <path class="fil1" d="M16327.89 17241.99l0 1220.17c0,46.03 49.16,30.49 153.37,30.49l13.24 -1081.67c5.25,13.42 5.28,14.7 9.6,30.49l222.7 770.42c15.49,49.03 26.79,95.88 40.81,139.74 14.06,44.07 29.73,96.15 39.57,141.02l153.39 0 82.76 -278.24c30.31,-98.4 52.36,-182.96 81.33,-279.8 26.52,-88.61 57.64,-188.78 84.01,-276.93 14.83,-49.63 25.46,-91.57 40.7,-139.86l46.71 -143.64 0 1118.47 153.38 0 0 -1281.18 -258.83 0 -297.18 1057.5c-1.32,-2.04 -3.02,-7.93 -3.5,-6.46l-266.08 -917.6c-11.51,-39.46 -28.31,-93.13 -37.16,-133.44 -88.69,0 -258.82,-20.45 -258.82,30.52z"/>
   <path class="fil1" d="M30227.66 17679.23l0 -81.36 -153.36 0 0 864.29c0,43.37 36.78,30.49 124.61,30.49 48.06,0 28.75,-180.46 28.75,-274.54 0,-105.14 0.42,-210.31 -0.21,-315.45 -1.77,-280.26 268.63,-240.19 268.63,-60.76l0 650.75 143.79 0 0 -559.24c0,-325.65 215.98,-219.81 232.35,-205.79 22.99,19.74 45.65,80.81 45.65,124.44l0 640.59 143.8 0 0 -691.41c0,-298.81 -387.25,-259.28 -421.8,-122.01l-19.16 0c-25,-99.24 -220.24,-134.1 -324.4,-69.56 -44.74,27.71 -38.2,45.88 -68.65,69.56z"/>
   <path class="fil1" d="M22894.33 18167.29c0,139.5 -82.02,203.35 -210.87,203.35 -151.98,0 -201.34,-102.1 -201.34,-264.36l-153.35 0c-30.34,138.04 32.69,326.95 181.79,386.72 186.12,74.66 546.74,46.37 546.74,-346.06 0,-378.18 -536.82,-363.01 -536.82,-620.24 0,-62.41 5.25,-108.1 50.23,-150.08 76.53,-71.44 286.53,-69.47 303.02,110.93 8.46,92.8 -37.33,79.8 173.98,79.8 0,-244.66 -90.42,-386.37 -335.5,-386.37 -325.35,0 -433.99,318.78 -308.89,531.01 112.83,191.51 491.01,235.21 491.01,455.3z"/>
   <path class="fil1" d="M28425.49 17628.37c0,454 -73.21,894.79 393.03,894.79 221.05,0 335.52,-151.69 335.52,-386.37 0,-45.19 -44.76,-30.51 -143.81,-30.51 -63.31,0 8.53,142 -99.31,230.2 -60.77,49.69 -243.45,78.09 -295.15,-86.32 -40.04,-127.26 -40.92,-697.1 1.27,-804.97 36.88,-94.32 109.93,-111.69 201.48,-111.69 126.95,0 153.39,100.34 153.39,233.85l162.93 0c0,-116.01 4.27,-229.67 -88.83,-312.49 -123.41,-109.75 -620.52,-179.47 -620.52,373.51z"/>
   <path class="fil1" d="M31378 18096.11c0,-140.45 -14.63,-376.06 137.27,-392.52 204.48,-22.18 179.07,256.75 179.07,402.69 0,243.07 -59.02,274.54 -182.14,274.54 -109.59,0 -134.2,-162.34 -134.2,-284.71zm0 732.08l-143.78 0 0 -1230.32 143.78 0 0 91.51c28.02,-21.77 30.74,-45.66 72.31,-75.79 98.12,-71.05 397.4,-93.81 397.4,380.84 0,210 7.15,518.56 -268.39,518.56 -138.74,0 -127.41,-49.18 -201.32,-101.68l0 416.88z"/>
   <path class="fil1" d="M32279.08 18380.82c-138.17,0 -153.37,-44.26 -153.37,-193.2 0,-145.74 198.44,-132.19 287.58,-132.19 0,91.09 2.69,325.39 -134.21,325.39zm-258.82 -528.76l134.21 0c0,-133.96 34.45,-152.51 153.38,-152.51 121.36,0 105.44,149.54 105.44,233.86 -191.24,0 -440.96,20.44 -440.96,274.54 0,358.75 276.75,331.54 368.67,269.01 47.44,-32.27 48.82,-55.8 81.87,-96.14l0 111.83 153.38 0c0,-57.97 -9.83,-70.49 -9.91,-131.82 -0.21,-155.14 26.66,-589.77 -50.08,-689.15 -101.98,-132.03 -439.83,-151.39 -507.28,77 -4.43,14.99 -8.81,35.67 -10.89,61.95 -2.12,27.28 -11.04,41.43 22.17,41.43z"/>
   <path class="fil1" d="M21513.94 18380.82c-120.28,0 -153.39,-41.97 -153.39,-172.87 0,-172.24 187.52,-152.52 297.18,-152.52 0,103.92 -12.77,325.39 -143.79,325.39zm-278 -569.41l0 40.65 153.38 0c0,-154.91 62.71,-152.51 162.98,-152.51 95.71,0 105.43,128.62 105.43,233.86 -112.02,0 -237.68,-5.18 -331.84,54.75 -117.93,75.1 -109.12,163.48 -109.12,280.81 0,266.42 305.12,321.48 421.48,142.01l19.48 -30.16 0 111.83 153.39 0 -9.59 -284.7c0,-166.11 22.51,-436.75 -48.74,-538.05 -101.14,-143.82 -516.85,-145.29 -516.85,141.51z"/>
   <path class="fil1" d="M15484.32 18380.82c-113.69,0 -153.4,-32.18 -153.4,-183.03 0,-156.9 207.3,-142.36 297.19,-142.36 0,128.38 -16.62,325.39 -143.79,325.39zm-278.01 -528.76l153.38 0c0,-147.6 63.44,-152.51 162.96,-152.51 107.87,0 105.46,151.93 105.46,233.86 -117.71,0 -229.5,-5.45 -331.76,54.8 -181.25,106.82 -141.04,524.78 101.69,524.78 55.2,0 111.77,-5.19 155.24,-38.66 31.69,-24.39 50.16,-64.15 74.83,-83.35l0 101.67 153.37 0c0,-98.18 -9.57,-176.39 -9.57,-284.7 0,-439.94 55.6,-630.43 -316.35,-630.43 -69.3,0 -148.06,33.93 -182.93,70.36 -45.1,47.12 -66.32,109.92 -66.32,204.18z"/>
   <path class="fil1" d="M20277.33 18004.59c0,-431.21 265.31,-294.71 299.13,-246.11 68.16,97.87 88.97,622.34 -88.24,622.34 -96.41,0 -155.58,6.36 -187.8,-126.16 -14.65,-60.33 -23.09,-179.03 -23.09,-250.07zm153.38 508.4c336.85,0 345.11,-225.2 345.11,-528.73 0,-283.35 -97.28,-406.74 -345.11,-406.74 -188.44,0 -263.77,114.05 -291.99,280.03 -15.75,92.59 -17.26,263.44 0.02,365.26 10.49,61.97 21.61,108.14 45.51,155.04 43.68,85.65 125.37,135.14 246.46,135.14z"/>
   <path class="fil1" d="M19002.4 18045.28c0,-148.12 -4.51,-343.31 172.54,-343.31 172.83,0 172.55,185.7 172.55,333.12 0,328.79 -63.41,345.73 -210.89,345.73 -116.59,0 -134.2,-203.94 -134.2,-335.54zm-153.37 0c0,323.33 76.79,467.71 345.09,467.71 54.18,0 112.87,-12.99 150.55,-33.48 143.4,-77.91 156.19,-283.88 156.19,-454.58 0,-314.77 -83.75,-447.41 -345.09,-447.41 -252.56,0 -306.74,200.69 -306.74,467.76z"/>
   <path class="fil1" d="M17967.1 18380.82c-72.38,0 -131.17,7.51 -168.59,-105.88 -34.18,-103.61 -40.67,-415.96 18.83,-510.54 46.35,-73.63 214.96,-105.86 271.61,29.62 35.07,83.86 86.91,586.8 -121.85,586.8zm-345.09 -386.39c0,303.02 14.65,518.56 345.09,518.56 194.83,0 257.93,-113.28 288.72,-273.35 28.82,-149.81 23.9,-402.11 -37.72,-521.64 -100.04,-194.07 -438.07,-180.14 -531.16,-20.74 -44.55,76.27 -64.93,177.45 -64.93,297.17z"/>
   <path class="fil1" d="M23555.77 18380.82c-122.28,0 -201.32,-16.7 -201.32,-274.54 0,-131.67 -21.42,-365.11 115.83,-396.02 114.44,-25.76 183.99,18.91 210.72,120.84 27.05,103.33 11.38,212.4 9.08,326.15 -2.05,102.26 -39.42,223.57 -134.31,223.57zm-354.67 -396.56c0,150.76 -7.8,290.22 68.65,415.23 89.51,146.37 425.39,169.56 522.89,-21.64 40.09,-78.63 62.27,-243.07 59.86,-332 -0.99,-36.01 -8.23,-34.65 -9.33,-81.73 -4.55,-192.83 -61.11,-386.6 -287.4,-386.6 -113.4,0 -221.87,7.91 -291.93,117.41 -41.46,64.8 -62.74,183.95 -62.74,289.33z"/>
   <path class="fil1" d="M29633.33 18380.82c-72.4,0 -131.16,7.51 -168.58,-105.88 -34.22,-103.61 -40.69,-415.96 18.84,-510.54 39.38,-62.55 303.12,-180.74 303.12,230.03 0,140.17 1.45,386.39 -153.38,386.39zm-345.09 -386.39c0,303.02 14.64,518.56 345.09,518.56 194.85,0 257.91,-113.28 288.72,-273.35 28.83,-149.81 23.91,-402.11 -37.69,-521.64 -100.09,-194.07 -438.1,-180.14 -531.2,-20.74 -44.52,76.27 -64.92,177.45 -64.92,297.17z"/>
   <path class="fil1" d="M25990.63 18116.44c0,-183.22 -30.22,-393.96 157.12,-413.15 56.2,-5.73 106.21,15.57 134.55,52.94 60.48,79.8 43.84,264.87 43.84,380.56 0,235.49 -90.33,244.03 -201.31,244.03 -104.49,0 -134.2,-148.61 -134.2,-264.38zm-153.37 -142.35c0,152.28 -9.58,306.66 70.95,433.11 88.85,139.55 392.1,144.57 496.35,5.95 104.86,-139.47 102.87,-604.11 5.33,-731.26 -111.16,-144.93 -405.07,-141.69 -505.9,7.11 -42.91,63.35 -66.73,174.19 -66.73,285.09z"/>
   <path class="fil1" d="M33755.33 18828.19l383.46 -1230.32 -162.97 0c-3.78,48.23 -77.35,293.73 -94.73,357.06 -16.43,59.97 -32.31,115.93 -47.94,172.88 -17.28,63.04 -35.09,118.25 -49.05,181.81 -1.33,-2 -3.09,-7.8 -3.57,-6.37l-11.77 -28.18c-5.13,-16.34 -9.26,-36.55 -12.32,-47.95l-173.65 -629.25 -162.96 0c7.91,100.82 287.26,841.65 273.18,919.24 -5.56,30.65 -15.87,55.73 -22.76,78.51l-68.28 232.57 153.36 0z"/>
   <path class="fil1" d="M26776.69 17699.55l0 -101.68 -153.37 0 0 864.29c0,43.37 36.8,30.49 124.6,30.49 44.37,0 28.94,-81.15 28.78,-132.15l0.99 -487.03c22.55,-226.04 305.75,-230.25 305.75,-21.41l0 640.59 143.8 0 0 -660.91c0,-308.28 -284.01,-275.03 -370.38,-220.01 -36.65,23.33 -38.18,33.16 -62.67,65.72l-17.5 22.1z"/>
   <path class="fil1" d="M24303.48 18248.63c0,298.21 279.29,351.35 450.54,142.35l0 101.67 153.39 0c-0.96,-45.97 -9.59,-40.4 -9.59,-91.51l0 -803.27 -143.8 0 0 569.42c0,293.61 -297.16,279.24 -297.16,81.34l0 -650.76 -153.38 0 0 650.76z"/>
   <path class="fil1" d="M27380.61 17801.24c0,146.59 52.57,192.65 179.05,267.64 120.51,71.43 233.14,74.22 233.14,210.25 0,130.75 -268.4,150.6 -268.4,-10.16l0 -50.86 -172.55 0c16.17,206.01 98.45,294.88 306.74,294.88 82.2,0 152.86,-22.37 200.45,-61.93 111.09,-92.34 126.1,-299.96 -2.94,-401.75 -59.82,-47.2 -100.06,-63.38 -168.63,-95.68 -295.36,-139.21 -107.08,-254.08 -57.63,-254.08 70.3,0 153.38,-9.38 153.38,142.35 177.25,0 176.05,17.09 151.5,-89.16 -61.18,-264.8 -554.11,-220.28 -554.11,48.5z"/>
   <path class="fil1" d="M32883.02 17709.72l0 -111.85 -153.39 0c22.87,104.16 9.59,738.08 9.59,894.78l143.8 0 0 -477.88c0,-126.86 12.25,-264.17 102.36,-298.21 47.7,-18.04 111.08,-19.7 153.01,6.98 42.89,27.32 60.96,79.97 60.96,148.87l0 620.24 143.79 0 0 -650.75c0,-345.88 -341.71,-296.07 -423.5,-184.81l-36.62 52.63z"/>
   <path class="fil1" d="M25127.89 17445.35l0 152.52 -143.79 0 0 111.85 143.79 0 0 640.59c0,164.22 172.16,164.17 281.68,146.27 59.6,-9.76 53.82,5.51 53.82,-95.44 0,-66.08 -88.36,11.91 -159.23,-44.62 -16.57,-13.21 -32.49,-49.31 -32.49,-77.39l0 -569.41 182.13 0 0 -111.85 -182.13 0 0 -233.86c-15.92,1.39 -143.78,40.28 -143.78,81.34z"/>
   <path class="fil1" d="M18465.57 17445.35l0 152.52 -143.78 0 0 111.85 143.78 0 0 660.92c0,182.33 267.79,122.01 325.93,122.01l0 -122.01c-54.82,0 -65.25,16.16 -115.64,1.14 -39.61,-11.8 -66.49,-30.84 -66.49,-82.48l0 -579.58 182.13 0 0 -111.85 -182.13 0 0 -233.86c-29.6,2.61 -52.46,15.26 -79.6,27.41 -25.47,11.38 -64.2,22.98 -64.2,53.93z"/>
   <path class="fil1" d="M20919.61 17241.99l0 1220.17c0,43.37 36.78,30.49 124.61,30.49 22.09,0 28.76,-7.08 28.76,-30.49l0 -1220.17c0,-43.38 -36.8,-30.52 -124.61,-30.52 -22.09,0 -28.76,7.1 -28.76,30.52z"/>
   <polygon class="fil1" points="23996.73,18492.65 24140.51,18492.65 24140.51,17211.47 23996.73,17211.47 "/>
   <path class="fil0" d="M34953.6 11761.42l0 538.91c0,34.5 16.82,30.49 47.93,30.49 46.93,0 28.75,-103.8 28.75,-203.36 0,-81.35 0,-162.69 0,-244.04l162.32 407.43c12.47,29.7 10.56,36.61 48.58,39.97l167.06 -432.9c11.57,-24.12 3.54,-10.57 15.08,-24.66l0 457.56c54.33,0 76.68,7.99 76.68,-30.49l0 -538.91c0,-39.54 -24.6,-30.51 -86.27,-30.51 -34.08,0 -31.65,37.01 -54.84,94.35l-127.3 332.7c-60.5,-47.02 -139.67,-427.05 -201.31,-427.05 -54.32,0 -76.68,-7.99 -76.68,30.51z"/>
   <path class="fil1" d="M19788.46 17719.9l0 -122.03 -143.8 0 0 894.78 143.8 0c0,-130.91 -16.93,-577.84 28.87,-670.96 53.48,-108.71 128.36,-91.63 239.52,-91.63l0 -152.54c-174.99,0 -189.28,19.33 -256.25,124.76 -10.16,16 -3.31,6.83 -12.14,17.62z"/>
   <polygon class="fil1" points="25549.67,18492.65 25693.46,18492.65 25693.46,17597.87 25549.67,17597.87 "/>
   <path class="fil0" d="M34445.53 11761.42l0 50.83 172.55 0 0 488.08c0,44.01 76.68,44.01 76.68,0l0 -488.08 172.55 0 0 -81.34 -393.03 0c-22.08,0 -28.75,7.07 -28.75,30.51z"/>
   <polygon class="fil1" points="25540.08,17374.18 25703.04,17374.18 25703.04,17211.47 25540.08,17211.47 "/>
  </g>
 </g>
</svg>
