<?xml version="1.0" encoding="UTF-8"?>
<!DOCTYPE svg PUBLIC "-//W3C//DTD SVG 1.1//EN" "http://www.w3.org/Graphics/SVG/1.1/DTD/svg11.dtd">
<!-- Creator: CorelDRAW 2018 (64 Bit Versión de evaluación) -->
<svg xmlns="http://www.w3.org/2000/svg" xml:space="preserve" width="380mm" height="285mm" version="1.1" style="shape-rendering:geometricPrecision; text-rendering:geometricPrecision; image-rendering:optimizeQuality; fill-rule:evenodd; clip-rule:evenodd"
viewBox="0 0 38000 28500"
 xmlns:xlink="http://www.w3.org/1999/xlink">
 <defs>
  <style type="text/css">
   <![CDATA[
    .fil1 {fill:black}
    .fil2 {fill:#BD0026}
    .fil0 {fill:#F4EB15}
   ]]>
  </style>
 </defs>
 <g id="Capa_x0020_1">
  <metadata id="CorelCorpID_0Corel-Layer"/>
  <g id="_2671524634896">
   <path class="fil0" d="M24842.7 12864.21c411.51,0 822.78,-2.28 1234.41,-2.28 141.41,0 1183.73,-9.62 1226.36,6.43l7.16 4.79c30.94,59.56 72.5,115.49 107.12,172l631.83 987.9c33.82,54.41 70.55,107.13 104.68,162.49 85.42,138.6 818.85,1264.92 835.72,1314.41 1005.14,0 2010.28,0 3015.42,0 -9.56,-41 -42.66,-77.16 -62.54,-110.44l-862.12 -1347.21c-151.2,-224.91 -336.94,-528.46 -484.23,-758.04l-380.59 -594.35c-49.26,-73.45 -89.66,-142.76 -138.42,-215.4l-208.18 -326.46c-24.13,-40.9 -46.4,-68.78 -70.77,-110.07 -12.58,-21.34 -21.84,-34.14 -34.03,-52.45 -145.59,-218.7 -299.87,-476.42 -448.16,-699.76 -206.73,-311.36 -416.19,-664.93 -625.82,-978.12l-205.01 -321.77c-12.59,-21.34 -21.85,-34.14 -34.04,-52.45 -13.17,-19.78 -21.58,-36.34 -35.99,-58.36 -24.91,-38.07 -43.37,-67.47 -67.65,-105.32 -24.24,-37.78 -45.77,-72.74 -70.81,-110.03l-309.7 -484.41c-13.32,-20.32 -23.35,-33.79 -34.32,-52.16l-208.12 -326.53c-28.32,-46.46 -129.91,-192.43 -138.19,-223.47 -30.34,8.1 -52.91,63.73 -91.26,121.04 -16.77,25.06 -27.15,44.93 -42.33,67.74l-558.31 872.65c-140.13,209.05 -287.28,459.91 -426.13,666.75l-257.9 402.54c-14.48,21.58 -25.82,39.29 -39.69,62.53 -85.15,142.63 -218.28,329.56 -300.91,469.61l-686.15 1075.04c-37.78,57.73 -332.95,504.18 -341.33,543.16z"/>
   <path class="fil1" d="M12066.23 15509.95l1391.71 0.07c65.14,0.53 74.53,10.31 102.63,-31.04 16.11,-23.7 31.04,-54.34 46.24,-79.55 16.28,-26.99 29.35,-51.77 46.12,-79.68 33.64,-55.97 60.68,-109.1 94.29,-165.17 220.16,-367.14 431.81,-756.81 649.61,-1127.3 15.97,-27.17 83.27,-149.13 98.89,-160.57l628.56 1022.55c95.01,158.76 308.61,489.88 377.84,620.69l1564.63 0c-3.83,-45.95 -388.98,-641.46 -410.39,-674.62 -72.15,-111.77 -138.29,-220.57 -209.23,-333.29l-941.83 -1503.39c-19.32,-29.42 -33.67,-52.92 -51.89,-81.77 -71.31,-112.95 -59.43,-93.55 50.23,-267.32l314.46 -511.11c235.23,-391.3 493.95,-790.49 729.36,-1181.2l416.62 -676.27c38.79,-65.22 122.6,-164.65 63.35,-164.65l-1368.07 0c-29.68,0 -102.79,141.69 -126.15,180.48l-119.12 195.38c-142.18,219.95 -338.78,551.26 -470.65,771.61 -39.19,65.5 -78.51,128.3 -118.97,195.53 -21.36,35.46 -109.02,170.16 -116.46,198.04 -27.93,-7.46 -23.55,-8.19 -37.03,-33.74 -66.25,-125.73 -297.88,-507.61 -376.28,-637.98l-461.86 -780.41c-11.15,-20.05 -18.77,-33.65 -28.31,-50.3 -9.8,-17.11 -15.47,-38.61 -40.02,-38.61l-1470.27 0c-24.35,0 -25.7,13.73 -19.2,33.05l1449.74 2444.04c8.47,14.01 19.81,29.74 26.48,44.66 18.31,40.95 8.66,63.27 -10.5,96.22l-1577 2598.02c-22.4,34.06 -94.72,143.78 -97.53,177.63z"/>
   <path class="fil1" d="M9487.34 13701.6c6.86,-29.43 37.04,-70.43 53.5,-95.89l480.69 -777.3c53.75,-90.38 403.63,-660.04 425.03,-675.71 0,58.74 -8.3,83.05 -7.97,141.41 0.3,52.49 -0.09,104.97 0.22,157.46 0.33,59.95 -8.34,87.37 -8.03,149.23 0.27,52.46 0.4,105.12 0.33,157.57 -0.08,53.11 -8.29,87.39 -8.15,149.11l-15.61 770.64c-7.91,38.22 -38.95,23.49 -133.77,23.48l-786.24 0zm-2500.26 1808.35l1415.24 0c34.16,0 116.94,-155.52 133.74,-180.75l309.8 -484.31c16.59,-25.31 44.87,-89.73 75.38,-89.73l1478.14 0c0,127.4 -11.16,673.16 7.87,754.79l1172.18 0.69c29.31,0.22 54.36,6.06 54.36,-24.27l0 -5330.74c0,-21.22 -3.75,-21.67 -7.87,-39.3l-1092.9 -0.03c-120.5,-0.63 -81.19,-10.75 -179.21,135.28l-550.43 856.95c-40.72,65.12 -83.59,124.15 -124.02,190.48 -22.7,37.22 -38.25,59.98 -61.61,95.65 -221.86,338.98 -453.93,721.9 -676.01,1053.71l-366.44 569.19c-199.39,297.46 -419.28,652.79 -614.79,957.71l-919.9 1430.96c-11.22,17.51 -19.76,29.66 -31.74,46.88 -13.9,19.99 -21.07,24.76 -21.79,56.84z"/>
   <path class="fil1" d="M19315.41 11665.22c0,338.53 72.08,618.85 267.22,872.83 468.66,609.95 1338.46,696.16 1703.95,1000.73 26.45,22.04 41.07,44.16 62.85,70.82 22.7,27.76 33.95,52.36 49.66,83.99 97.2,195.69 45.88,527.21 -178.44,623.81 -142.48,61.36 -389.93,36.78 -584.35,36.78l-1172.19 -0.68c-29.31,-0.23 -54.35,-6.07 -54.35,24.26l0 1108.61c0,18.11 5.47,23.58 23.58,23.58l1651.11 0c222.81,0 510.83,-67.94 705.45,-151.55 365.34,-156.94 702.33,-494.7 852.45,-861.57 165.25,-403.83 209.15,-742.3 88.69,-1168.11 -34.44,-121.76 -105.98,-264.24 -171.75,-355.02 -28.14,-38.86 -147.27,-186.76 -180.78,-212.35l-142.67 -124.66c-154.39,-115.74 -314.76,-219.27 -488.31,-305.78l-172.98 -86.49c-124.12,-62.4 -324.47,-146.02 -455.96,-204.48 -201.38,-89.54 -411.53,-166.69 -411.53,-421.89 0,-78.15 37.21,-139.4 73.79,-185.66 127.46,-161.19 456.03,-136.7 649.55,-136.7l912.05 0c35.96,0.07 110.07,14.26 110.07,-23.59l0 -1155.77c0,-18.12 -5.47,-23.59 -23.59,-23.59l-1344.48 0c-704.77,0 -1346.85,299.46 -1617.08,883.18 -83.39,180.12 -151.96,429.6 -151.96,689.3z"/>
   <path class="fil2" d="M28548.32 15509.95c-10.67,-30.99 -172.54,-275.29 -206.66,-330.43 -68.87,-111.32 -138.56,-217.16 -212.3,-330.01 -144.05,-220.45 -280.51,-440.05 -422.57,-662.79 -140.76,-220.68 -283.29,-434.87 -420.49,-656.46l-315.92 -493.97c-25.94,-41.55 -90.39,-129.35 -105.07,-169.05l438.16 1.12 7.16 4.79 -7.16 -4.79c-42.63,-16.05 -1084.95,-6.43 -1226.36,-6.43 -411.63,0 -822.9,2.28 -1234.41,2.28l-901.01 1398.77c-20.21,30.13 -32.77,52.09 -51.85,81.83l-531.62 828.57c-34.41,53.62 -196.78,297.26 -205.94,336.57l5396.04 0z"/>
   <path class="fil1" d="M17428.41 10155.63l0 5315.01c0,21.24 3.76,21.68 7.87,39.31 387.87,0 816.82,-5.67 1203.42,0.47 33.37,0.53 62.44,7.78 62.44,-24.05l0 -5346.46c0,-37.51 -63.75,-23.59 -133.67,-23.58l-1132.19 0c-4.11,17.63 -7.87,18.08 -7.87,39.3z"/>
   <path class="fil1" d="M28548.32 15509.95l441.66 0c-16.87,-49.49 -750.3,-1175.81 -835.72,-1314.41 -34.13,-55.36 -70.86,-108.08 -104.68,-162.49l-631.83 -987.9c-34.62,-56.51 -76.18,-112.44 -107.12,-172l-7.16 -4.79 -438.16 -1.12c14.68,39.7 79.13,127.5 105.07,169.05l315.92 493.97c137.2,221.59 279.73,435.78 420.49,656.46 142.06,222.74 278.52,442.34 422.57,662.79 73.74,112.85 143.43,218.69 212.3,330.01 34.12,55.14 195.99,299.44 206.66,330.43z"/>
   <path class="fil1" d="M13363.53 17609.22c329.02,0 275.19,39.94 275.18,-141.52l0 -503.19c48.03,35.19 263.62,322.36 298.78,322.36 44.02,0 121,-116.12 163,-159.36 34.86,-35.9 122.51,-143.59 151.49,-163l0 644.71 275.19 0 0 -1053.56 -228.01 0c-20.27,0 -38.06,24.76 -48.4,38.08l-313.27 347.18c-32.54,-48.58 -207.34,-239.37 -249.73,-284.92l-80.49 -100.34 -243.74 0 0 1053.56z"/>
   <path class="fil1" d="M11154.18 17609.22l275.18 0 0 -644.71c29.99,20.08 147.67,167.02 186.78,206.34 102.33,102.9 97.35,178.63 203.03,41.94 26.13,-33.79 46.34,-51.14 72.91,-84.34l150.56 -163.94 0 644.71 275.18 0 0 -1053.56c-250.04,0 -219.08,-21.92 -273.34,41.16 -16.66,19.36 -28.81,26.77 -45.7,48.65l-213.5 242.51c-19.64,20.03 -34.01,25.2 -41.42,52.94 -17.8,-11.92 -29.45,-24.87 -45.38,-41.11l-267.22 -298.88c-59.81,-65.47 -6.22,-45.27 -277.08,-45.27l0 1053.56z"/>
   <path class="fil1" d="M17554.21 17585.64c0,18.11 5.47,23.58 23.59,23.58l251.6 0 0 -668.3 485.15 544.82c132.56,158.32 75.01,123.48 316.82,123.48 18.11,0 23.59,-5.47 23.59,-23.58l0 -1029.98 -275.19 0 0 636.86 -540.07 -599.98c-13.81,-17.05 -17.68,-36.88 -41.75,-36.88l-243.74 0 0 1029.98z"/>
   <path class="fil1" d="M29284.99 17609.22l275.18 0 0 -660.44 446.16 497.35c195.13,191.95 47,163.09 371.54,163.09l0 -1053.56 -275.19 0 0 628.99 -104.53 -115.61c-13.33,-15.95 -24.66,-24.55 -39.11,-39.52l-285.47 -319.93c-17.15,-22.2 -126.5,-153.93 -152.71,-153.93l-235.87 0 0 1053.56z"/>
   <path class="fil1" d="M27539.53 17082.45c0,-179.16 135.51,-314.5 298.77,-314.5l70.76 0c386.93,0 449.43,628.99 -47.17,628.99 -187.21,0 -322.36,-133.77 -322.36,-314.49zm416.71 534.64l-131.16 0c-80.47,-1.99 -149.62,-12.06 -246.3,-54.98 -173.59,-77.05 -322.31,-264.81 -322.31,-479.66 0,-161.2 93.98,-315.45 183.13,-390.85 96.75,-81.82 246.84,-151.66 422.29,-151.66 501.09,0 755.13,416.87 581.91,762.74 -15.21,30.37 -29.37,55.12 -50.52,83.14 -17.43,23.09 -41.15,54.54 -61.89,71.78 -97.97,81.43 -234.73,159.49 -375.15,159.49z"/>
   <path class="fil1" d="M9275.05 17090.3c0,-187.06 133.94,-322.35 298.78,-322.35 116.04,0 201.57,2.45 289.18,88.21 151.32,148.11 137.93,540.78 -265.59,540.78 -185.79,0 -322.37,-137.75 -322.37,-306.64zm405.66 526.79l-138.19 0c-115.34,-9.46 -227.19,-43.11 -312.56,-104.3 -137.57,-98.62 -237.96,-250.79 -237.96,-430.34 0,-153.88 95.89,-320.91 184.12,-389.84 57.43,-44.88 106.2,-82.18 182.31,-108.61 617.58,-214.4 1099.33,365.78 770.29,801.74 -21.36,28.3 -35.12,49.53 -61.85,71.81 -45.62,38 -102.51,82.65 -160.39,106.93 -67.05,28.14 -145,46.05 -225.77,52.61z"/>
   <path class="fil1" d="M15494.25 17153.21c0,97.9 23.17,191.59 72.12,265.96 12.07,18.35 36.1,52.13 51.61,66.33 130.24,119.2 269.35,130.71 421.59,131.59l67.28 0 8.54 0c264.42,0 463.88,-174.95 463.88,-463.88l0 -597.55 -275.18 0 0 581.82c0,355.67 -534.65,337.1 -534.65,15.73l0 -597.55 -275.19 0 0 597.55z"/>
   <path class="fil1" d="M23160.14 16822.99c21.12,15.46 76.62,160.97 87.61,187.57 24.98,60.53 55.12,140.52 85.36,197.68l-322.35 0c15.05,-28.45 27.26,-64.36 38.39,-95.27l110.99 -289.98zm-589.68 786.23l290.91 0c2.53,-30.44 23.22,-67.81 34.39,-99.27 11.26,-31.7 33.9,-75.45 36.37,-105.15l487.47 0c8.3,35.64 25.44,69.87 39.53,102 14.99,34.18 29.87,70.14 46.96,102.42l290.91 0 -421.99 -930.35c-76.93,-152.52 19.91,-123.21 -356.4,-123.21 -22.75,0 -12.67,-7.08 -36.76,49.72l-411.39 1003.84z"/>
   <path class="fil1" d="M7568.9 17617.09l10.07 0 67.71 0c162.68,-0.56 248.74,-8.73 425.42,-102.22l0 -228c-34.69,2.89 -136.02,55.41 -174.07,69.67 -161.71,60.62 -373.92,62.98 -505.19,-58.72l-47.52 -54.69c-47.69,-69.05 -43.74,-113.59 -43.74,-192.14 0,-159.06 176.65,-283.04 338.08,-283.04 301.67,0 311.18,77.62 416.72,102.21l0 -243.74c-30.39,-7.07 -84.72,-39.06 -168.16,-59.86 -290.51,-72.38 -639.89,-8.19 -805.4,265.68 -117.72,194.78 -85.98,444.29 87.06,617.78 96.96,97.21 248.9,167.07 399.02,167.07z"/>
   <path class="fil1" d="M20817.13 17050.99c0,185.94 35.41,288.05 170.85,418.84 90.62,87.52 234.09,134.99 383.96,147.26l159.47 0c95.02,-7.7 185.96,-29.09 260.64,-62.93 29.63,-13.44 41.43,-22.75 78.65,-31.42l0 -235.87c-28.72,2.38 -135.51,55.28 -174.09,69.64 -157.05,58.45 -344.64,62.64 -483.21,-41.34 -217.5,-163.19 -116.04,-547.22 232.73,-547.22 120.89,0 137.54,-2.45 254.6,36.31 71.43,23.64 119.08,57.7 154.24,65.9l0 -243.74c-30.38,-7.07 -84.71,-39.06 -168.15,-59.86 -286.05,-71.28 -657.56,0.55 -801.52,261.69 -30.75,55.79 -68.17,140.59 -68.17,222.74z"/>
   <path class="fil1" d="M31706.63 17326.18c0,150.05 -282.95,90.37 -369.67,47.31 -49.7,-24.68 -126.84,-76.24 -157.12,-78.76l0 220.14c80.97,54.23 198.44,91.23 318.65,102.22l144.63 0c91.23,-8.95 175.85,-35.93 237.81,-85.16 85.43,-67.87 108.75,-138.52 108.75,-252.93 0,-140.97 -116.68,-223.95 -214.81,-272.67 -88.03,-43.71 -327.7,-103.87 -327.7,-167.62l0 -31.45c0,-47.11 97.18,-70.77 149.38,-70.77 95.44,0 185.99,34.44 266.14,64.08 23.21,8.58 53.84,24.23 79.81,30.27l0 -212.28c-132.58,-30.89 -158.23,-78.62 -377.4,-78.62 -309.83,0 -482.01,219.96 -377.69,432.72 120.58,245.92 519.22,210.26 519.22,353.52z"/>
   <path class="fil1" d="M24308.06 16728.64c0,18.12 5.47,23.58 23.59,23.58l369.53 0 0 857 275.19 0 0 -857 385.25 0 0 -196.56 -1053.56 0 0 172.98z"/>
   <polygon class="fil1" points="19661.35,17609.22 19936.53,17609.22 19936.53,16555.66 19661.35,16555.66 "/>
   <path class="fil1" d="M26179.32 17609.22l251.6 0c18.12,0 23.59,-5.47 23.59,-23.58l0 -1029.98 -275.19 0 0 1053.56z"/>
   <path class="fil1" d="M23466.77 10132.05c183.76,0 317.22,82.34 386.41,234.73 72.49,159.65 34.24,324.81 -69.95,443.39 -110.22,125.47 -319.89,161.76 -473.8,84.63 -260.57,-130.59 -292.85,-459.26 -111.99,-638.96 63.84,-63.42 146.04,-123.79 269.33,-123.79zm-432.42 400.98c0,470.48 649.2,641.01 862.34,186.18 142.08,-303.17 -102.74,-634.34 -382.74,-634.34 -152.35,0 -252.54,33.8 -352.07,135.41 -64.99,66.35 -127.53,184.09 -127.53,312.75z"/>
   <path class="fil1" d="M23537.53 10509.44l-149.38 0 0 -180.83 133.66 0c147.6,0 114.44,180.83 15.72,180.83zm-220.14 290.92l70.76 0 0 -228.01c179.55,0 128.54,-24.33 186.02,104.89 15.53,34.92 41.96,89.21 49.86,123.12l70.76 0c-4.83,-58.03 -90.53,-205.67 -94.35,-251.6 117.78,-9.8 153.05,-283.05 -70.76,-283.05l-212.29 0 0 534.65z"/>
  </g>
 </g>
</svg>
