<?xml version="1.0" encoding="UTF-8"?>
<!DOCTYPE svg PUBLIC "-//W3C//DTD SVG 1.1//EN" "http://www.w3.org/Graphics/SVG/1.1/DTD/svg11.dtd">
<!-- Creator: CorelDRAW 2018 (64 Bit Versión de evaluación) -->
<svg xmlns="http://www.w3.org/2000/svg" xml:space="preserve" width="380mm" height="285mm" version="1.1" style="shape-rendering:geometricPrecision; text-rendering:geometricPrecision; image-rendering:optimizeQuality; fill-rule:evenodd; clip-rule:evenodd"
viewBox="0 0 38000 28500"
 xmlns:xlink="http://www.w3.org/1999/xlink">
 <defs>
  <style type="text/css">
   <![CDATA[
    .fil0 {fill:#EF0000}
   ]]>
  </style>
 </defs>
 <g id="Capa_x0020_1">
  <metadata id="CorelCorpID_0Corel-Layer"/>
  <g id="_2671525185792">
   <path class="fil0" d="M20203.15 15517.4c0,148.83 -49.74,277.08 -109.76,379.76 -68.09,116.53 -127.13,170.36 -234.23,242.07 33.1,-142.09 120.01,-183.01 9.23,-406.14 -222.46,-447.95 -882.45,-233.54 -882.45,220.91 0,161.09 79.14,325.05 161.54,407.39 252.9,252.74 701.98,171.91 965.95,5.66 165.78,-104.41 245.42,-220.48 316.67,-397.79l1182.63 -2971.79c3.94,-9.8 6.77,-18.18 11.75,-27.95 15.98,-31.37 4.86,-13.75 20.82,-32.1l375.41 1291.63c35.66,109.43 56.92,207.94 92.63,317.53l286.09 984.05 820.3 0 449.85 -1548c38.37,28.14 23.11,28.26 38.45,80.64 11.04,37.72 19.33,59.57 32.7,99.61l383.69 1190.75c12.48,37.4 22.99,69.04 32.48,99.82 12.57,40.74 11.61,77.18 55.14,77.18l714.45 0c54.28,0 87.36,-217.06 111.14,-312.24l577.31 -2283.66c7.48,-30.41 20.6,-50.24 -26.92,-50.24l-410.14 0c-49.78,0 -44.33,57.68 -66.16,145.55l-317.53 1203.97c-34.56,-148.28 -341.15,-1020.8 -424.21,-1282.53 -11.41,-35.98 -8.8,-66.99 -52.1,-66.99l-767.38 0c-49.57,0 -60.21,99.71 -74.79,150.13 -18.24,63.09 -30.55,112.99 -48.87,176.06 -36.59,125.84 -66.96,237.3 -102.82,360.26l-196.06 677.16c-15.18,35.39 -2.45,8.89 -14.08,25.61 -26.95,-115.69 -62.7,-224.46 -95.47,-341.13l-301.44 -1048.09 -1442.13 0c-22.71,97.52 -466.59,1145.23 -489.54,1243.69 -36.87,-27.01 -49.82,-94.21 -68.16,-143.55l-364.59 -958.45c-18.58,-47.58 -34.4,-141.69 -83.24,-141.69l-1124.6 0c1.42,63.56 34.34,108.27 58.52,166.42 22.9,55.09 44.46,99.84 69.27,155.63 49.62,111.63 92.9,213.43 138.7,324.37l412.77 976.44c64.43,144.14 379.18,901.72 379.18,1010.05z"/>
   <path class="fil0" d="M6866.69 15504.16l1111.36 0 0 -1587.68 820.3 0 0 1548c0,30.47 9.21,39.68 39.69,39.68l1111.38 0c30.48,0 39.7,-9.21 39.7,-39.68l0 -3545.82 -1190.77 0 0 1481.84 -820.3 0 0 -1481.84 -1111.36 0 0 3585.5z"/>
   <path class="fil0" d="M14474.3 13096.19c0,-44.49 0.06,-88.62 0.76,-133.08 0.9,-56.17 13.09,-105.07 -40.46,-105.07l-939.38 0c-30.47,0 -39.68,9.2 -39.68,39.68l0 2566.76c0,30.47 9.21,39.68 39.68,39.68l939.38 0c64.83,0 39.7,-150.25 39.7,-277.84 0,-232.75 -11.04,-1545.64 2.59,-1611.52 26.89,-129.84 663.08,-498.04 659.11,129.51l-0.64 1641.24c-0.96,58.9 -15.62,118.61 40.16,118.61l939.37 0c30.49,0 39.69,-9.21 39.69,-39.68l0 -1799.37c0,-280.09 -110.92,-478.33 -261.37,-611.84 -158.22,-140.41 -422.8,-248.16 -638.31,-248.16 -321.49,0 -586.6,161.17 -780.6,291.08z"/>
   <path class="fil0" d="M11312.17 14247.26c0,-332.55 -34.67,-1111.38 370.46,-1111.38 306.5,0 343.99,517.21 343.99,754.15 0,341.15 72.19,1362.74 -317.53,1362.74 -357.41,0 -396.92,-611.22 -396.92,-1005.51zm-1084.91 -132.31c0,484.19 64.07,796.47 393.59,1127.92 114.78,115.43 247.47,197 409.57,265.2 428.24,180.21 1007.55,150.5 1417.03,-72.63 137.8,-75.09 187.45,-118.59 306.76,-222.46 79.62,-69.29 166.4,-198.81 222.83,-293.16 169.33,-283.13 206.72,-728 140.02,-1048.55 -21.24,-102.01 -50.41,-193.55 -82.83,-274.39 -19.88,-49.61 -31.58,-71.63 -57.53,-114.48 -65.91,-108.77 -126.61,-217.35 -232.4,-310.04 -21.92,-19.21 -24.96,-18.65 -44.76,-34.62 -20.62,-16.64 -28.59,-26.75 -49.1,-43.52 -210.65,-172.23 -478.44,-271.63 -750.07,-321.62 -147.78,-27.2 -334.6,-14.73 -488.1,13.54 -645.64,118.92 -1185.01,651.16 -1185.01,1328.81z"/>
   <path class="fil0" d="M27030.16 13135.88c208.01,0 332.35,16.16 396.17,318.28 19.5,92.25 6.71,184.06 21.63,282.68l18.82 298.72 -793.85 0 33.78 -588.07c30.54,-150.17 156.22,-311.61 323.45,-311.61zm-1375.99 1098.13c0,214.07 47.94,409.35 107.54,567.25 68.21,180.66 153.72,285.78 266.82,421.16 195.06,233.46 625.27,427.27 935.48,427.27 390.5,0 702.31,-31.96 1046.01,-237.35 175.34,-104.79 301.68,-221.11 391.92,-401.93 18.56,-37.21 127.9,-247.16 30.67,-247.16 -618.82,0 -396.12,-45.86 -515.43,185.78 -95.86,186.05 -341.76,316.99 -556.25,316.99 -201.24,0 -299.34,-0.7 -481.92,-126.7 -234.23,-161.67 -179.61,-417.92 -179.61,-733.3l1825.82 0c0,-338.06 10.69,-514.16 -132.44,-833.39 -87.3,-194.64 -164.85,-276.82 -300.85,-413.61 -379.14,-381.37 -1110.92,-498.03 -1622.05,-252.65 -82.8,39.74 -154.45,80.74 -224.26,132.97 -369.38,276.35 -591.45,711.57 -591.45,1194.67z"/>
   <path class="fil0" d="M17808.42 13135.88c216.49,0 324.71,61.54 374.45,313.53l35.69 586.15 -793.83 0c0,-71.85 22.04,-514.24 41.89,-593.17 41.21,-163.98 134.57,-306.51 341.8,-306.51zm-1389.23 1018.76c0,377.49 31.4,614.39 251.42,926.1l235 254.54c201.75,181.38 550.71,314.41 836.65,314.41 396.61,0 697.56,-44.14 1013.24,-230.44 419.13,-247.35 546.11,-656 428.89,-656 -435.17,0 -438.41,-39.7 -472.05,83.62 -69.11,253.2 -342.44,419.15 -599.63,419.15 -241.06,0 -488.65,-55.79 -604.72,-268.49 -84.44,-154.71 -56.81,-381.29 -56.81,-591.51l1825.84 0c0,-352.08 17.18,-533.04 -140.91,-864.63 -74.43,-156.1 -119.95,-193.02 -208.67,-307.32 -25.62,-33.02 -54.34,-62.44 -85.07,-86.92 -138.43,-110.36 -225.75,-193.52 -423.51,-264.5 -640.8,-230.01 -1358.6,-77.96 -1737.83,488.6 -147.82,220.86 -261.84,484.51 -261.84,783.39z"/>
   <polygon class="fil0" points="28736.91,15504.16 29768.91,15504.16 29768.91,11918.66 28736.91,11918.66 "/>
   <polygon class="fil0" points="30086.44,15504.16 31118.43,15504.16 31118.43,11918.66 30086.44,11918.66 "/>
  </g>
 </g>
</svg>
