<?xml version="1.0" encoding="UTF-8"?>
<!DOCTYPE svg PUBLIC "-//W3C//DTD SVG 1.1//EN" "http://www.w3.org/Graphics/SVG/1.1/DTD/svg11.dtd">
<!-- Creator: CorelDRAW 2018 (64 Bit Versión de evaluación) -->
<svg xmlns="http://www.w3.org/2000/svg" xml:space="preserve" width="380mm" height="285mm" version="1.1" style="shape-rendering:geometricPrecision; text-rendering:geometricPrecision; image-rendering:optimizeQuality; fill-rule:evenodd; clip-rule:evenodd"
viewBox="0 0 38000 28500"
 xmlns:xlink="http://www.w3.org/1999/xlink">
 <defs>
  <style type="text/css">
   <![CDATA[
    .fil0 {fill:#295F92}
   ]]>
  </style>
 </defs>
 <g id="Capa_x0020_1">
  <metadata id="CorelCorpID_0Corel-Layer"/>
  <g id="_2671664414944">
   <path class="fil0" d="M9168.91 14016.53l0 1002.23 -462.57 0c0,-375.93 -53.77,-1200.08 116.64,-1450.93 253.91,-373.77 1091.17,-369.96 1091.17,345.91l0 1105.02 -462.57 0 0 -1079.32c0,-218.48 -282.67,-232.35 -282.67,77.09zm1798.85 154.19c0,120.52 365.79,653.24 411.18,848.04l-462.57 0c-57.8,-109.26 -142.19,-345.89 -231.28,-411.18 -47.71,90.16 -156.29,309.89 -179.88,411.18l-462.57 0c28.1,-120.61 413.2,-735.19 426.47,-807.75 18.63,-101.85 -355.99,-644.67 -400.78,-836.92l462.57 0 188.94 380.98c86.31,-20.99 66.62,-48.85 108.73,-160.41 35.44,-93.93 67.84,-134.91 87.8,-220.57l462.57 0c-49,92.58 -411.18,753.09 -411.18,796.63zm-3032.36 -1310.6l0 2415.62c0,91.16 280.93,154.48 421.99,194.75 778.45,222.27 2191.22,510.51 2835.99,-123.34 254.84,-250.5 97.3,-272.75 288.35,-277 -133.61,-252.52 155.13,-266.49 -131.76,-1024.64 -122.48,-323.64 -180.64,-169.67 3.26,-517.24 194.77,142.7 616.76,964.67 616.76,1361.99l0 128.5c0,648.61 -693.45,976.52 -1361.99,976.52 -969.78,0 -1545.3,-181.02 -2386.09,-492.1 -78.15,-28.92 -190.86,-91 -286.51,-98.95 0,478.86 404.3,899.43 873.73,899.43l2595.5 0c131.87,0 255.37,-39.6 352.04,-84.84 330.14,-154.45 521.7,-470.9 521.7,-840.29l0 -2467.01c0,-295.4 -114.01,-494.66 -272,-653.12 -3.74,-3.75 -9.19,-9.06 -12.98,-12.73 -128.98,-124.54 -313.33,-230.61 -510.45,-234.8 -567.88,-12.02 -1153.06,1.22 -1722.98,1.22l653.41 528.7c51.35,40.12 50.9,34.98 98.77,81.11 63.04,60.73 102.36,111.7 169.12,164.96 79.23,63.2 104.48,83.6 177.56,156.5 62.81,62.67 298.16,318.01 314.53,379.34l-231.28 0c-116.77,-174.39 -579.11,-719.15 -760.1,-858.89l-351.37 -316.79c-35.19,-33.07 -152.78,-134.93 -199.14,-134.93l-925.12 0c-384.79,0 -770.94,445.05 -770.94,848.03z"/>
   <path class="fil0" d="M20244.76 15995.28l1027.92 0 0 -2441.31c454.41,0 513.97,-13.31 513.97,308.38 0,76.24 -83.11,129.44 -133.17,149.5 -77.47,31.07 -150.78,30.38 -252.31,30.38 0,950.99 -77.85,768.27 359.77,1670.38 45.66,94.11 79.78,190.59 128.49,282.67l1053.62 0c-9.1,-109.38 -349.7,-872.32 -418.47,-1046.31 -44.29,-112.04 -96.25,-245.69 -146.88,-341.39 410.53,-274.9 570.86,-853.56 377.55,-1276.96 -210.26,-460.54 -576.33,-701.77 -1122.79,-701.77l-1387.7 0 0 3366.43z"/>
   <path class="fil0" d="M14822.47 15995.28l1027.92 0 0 -2467.01c207.47,0 411.18,5.6 411.18,179.89 0,183.56 -164.27,179.88 -282.69,179.88l0 848.04c0,180.19 462.57,-29.8 462.57,231.28 0,198.17 -262.84,154.19 -462.57,154.19l0 873.73c394.83,0 729.14,47.15 1034.43,-224.78 152.65,-135.98 253.08,-300.16 295.25,-527.16 93.78,-504.75 -93.08,-827.72 -507.33,-1046.92 49.66,-67.8 69.81,-49.98 132.96,-124.02 31.15,-36.52 80.74,-104.78 106.96,-150 284.85,-491.16 119.49,-1293.55 -882.38,-1293.55l-1336.3 0 0 3366.43z"/>
   <path class="fil0" d="M23251.43 13785.25l0 2210.03 1027.92 0 0 -2235.72c0,-267.86 411.18,-318.12 411.18,77.09l0 2158.63 1027.92 0 0 -2055.84c0,-555.68 -122.43,-989.77 -549.78,-1249.09 -256.39,-155.59 -497.22,-138.61 -786.52,-138.61 -636.9,0 -1130.72,534.21 -1130.72,1233.51z"/>
   <path class="fil0" d="M29161.98 14299.22l-925.12 1696.06 1053.61 0c66.95,-139.53 269.4,-704.73 359.78,-770.94l385.46 770.94c234.44,0 900.85,-47.6 1053.63,25.69 -16.3,-195.74 -873.74,-1646.8 -873.74,-1747.46l634.22 -1216.04c70.53,-126.01 180.52,-285.69 213.81,-428.62l-1027.92 0 -334.07 719.54c-30.42,-130.57 -118.57,-257.37 -178.74,-360.92 -65.84,-113.29 -119.43,-242.2 -181.03,-358.62l-1053.63 0c25.25,108.36 138.98,277.06 205.62,411.14 74.28,149.5 146.58,266.16 222.73,419.7l445.39 839.53z"/>
   <path class="fil0" d="M17700.65 13682.46l0 1207.8c0,334.89 85.99,627 249.98,803.65 68.59,73.9 204.76,163.4 307.37,206.59 350.5,147.47 949.71,94.78 1395.71,94.78l0 -976.52 -848.04 0c-159.84,0 -91.66,-220.16 -77.09,-282.68 388.96,-90.62 873.73,69.14 873.73,-102.79l0 -693.85c-329.18,0 -848.04,71.11 -848.04,-179.88 0,-224.04 631.04,-154.19 899.44,-154.19l0 -976.52c-600.51,0 -1344.54,-103.34 -1702.92,301.53 -158.49,179.05 -250.14,424.49 -250.14,752.08z"/>
   <path class="fil0" d="M26181 13965.13c0,525.34 -64.02,1310.63 201.42,1648.86 89.83,114.47 181.59,201.17 320.53,270.5 335.15,167.24 992.63,110.79 1431.11,110.79l0 -976.52c-260.82,0 -689.37,29.22 -925.14,-25.71 -50.41,-216.4 -31.38,-159.04 51.4,-282.67 145.63,0 291.25,-0.11 436.88,0 469.85,0.35 385.47,148.03 385.47,-770.94 -227.08,0 -822.35,58.5 -822.35,-128.48 0,-110.78 -7.78,-205.59 231.29,-205.59l642.45 0 0 -976.52c-1214.94,0 -1953.06,-165.04 -1953.06,1336.28z"/>
   <path class="fil0" d="M13177.79 15995.28l1027.92 0 0 -3289.35c0,-59.21 -17.87,-77.08 -77.09,-77.08l-950.83 0 0 3366.43z"/>
  </g>
 </g>
</svg>
