<?xml version="1.0" encoding="UTF-8"?>
<!DOCTYPE svg PUBLIC "-//W3C//DTD SVG 1.1//EN" "http://www.w3.org/Graphics/SVG/1.1/DTD/svg11.dtd">
<!-- Creator: CorelDRAW 2018 (64 Bit Versión de evaluación) -->
<svg xmlns="http://www.w3.org/2000/svg" xml:space="preserve" width="200mm" height="180mm" version="1.1" style="shape-rendering:geometricPrecision; text-rendering:geometricPrecision; image-rendering:optimizeQuality; fill-rule:evenodd; clip-rule:evenodd"
viewBox="0 0 20000 18000"
 xmlns:xlink="http://www.w3.org/1999/xlink">
 <defs>
  <style type="text/css">
   <![CDATA[
    .fil0 {fill:none}
    .fil2 {fill:#2F464A;fill-rule:nonzero}
    .fil1 {fill:#CB3538;fill-rule:nonzero}
   ]]>
  </style>
 </defs>
 <g id="Capa_x0020_1">
  <metadata id="CorelCorpID_0Corel-Layer"/>
  <g id="_1498590902736">
   <rect class="fil0" x="949.98" y="4104.92" width="18125.93" height="10730.4"/>
   <g>
    <path class="fil1" d="M8290.36 12230.61l-2.51 502.99 44.05 6.31c138.34,21.56 277.99,36.54 418.34,44.89 122.94,9.51 246.51,11.51 369.79,6.02 117.79,-7.1 234.24,-25.43 347.02,-54.62 132.36,-31.27 255.12,-85.88 359.95,-160.15 94.45,-67.25 166.6,-153.6 209.65,-250.78 75.08,-162.67 73.57,-343.07 -4.18,-504.89 -40.95,-83.94 -105.4,-158.46 -188.04,-217.3 -79.85,-60.06 -173.7,-105.67 -275.71,-133.99l-454.57 -140.75c-54.32,-19.24 -98.49,-54.31 -124.17,-98.67 -20,-36.91 -18.15,-79.51 5.09,-115.09 8.11,-12.49 18.33,-23.96 30.3,-34.07 13.94,-11.77 29.53,-22.07 46.45,-30.71 6.75,-3.47 13.64,-6.7 20.64,-9.72 50.83,-20.98 105.68,-34.3 162.06,-39.36 96.22,-11.57 194.03,-10.73 289.96,2.56 113.3,10.24 225.65,26.99 336.14,50.19l23.49 4.35 0 -464.03 -43.44 -7.78c-112.65,-22.5 -226.8,-39.47 -341.89,-50.8 -149.16,-16.6 -300.22,-17.15 -449.55,-1.6 -189.17,14.46 -369.1,74.82 -517.57,173.67 -100.66,65.93 -177.24,154.02 -221.1,254.31 -66,152.77 -66.21,319.94 -0.51,472.82 33.97,75.95 88.32,144.43 158.96,200.12 61.25,49.28 130.5,91.15 205.71,124.4 99.04,44.39 204.04,78.81 312.81,102.48 35.91,8.96 71.6,18.44 107.11,28.41l53.85 16.48c5.16,1.72 10.27,3.44 15.41,5.23 53.08,15.85 101.61,40.81 142.38,73.31 28.31,22.12 50.15,49.39 63.77,79.7 8.41,27.7 8.51,56.71 0.38,84.46 -17.03,44.75 -54.42,82.15 -104.07,104.13 -54.14,23.48 -112.85,38.8 -173.38,45.22 -88.84,11.76 -178.97,15.57 -268.77,11.3 -117.68,-7.38 -234.76,-20.43 -350.65,-39.05 -60.62,-10.36 -120.91,-22.13 -180.74,-35.29l-22.46 -4.7z"/>
    <path class="fil1" d="M5818.93 12715.33l0 -583.99 -13.72 4.99c-157.77,63.73 -329.4,100.11 -504.49,106.85 -181.92,11.88 -362.71,-32.58 -507.82,-124.89 -103.65,-66.75 -180.69,-158.08 -221.09,-262 -44.57,-113.24 -49.73,-234.71 -14.86,-350.3 32.36,-118.22 111.71,-223.8 225.14,-299.6 100.56,-70.21 223.45,-114.45 353.65,-127.31 230.25,-21.27 462.81,15.16 668.11,104.64l15.08 6.48 0 -587.33 -31.98 -7.14c-205.51,-55.05 -421.29,-78.62 -636.89,-69.55 -196.39,4.18 -389.78,41.07 -568.81,108.52 -180.73,69.1 -340.05,171.82 -465.71,300.33 -392.85,414.73 -403.32,997.82 -25.55,1422.17 185.92,198.46 446.95,338.5 740.49,397.31 309.44,62.76 633.62,53.27 937.02,-27.39l51.43 -11.79z"/>
    <polygon class="fil1" points="7393.03,12753.94 7393.03,10563.47 6731.16,10563.47 6731.16,12753.94 "/>
    <polygon class="fil1" points="17189.49,12499.52 17189.49,12466.41 16909.36,12466.41 16909.36,12499.52 17025.87,12499.52 17025.87,12753.94 17072.97,12753.94 17072.97,12499.52 "/>
    <polygon class="fil1" points="17216.72,12753.94 17261.35,12753.94 17261.35,12524.33 17267.31,12524.33 17367.97,12753.94 17412.87,12753.94 17521.66,12513.25 17521.66,12753.94 17568.75,12753.94 17568.75,12466.41 17496.02,12466.41 17393.98,12703.23 17290.55,12466.41 17216.72,12466.41 "/>
    <path class="fil2" d="M2457.13 8803.11c6.17,68.96 43.31,133.36 104.02,180.41 60.72,47.02 140.46,73.15 223.32,73.15 82.81,0 162.58,-26.13 223.27,-73.15 60.72,-47.05 97.89,-111.45 104.02,-180.41l0 -607.07c-3.31,-70.58 -39.25,-137.33 -100.3,-186.29 -61,-48.93 -142.36,-76.28 -226.99,-76.28 -84.66,0 -166.02,27.35 -227.05,76.28 -61.02,48.96 -96.96,115.71 -100.29,186.29l0 607.07z"/>
    <path class="fil2" d="M4269.18 8803.11c6.18,68.96 43.34,133.36 104.01,180.41 60.73,47.02 140.47,73.15 223.33,73.15 82.81,0 162.58,-26.13 223.28,-73.15 60.72,-47.05 97.89,-111.45 104.03,-180.41l0 -1360.97c-3.33,-70.55 -39.26,-137.32 -100.29,-186.28 -61.02,-48.94 -142.38,-76.27 -227.02,-76.27 -84.67,0 -166.02,27.33 -227.05,76.27 -61,48.96 -96.96,115.73 -100.29,186.28l0 1360.97z"/>
    <path class="fil2" d="M6071.58 9351.27c6.15,68.92 43.3,133.35 104.02,180.35 60.69,47.04 140.44,73.15 223.3,73.15 82.81,0 162.58,-26.11 223.3,-73.15 60.7,-47 97.86,-111.43 104.01,-180.35l0 -2943.92c-3.31,-70.59 -39.27,-137.34 -100.29,-186.3 -61.03,-48.94 -142.39,-76.3 -227.02,-76.3 -84.66,0 -166.02,27.36 -227.03,76.3 -61.02,48.96 -96.98,115.71 -100.29,186.3l0 2943.92z"/>
    <path class="fil2" d="M7883.39 8803.11c6.14,68.96 43.29,133.36 104.01,180.41 60.7,47.02 140.47,73.15 223.28,73.15 82.86,0 162.6,-26.13 223.32,-73.15 60.7,-47.05 97.87,-111.45 104.02,-180.41l0 -1360.97c-3.33,-70.55 -39.3,-137.32 -100.3,-186.28 -61.05,-48.94 -142.38,-76.27 -227.04,-76.27 -84.65,0 -166,27.33 -227,76.27 -61.05,48.96 -96.96,115.73 -100.29,186.28l0 1360.97z"/>
    <path class="fil2" d="M9687.13 8803.11c6.18,68.96 43.34,133.36 104.04,180.41 60.73,47.02 140.46,73.15 223.31,73.15 82.81,0 162.59,-26.13 223.28,-73.15 60.72,-47.05 97.87,-111.45 104.02,-180.41l0 -607.07c-3.33,-70.58 -39.27,-137.33 -100.29,-186.29 -61.01,-48.93 -142.36,-76.28 -227.01,-76.28 -84.67,0 -166,27.35 -227.05,76.28 -61,48.96 -96.96,115.71 -100.3,186.29l0 607.07z"/>
    <path class="fil2" d="M11497.54 8803.11c6.14,68.96 43.31,133.36 104,180.41 60.7,47.02 140.5,73.15 223.34,73.15 82.8,0 162.57,-26.13 223.27,-73.15 60.73,-47.05 97.87,-111.45 104.04,-180.41l0 -1360.97c-3.33,-70.55 -39.27,-137.32 -100.29,-186.28 -61.03,-48.94 -142.39,-76.27 -227.02,-76.27 -84.66,0 -166.03,27.33 -227.05,76.27 -61.03,48.96 -96.96,115.73 -100.29,186.28l0 1360.97z"/>
    <path class="fil2" d="M13300.57 9351.27c6.14,68.92 43.28,133.35 104.01,180.35 60.69,47.04 140.44,73.15 223.27,73.15 82.83,0 162.6,-26.11 223.34,-73.15 60.69,-47 97.85,-111.43 104,-180.35l0 -2943.92c-3.33,-70.59 -39.29,-137.34 -100.29,-186.3 -61.03,-48.94 -142.38,-76.3 -227.05,-76.3 -84.63,0 -166,27.36 -227.05,76.3 -60.99,48.96 -96.93,115.71 -100.23,186.3l0 2943.92z"/>
    <path class="fil2" d="M15109.5 8803.11c6.14,68.96 43.29,133.36 104.01,180.41 60.7,47.02 140.47,73.15 223.31,73.15 82.83,0 162.57,-26.13 223.3,-73.15 60.7,-47.05 97.86,-111.45 104.01,-180.41l0 -1360.97c-3.33,-70.55 -39.27,-137.32 -100.29,-186.28 -61.03,-48.94 -142.39,-76.27 -227.02,-76.27 -84.67,0 -166.03,27.33 -227.03,76.27 -61.02,48.96 -96.96,115.73 -100.29,186.28l0 1360.97z"/>
    <path class="fil2" d="M16914.12 8803.11c6.15,68.96 43.28,133.36 104.01,180.41 60.7,47.02 140.44,73.15 223.27,73.15 82.83,0 162.61,-26.13 223.34,-73.15 60.69,-47.05 97.86,-111.45 104.01,-180.41l0 -607.07c-3.34,-70.58 -39.3,-137.33 -100.3,-186.29 -61.03,-48.93 -142.38,-76.28 -227.05,-76.28 -84.63,0 -165.99,27.35 -226.99,76.28 -61.05,48.96 -96.98,115.71 -100.29,186.29l0 607.07z"/>
    <path class="fil1" d="M12734.92 12715.33l0 -583.99 -13.73 4.99c-157.76,63.73 -329.38,100.11 -504.48,106.85 -181.89,11.88 -362.68,-32.58 -507.77,-124.86 -103.65,-66.78 -180.75,-158.11 -221.11,-262.03 -44.57,-113.24 -49.74,-234.71 -14.89,-350.3 32.35,-118.22 111.72,-223.8 225.16,-299.6 100.54,-70.21 223.47,-114.45 353.66,-127.31 230.24,-21.27 462.81,15.16 668.15,104.64l15.01 6.48 0 -587.33 -31.95 -7.14c-205.54,-55.05 -421.3,-78.62 -636.89,-69.55 -196.41,4.18 -389.82,41.07 -568.83,108.5 -180.72,69.12 -340.01,171.87 -465.69,300.35 -392.83,414.73 -403.3,997.82 -25.53,1422.17 185.91,198.46 446.93,338.5 740.49,397.31 309.42,62.76 633.59,53.27 936.99,-27.39l51.41 -11.79z"/>
    <path class="fil1" d="M13432.34 11659.64c6.42,346.25 199.09,671.73 524.71,886.42 325.63,214.7 749.65,295.86 1154.85,221.01 550.21,-86.44 978.97,-447.82 1077.11,-907.74 98.13,-459.91 -154.82,-922.54 -635.45,-1162.15 -424.42,-219.14 -957.02,-231.61 -1395.48,-32.66 -438.49,198.95 -715.49,578.75 -725.74,995.12zm960.91 -449.32l0 0c143.03,-95.32 325.65,-139.31 507.57,-122.33 181.92,17.02 348.31,93.64 462.56,213.02 114.24,119.34 166.95,271.7 146.57,423.5 -20.39,151.81 -112.22,290.66 -255.28,385.98 -143.04,95.32 -325.62,139.31 -507.55,122.3 -181.93,-16.99 -348.33,-93.61 -462.56,-212.99 -114.23,-119.36 -166.95,-271.71 -146.56,-423.51 20.35,-151.8 112.18,-290.66 255.25,-385.97z"/>
   </g>
  </g>
 </g>
</svg>
