<?xml version="1.0" encoding="UTF-8"?>
<!DOCTYPE svg PUBLIC "-//W3C//DTD SVG 1.1//EN" "http://www.w3.org/Graphics/SVG/1.1/DTD/svg11.dtd">
<!-- Creator: CorelDRAW 2018 (64 Bit Versión de evaluación) -->
<svg xmlns="http://www.w3.org/2000/svg" xml:space="preserve" width="180mm" height="160mm" version="1.1" style="shape-rendering:geometricPrecision; text-rendering:geometricPrecision; image-rendering:optimizeQuality; fill-rule:evenodd; clip-rule:evenodd"
viewBox="0 0 18000 16000"
 xmlns:xlink="http://www.w3.org/1999/xlink">
 <defs>
  <style type="text/css">
   <![CDATA[
    .str0 {stroke:black;stroke-width:7.62;stroke-miterlimit:22.9256}
    .fil3 {fill:black}
    .fil0 {fill:#ED3237}
    .fil2 {fill:#FEFEFE}
    .fil1 {fill:white}
   ]]>
  </style>
 </defs>
 <g id="Capa_x0020_1">
  <metadata id="CorelCorpID_0Corel-Layer"/>
  <g id="_2671530020272">
   <path class="fil0" d="M12053.71 9262.28l211.23 0.77c-34.7,-244.31 -27.55,-361.68 -24.45,-609.31l3.34 -127.41c37.92,55.55 230.64,636.45 256.17,735.99l253.35 0.4c83.91,-123.97 183.26,-597.75 276.92,-738.91 2.34,295.63 5.42,428.96 -14.68,737.87l409.98 1.41c-40.25,-332.79 -31.93,-639.02 -2.6,-976.25l-484.31 -1.7c-47.32,106.04 -151.96,474.54 -200.78,534.98 -77.96,-130.3 -143.2,-535.14 -216.47,-535.13l-466.74 0.69c35.04,199.03 47.63,790.31 -0.96,976.6z"/>
   <path class="fil0" d="M14228.42 8296.42c-159,40.19 -172.45,146.86 -172.72,326.19 -0.88,562.74 -43.67,641.46 383.13,640.75 484.07,-0.82 666.45,81.47 666.32,-346.68 -0.16,-559 43.91,-632.8 -387.97,-631.39 -128.78,0.41 -381.26,-16.02 -488.76,11.13z"/>
   <path class="fil1" d="M5112.2 9738.35c594.64,-15.15 1430.6,-345.67 1301.64,-990.97 -57.71,-288.77 -301,-554.78 -463.51,-697.29 -141.2,-123.83 -499.3,-386.29 -709.26,-462.97 34.98,70.74 153.07,223 210.05,297.24l649.83 893.07c-57.61,95.44 -973.04,852.41 -1049.97,961.37l61.22 -0.45z"/>
   <path class="fil0" d="M7931.43 9071.77l27.41 189.18c172.64,7.16 352.91,2.21 526.65,2.39 191.79,0.2 345.86,22.39 371.05,-177.14 18.3,-144.85 32.05,-395.77 -65.97,-459.53 -171.65,-111.66 -502.14,70.74 -507.62,-113.55 -2.2,-73.87 6.04,-65.22 217.99,-64.67 138.86,0.35 211.32,-2.67 344.77,23.56 -5.1,-61.73 -10.72,-133.74 -33.02,-177.5 -73.15,-23.09 -586.83,-16.9 -697.82,-8.61 -109.77,8.22 -167.44,61.88 -184.77,168.45 -10.38,63.83 -9.82,303.62 2.13,366.44 48.74,256.19 515.02,39.33 566.1,161.97 65.38,156.99 -134.02,118.38 -229.32,118.23 -149.47,-0.23 -204.63,4.63 -337.58,-29.22z"/>
   <path class="fil0" d="M15758.92 8545.49c0,211.17 17.91,510.74 -27.07,717.54l213.83 1.35c-39.39,-306.66 -25.04,-472.9 -22.75,-792.75l398.55 787.51 482.38 1.92c4.62,-211.37 -24.39,-819.82 28.07,-973.73l-214.38 -2.74c42.95,314.33 23.5,431.7 22.88,764.25 -64.85,-49.79 -366.14,-702.43 -393.69,-762.79l-518.16 1.85c38.59,81.12 30.34,156.17 30.34,257.59z"/>
   <path class="fil0" d="M10587.63 9261.57l852.96 1.52 30.73 -180.65c-166.2,19.54 -311.76,22.65 -482.72,17.66l-4.23 -259.87c161.65,-2.85 274.99,-0.9 428.59,18.34l0.19 -203.1c-149.66,20.57 -269.54,23.12 -426.51,18.07l-1.37 -223.26c171.67,-4.82 302.88,-1.5 466.45,17l-27.78 -181.81 -835.6 -0.38c35.18,233.62 52.07,750.87 -0.71,976.48z"/>
   <path class="fil0" d="M9519.93 9261.1l418.35 1.82c-47.18,-208.86 -37.55,-762.6 -0.58,-977.38l-416.18 -0.22c26.83,263.54 47.63,723.7 -1.59,975.78z"/>
   <path class="fil1" d="M14438.15 9087.44c353.16,36.07 295.79,72.67 295.13,-418.25 -0.25,-110.84 34.21,-208.65 -76.45,-220.8 -78.26,-8.57 -218.47,-25.89 -229.7,65.94 -9.83,80.34 -4.22,514.76 11.02,573.11z"/>
   <g>
    <polygon class="fil2" points="3633.99,5417.08 1841.29,7876.76 3643.66,10979.05 "/>
    <path class="fil3 str0" d="M4911.95 7167.97c458.41,184.02 860.41,411.55 1170.32,659.15 507.67,405.62 774.61,864.09 669.82,1275.58 -105.48,413.65 -564.78,694.09 -1215.05,809.88 -236.06,42.03 -496.72,62.32 -773.8,59.74l288.77 -259.66c75.45,-7.96 148.65,-18.24 219.24,-30.81 554.58,-98.75 946.29,-337.91 1036.24,-690.69 89.37,-350.94 -138.29,-741.95 -571.25,-1087.88 -156.24,-124.83 -339.96,-243.69 -544.83,-352.43l-279.46 -382.88zm-2047.04 2470.69c-669.12,-226.02 -1225.86,-538.76 -1608.58,-878.3 -441.52,-391.7 -653.1,-821.96 -538.64,-1202.83 113.07,-377.69 530.36,-641.09 1116.37,-762.71 254.76,-52.87 541.97,-79.9 852.51,-77.82l-183.19 251.33c-137.83,10.92 -268.38,29.27 -390.2,54.57 -499.77,103.72 -855.66,328.36 -952.09,650.48 -97.62,324.82 82.83,691.75 459.39,1025.81 266.58,236.5 632.18,457.75 1068.1,635.93l99.75 171.73 76.58 131.81z"/>
    <polygon class="fil0" points="3633.99,5417.08 6088.82,8780.36 3643.66,10979.05 "/>
    <path class="fil3" d="M2682.44 9324.55c576.42,231.07 1525.33,415.78 2369.57,388.11l-294.94 265.21c-665.97,-31.25 -1410.31,-162.94 -1890.52,-333.64l-184.11 -319.68z"/>
   </g>
  </g>
 </g>
</svg>
