<?xml version="1.0" encoding="UTF-8"?>
<!DOCTYPE svg PUBLIC "-//W3C//DTD SVG 1.1//EN" "http://www.w3.org/Graphics/SVG/1.1/DTD/svg11.dtd">
<!-- Creator: CorelDRAW 2018 (64 Bit Versión de evaluación) -->
<svg xmlns="http://www.w3.org/2000/svg" xml:space="preserve" width="150mm" height="140mm" version="1.1" style="shape-rendering:geometricPrecision; text-rendering:geometricPrecision; image-rendering:optimizeQuality; fill-rule:evenodd; clip-rule:evenodd"
viewBox="0 0 15000 14000"
 xmlns:xlink="http://www.w3.org/1999/xlink">
 <defs>
  <style type="text/css">
   <![CDATA[
    .fil1 {fill:black}
    .fil0 {fill:#005DAA}
   ]]>
  </style>
 </defs>
 <g id="Capa_x0020_1">
  <metadata id="CorelCorpID_0Corel-Layer"/>
  <g id="_2671523042848">
   <path class="fil0" d="M1490.72 7133.81c-122.81,0 -183.74,-2.53 -298.3,-60.92 -56.82,-28.96 -83.06,-57.05 -126.18,-92.57 -15.3,-12.62 -23.91,-21.75 -37.02,-36.2l-31.12 -38.02c-78.41,-97.17 -135.16,-250.29 -135.16,-384.91 0,-185.92 17.25,-268.1 109.61,-412.01 29.12,-45.37 99.14,-115.55 141.52,-147.33 169.4,-127.05 397.64,-148.47 583.14,-50.33 69.43,36.74 117.76,80.51 169.22,135.68 44.28,47.47 92.91,130.38 118.11,189.92 63.23,149.47 69.91,369.33 0.1,519.41 -32.2,69.26 -50.67,103.21 -97.3,158.72 -7.89,9.39 -8.41,12.62 -16.75,22.18 -30.7,35.22 -31.96,30.88 -52.36,51.01 -80.07,78.95 -214.05,145.37 -327.51,145.37zm-954.23 -701.41l0 7.66 0 7.51c0.04,154.18 1.35,226.06 49.69,380.5 23.57,75.26 65.76,165.13 108.71,226.51l70.68 93.73c73.31,77.36 113.48,120.1 204.36,178.34 104.9,67.24 274.93,126.8 416.17,126.8 166.56,0 255.68,-4.66 408.75,-85.83 41.34,-21.92 110.97,-68.24 144.63,-99.63 10.3,-9.6 17.8,-14.85 27.36,-24.25 18.05,-17.7 31.39,-38.11 51.22,-52.21l0 221.96 309.7 0c9.66,0 12.56,-3.09 12.56,-13.32l0 -1815.68c0,-10.23 -2.9,-13.32 -12.56,-13.32l-297.13 0c-20.7,0 -12.57,59.62 -12.57,102.11 0,38.47 0,76.95 0,115.42 -11.45,-8.14 -15.77,-15.38 -26.1,-25.58l-85.1 -73.99c-184.04,-147.14 -459.14,-196.92 -689.05,-141.08 -117.14,28.42 -205.22,65.11 -299.83,139.21 -12.06,9.45 -19.12,14.09 -31.25,24.57 -65.62,56.58 -137.2,131.15 -184.54,203.8 -90.91,139.54 -165.7,330.82 -165.7,516.77z"/>
   <path class="fil0" d="M5579.69 6450.16c0,179.86 16.14,292.33 78.3,445.23 32.12,79.01 74.25,149.74 123.91,214.84l75.17 88.95c12.6,11.28 17.06,13.59 29.2,26.74 119.86,129.79 356.74,236.4 538.85,236.4 168.4,0 296.66,-22.95 431.14,-93.15 51.5,-26.89 98.49,-57.32 142.83,-92.65 11.15,-8.89 19.6,-15.05 31.15,-24.67 7.56,-6.31 8.68,-8.4 15.58,-14.55 76.84,-68.54 177.05,-190.35 219.2,-286.91 81.29,-186.19 101.77,-333.61 101.77,-562.39 0,-10.23 -2.92,-13.32 -12.56,-13.32l-761.71 0 0 288.57 426.9 0c-65.12,296.45 -304.17,497.98 -614.65,465.5 -86.35,-9.02 -175.75,-49.28 -240.83,-95.25 -15.01,-10.6 -25.21,-18.01 -38.86,-29.8 -26.7,-23.07 -45.75,-42.39 -69.4,-68.46l-28.84 -36c-69.97,-92.8 -120.7,-243.69 -120.7,-369.17l0 -79.91c0,-166.41 78.66,-330.32 157.99,-413.97 53.48,-56.41 82.37,-84.28 155.9,-123.19 202.45,-107.13 449.07,-78.82 618.44,80.95 14.97,14.11 17.73,11.77 30.16,30.15 13.38,19.79 11.26,18.19 41.76,17.88l351.77 -0.24c-10.57,-48.09 -113.27,-193.09 -155.82,-238.7 -32.74,-35.1 -63.22,-68.72 -99.45,-98.72 -206.17,-170.66 -499.35,-229.49 -751.76,-162.5 -376.3,99.86 -675.44,500.12 -675.44,908.34z"/>
   <path class="fil0" d="M10514.08 6512.31c0,-230.36 65.23,-412.72 234.33,-550.53 155.85,-127.02 397.68,-151.99 570.68,-63.64 191.89,97.99 329.19,308.91 329.19,560.89l0 53.28c0,181.82 -75.77,345.06 -162.17,436.17 -53.73,56.65 -90.65,93.78 -165.65,130.6 -33.31,16.35 -66.16,29.59 -106.33,38.17l-130.62 16.35 -127.47 -15.76c-42,-10.32 -75.76,-20.55 -109.98,-38.73 -204.87,-108.79 -331.98,-317.63 -331.98,-566.8zm554.57 -998.85l5.95 0c16.45,0.94 26.88,4.72 50.52,4.44 92.23,-1.11 231.64,39.02 311.13,78.42 49.37,24.48 98.6,49.91 142.06,84.58 22.98,18.34 42.57,31.67 64.55,51.39l56.69 55.3c231.64,246.1 329.8,583.97 247.57,930.72 -15.45,65.19 -34.27,116.96 -55.49,171.98 -20.58,53.35 -49.5,105.96 -78.44,152.09l-71.82 96.95c-87.12,98.74 -154.22,164.54 -277.24,229.77 -136.64,72.44 -241.65,93.22 -410.16,93.22 -184.29,0 -397.21,-84.88 -524.09,-203.21l-83.8 -84.23c-67.92,-71.92 -94.2,-120.5 -140.46,-201.73 -15.33,-26.93 -22.59,-47.85 -35.69,-77.57 -62.16,-141.08 -82.3,-263.48 -82.3,-436.55 0,-203.09 66.12,-379.08 164.91,-530.93 48,-73.77 146.5,-182.61 220.94,-236.22 59.6,-42.93 72.36,-52.69 138.7,-88.16 50.25,-26.87 104.74,-47.47 162.66,-62.75 32.81,-8.65 58.27,-14.52 95.07,-19.01l98.74 -8.5z"/>
   <path class="fil0" d="M12715.52 5775.39l0.07 -159.91c0.26,-20.51 5.61,-44.31 -12.62,-44.31l-288.79 0 0 1842.32 313.89 0 0 -856.79c0,-173.89 22.1,-361.49 76.67,-478.03 61.7,-131.77 178.53,-214.5 325.11,-214.5 114.07,0 207.58,1.21 300.04,81.27 143.8,124.55 156.16,336.59 156.16,553.55l0 914.5 313.89 0 0 -1087.63c0,-205.7 -56.5,-409.87 -158.42,-542.26 -61.71,-80.16 -139.02,-143.18 -230.15,-182.05 -151.08,-64.45 -390.25,-88.31 -563.9,-10.75 -55.35,24.72 -81.91,43.35 -126.76,78.64 -15,11.8 -21.19,19.81 -36.46,32.35 -14.01,11.49 -21.99,21.88 -34.22,34.74 -6.28,6.6 -10.84,10.74 -16.51,18 -7.62,9.79 -8.56,14.14 -18,20.86z"/>
   <path class="fil0" d="M3436.86 7413.49l221.82 0c15.1,0 14.73,-17.61 29.33,-48.78l99.82 -231.52c8.31,-21.74 17.5,-37.76 25.12,-57.71l236.33 -548.39c5.15,-11.74 8.71,-17.42 13.59,-29.98l72.98 -171.19c7.96,-19 16.55,-37.37 25.11,-57.71l100.43 -230.86c8.73,-18.61 16.38,-38.91 25.13,-57.7 24.59,-52.79 169.6,-383.91 171.53,-408.48l-326.44 0c-44.13,88.45 -97.83,240.16 -142.3,337.39l-422.71 1016.61c-12.85,-9.99 -12.82,-19.56 -19.74,-36.78l-366.46 -894.25c-12.19,-30.15 -21.84,-57.76 -35.11,-87.06 -12.45,-27.49 -24.06,-57.05 -34.28,-83.51l-97.28 -238.64c-3.56,-6.97 -4.69,-13.76 -16.32,-13.76l-313.9 0c-20.94,0 -6.65,17.91 5.35,47.61l95.18 231.99c7.92,18.67 17.19,39.69 24.43,58.43 57.59,149.04 132.47,313.33 191.35,462.93 60.61,153.95 132.27,312.44 190.69,463.63 14.73,38.14 32.28,77.04 48.48,117.26l179.56 435.5c5.5,13.85 4.95,24.97 18.31,24.97z"/>
   <path class="fil0" d="M8731.17 5584.49l0 1829 1243.02 0 0 -319.63c0,-10.22 -2.91,-13.31 -12.56,-13.31l-916.55 0 0 -1496.06c0,-10.23 -2.93,-13.32 -12.57,-13.32l-288.78 0c-9.64,0 -12.56,3.09 -12.56,13.32z"/>
   <path class="fil0" d="M4813.8 5584.49l0 1815.68c0,10.23 2.92,13.32 12.55,13.32l301.34 0 0 -1829c0,-10.23 -2.91,-13.32 -12.55,-13.32l-288.79 0c-9.63,0 -12.55,3.09 -12.55,13.32z"/>
   <polygon class="fil0" points="7852.27,7413.49 8161.99,7413.49 8161.99,5571.17 7852.27,5571.17 "/>
   <path class="fil1" d="M6119.59 7977.29l0 532.72c0,20.09 21.47,13.31 66.96,13.31l5.78 -472.25c2.3,5.86 2.31,6.41 4.19,13.31l97.23 336.36c6.77,21.41 11.7,41.86 17.82,61.01 6.14,19.24 12.98,41.98 17.28,61.57l66.97 0 36.13 -121.48c13.23,-42.96 22.86,-79.88 35.51,-122.16 11.58,-38.69 25.16,-82.42 36.68,-120.9 6.47,-21.67 11.11,-39.98 17.77,-61.07l20.39 -62.71 0 488.32 66.96 0 0 -559.36 -113 0 -129.75 461.7c-0.57,-0.89 -1.32,-3.46 -1.52,-2.82l-116.17 -400.62c-5.03,-17.23 -12.36,-40.66 -16.23,-58.26 -38.72,0 -113,-8.93 -113,13.33z"/>
   <path class="fil1" d="M12188.17 8168.18l0 -35.52 -66.96 0 0 377.35c0,18.93 16.06,13.31 54.41,13.31 20.98,0 12.55,-78.79 12.55,-119.86 0,-45.91 0.18,-91.82 -0.09,-137.73 -0.77,-122.36 117.28,-104.86 117.28,-26.53l0 284.12 62.78 0 0 -244.16c0,-142.18 94.3,-95.97 101.44,-89.85 10.04,8.62 19.93,35.28 19.93,54.33l0 279.68 62.79 0 0 -301.87c0,-130.46 -169.08,-113.2 -184.16,-53.27l-8.37 0c-10.91,-43.32 -96.15,-58.54 -141.63,-30.37 -19.53,12.1 -16.67,20.04 -29.97,30.37z"/>
   <path class="fil1" d="M8986.47 8381.27c0,60.9 -35.81,88.78 -92.06,88.78 -66.36,0 -87.91,-44.58 -87.91,-115.42l-66.95 0c-13.25,60.27 14.27,142.75 79.37,168.84 81.26,32.6 238.7,20.25 238.7,-151.09 0,-165.11 -234.37,-158.48 -234.37,-270.79 0,-27.25 2.29,-47.2 21.93,-65.52 33.41,-31.19 125.1,-30.33 132.3,48.43 3.69,40.51 -16.3,34.84 75.96,34.84 0,-106.82 -39.48,-168.69 -146.48,-168.69 -142.05,0 -189.48,139.18 -134.86,231.84 49.26,83.61 214.37,102.69 214.37,198.78z"/>
   <path class="fil1" d="M11401.35 8145.98c0,198.21 -31.96,390.66 171.6,390.66 96.51,0 146.48,-66.23 146.48,-168.69 0,-19.73 -19.54,-13.32 -62.78,-13.32 -27.64,0 3.72,62 -43.36,100.51 -26.53,21.69 -106.29,34.09 -128.86,-37.69 -17.48,-55.56 -17.87,-304.35 0.55,-351.45 16.1,-41.18 48,-48.76 87.97,-48.76 55.42,0 66.97,43.81 66.97,102.1l71.13 0c0,-50.65 1.86,-100.28 -38.78,-136.43 -53.88,-47.92 -270.92,-78.36 -270.92,163.07z"/>
   <path class="fil1" d="M12690.4 8350.19c0,-61.32 -6.38,-164.18 59.94,-171.37 89.27,-9.68 78.18,112.1 78.18,175.81 0,106.13 -25.77,119.86 -79.52,119.86 -47.85,0 -58.6,-70.87 -58.6,-124.3zm0 319.62l-62.77 0 0 -537.15 62.77 0 0 39.96c12.24,-9.51 13.43,-19.94 31.57,-33.09 42.84,-31.02 173.51,-40.96 173.51,166.27 0,91.68 3.12,226.4 -117.18,226.4 -60.57,0 -55.63,-21.47 -87.9,-44.39l0 182z"/>
   <path class="fil1" d="M13083.81 8474.49c-60.32,0 -66.96,-19.32 -66.96,-84.35 0,-63.62 86.64,-57.71 125.56,-57.71 0,39.77 1.17,142.06 -58.6,142.06zm-113 -230.85l58.6 0c0,-58.49 15.04,-66.58 66.96,-66.58 52.99,0 46.04,65.28 46.04,102.1 -83.5,0 -192.52,8.92 -192.52,119.86 0,156.63 120.82,144.75 160.96,117.45 20.71,-14.09 21.31,-24.36 35.74,-41.98l0 48.83 66.96 0c0,-25.31 -4.29,-30.78 -4.32,-57.55 -0.09,-67.74 11.64,-257.49 -21.87,-300.88 -44.52,-57.65 -192.02,-66.1 -221.47,33.62 -1.94,6.54 -3.85,15.57 -4.76,27.04 -0.92,11.91 -4.82,18.09 9.68,18.09z"/>
   <path class="fil1" d="M8383.8 8474.49c-52.51,0 -66.97,-18.32 -66.97,-75.47 0,-75.2 81.87,-66.59 129.75,-66.59 0,45.37 -5.58,142.06 -62.78,142.06zm-121.37 -248.6l0 17.75 66.96 0c0,-67.63 27.38,-66.58 71.16,-66.58 41.78,0 46.03,56.15 46.03,102.1 -48.91,0 -103.77,-2.26 -144.88,23.9 -51.49,32.79 -47.64,71.38 -47.64,122.6 0,116.32 133.21,140.36 184.01,62l8.51 -13.17 0 48.83 66.97 0 -4.19 -124.3c0,-72.52 9.83,-190.68 -21.28,-234.91 -44.16,-62.79 -225.65,-63.43 -225.65,61.78z"/>
   <path class="fil1" d="M5751.29 8474.49c-49.63,0 -66.97,-14.04 -66.97,-79.91 0,-68.5 90.51,-62.15 129.75,-62.15 0,56.05 -7.25,142.06 -62.78,142.06zm-121.37 -230.85l66.96 0c0,-64.44 27.7,-66.58 71.15,-66.58 47.09,0 46.04,66.33 46.04,102.1 -51.39,0 -100.2,-2.38 -144.84,23.92 -79.14,46.64 -61.58,229.12 44.39,229.12 24.1,0 48.8,-2.27 67.78,-16.88 13.84,-10.65 21.9,-28.01 32.67,-36.39l0 44.39 66.96 0c0,-42.87 -4.18,-77.01 -4.18,-124.3 0,-192.08 24.28,-275.24 -138.11,-275.24 -30.26,0 -64.65,14.81 -79.87,30.72 -19.69,20.57 -28.95,47.99 -28.95,89.14z"/>
   <path class="fil1" d="M7843.9 8310.23c0,-188.26 115.83,-128.66 130.6,-107.45 29.76,42.73 38.84,271.71 -38.53,271.71 -42.09,0 -67.92,2.78 -81.99,-55.08 -6.39,-26.34 -10.08,-78.16 -10.08,-109.18zm66.97 221.97c147.06,0 150.67,-98.32 150.67,-230.84 0,-123.71 -42.47,-177.58 -150.67,-177.58 -82.28,0 -115.17,49.79 -127.49,122.26 -6.87,40.42 -7.53,115.01 0.01,159.47 4.58,27.05 9.44,47.21 19.87,67.69 19.07,37.39 54.74,59 107.61,59z"/>
   <path class="fil1" d="M7287.27 8328c0,-64.67 -1.97,-149.89 75.33,-149.89 75.46,0 75.34,81.08 75.34,145.44 0,143.55 -27.69,150.94 -92.08,150.94 -50.9,0 -58.59,-89.03 -58.59,-146.49zm-66.96 0c0,141.16 33.53,204.2 150.67,204.2 23.65,0 49.27,-5.67 65.73,-14.62 62.6,-34.01 68.19,-123.94 68.19,-198.47 0,-137.42 -36.57,-195.33 -150.67,-195.33 -110.26,0 -133.92,87.62 -133.92,204.22z"/>
   <path class="fil1" d="M6835.26 8474.49c-31.6,0 -57.26,3.28 -73.6,-46.22 -14.92,-45.24 -17.76,-181.61 8.22,-222.9 20.24,-32.15 93.85,-46.22 118.58,12.93 15.31,36.61 37.95,256.19 -53.2,256.19zm-150.66 -168.69c0,132.3 6.4,226.4 150.66,226.4 85.07,0 112.62,-49.46 126.06,-119.34 12.58,-65.41 10.43,-175.56 -16.47,-227.75 -43.68,-84.73 -191.26,-78.65 -231.9,-9.05 -19.45,33.29 -28.35,77.47 -28.35,129.74z"/>
   <path class="fil1" d="M9275.25 8474.49c-53.38,0 -87.89,-7.29 -87.89,-119.86 0,-57.48 -9.35,-159.4 50.57,-172.9 49.96,-11.25 80.33,8.26 92,52.76 11.81,45.11 4.97,92.73 3.96,142.4 -0.89,44.64 -17.21,97.6 -58.64,97.6zm-154.84 -173.13c0,65.82 -3.41,126.71 29.97,181.29 39.08,63.9 185.72,74.03 228.29,-9.45 17.5,-34.33 27.19,-106.13 26.13,-144.95 -0.43,-15.72 -3.59,-15.13 -4.07,-35.68 -1.99,-84.19 -26.68,-168.79 -125.48,-168.79 -49.51,0 -96.86,3.45 -127.45,51.26 -18.1,28.29 -27.39,80.31 -27.39,126.32z"/>
   <path class="fil1" d="M11928.69 8474.49c-31.61,0 -57.26,3.28 -73.6,-46.22 -14.94,-45.24 -17.77,-181.61 8.22,-222.9 17.2,-27.31 132.34,-78.91 132.34,100.43 0,61.2 0.64,168.69 -66.96,168.69zm-150.67 -168.69c0,132.3 6.4,226.4 150.67,226.4 85.07,0 112.6,-49.46 126.05,-119.34 12.59,-65.41 10.44,-175.56 -16.45,-227.75 -43.7,-84.73 -191.28,-78.65 -231.92,-9.05 -19.44,33.29 -28.35,77.47 -28.35,129.74z"/>
   <path class="fil1" d="M10338.3 8359.07c0,-80 -13.19,-172 68.6,-180.38 24.54,-2.5 46.37,6.8 58.74,23.11 26.41,34.84 19.14,115.64 19.14,166.15 0,102.82 -39.43,106.54 -87.89,106.54 -45.62,0 -58.59,-64.88 -58.59,-115.42zm-66.96 -62.15c0,66.48 -4.18,133.88 30.98,189.09 38.79,60.93 171.19,63.12 216.7,2.6 45.78,-60.89 44.91,-263.75 2.33,-319.27 -48.53,-63.27 -176.85,-61.86 -220.87,3.11 -18.74,27.66 -29.14,76.05 -29.14,124.47z"/>
   <path class="fil1" d="M13728.34 8669.81l167.41 -537.15 -71.15 0c-1.65,21.06 -33.77,128.24 -41.36,155.89 -7.17,26.19 -14.1,50.62 -20.93,75.48 -7.54,27.52 -15.32,51.63 -21.41,79.38 -0.58,-0.87 -1.35,-3.41 -1.56,-2.78l-5.14 -12.31c-2.24,-7.13 -4.04,-15.95 -5.38,-20.93l-75.81 -274.73 -71.15 0c3.45,44.02 125.41,367.46 119.27,401.34 -2.43,13.38 -6.93,24.33 -9.94,34.28l-29.81 101.53 66.96 0z"/>
   <path class="fil1" d="M10681.49 8177.06l0 -44.4 -66.96 0 0 377.35c0,18.93 16.07,13.31 54.4,13.31 19.37,0 12.64,-35.43 12.57,-57.7l0.43 -212.63c9.84,-98.69 133.49,-100.53 133.49,-9.35l0 279.68 62.78 0 0 -288.55c0,-134.59 -124,-120.08 -161.71,-96.06 -16,10.19 -16.66,14.48 -27.36,28.7l-7.64 9.65z"/>
   <path class="fil1" d="M9601.7 8416.78c0,130.2 121.94,153.4 196.7,62.15l0 44.39 66.97 0c-0.42,-20.07 -4.18,-17.64 -4.18,-39.95l0 -350.71 -62.79 0 0 248.61c0,128.19 -129.74,121.91 -129.74,35.51l0 -284.12 -66.96 0 0 284.12z"/>
   <path class="fil1" d="M10945.16 8221.45c0,64 22.95,84.11 78.17,116.85 52.62,31.19 101.79,32.41 101.79,91.8 0,57.08 -117.18,65.75 -117.18,-4.44l0 -22.2 -75.34 0c7.06,89.94 42.99,128.74 133.93,128.74 35.88,0 66.73,-9.77 87.51,-27.04 48.5,-40.31 55.06,-130.96 -1.28,-175.4 -26.12,-20.61 -43.69,-27.67 -73.63,-41.77 -128.95,-60.78 -46.75,-110.93 -25.16,-110.93 30.7,0 66.97,-4.1 66.97,62.14 77.39,0 76.86,7.47 66.14,-38.92 -26.71,-115.61 -241.92,-96.18 -241.92,21.17z"/>
   <path class="fil1" d="M13347.49 8181.5l0 -48.84 -66.97 0c9.98,45.48 4.19,322.24 4.19,390.66l62.78 0 0 -208.64c0,-55.39 5.35,-115.34 44.69,-130.2 20.82,-7.87 48.5,-8.6 66.8,3.05 18.73,11.93 26.62,34.91 26.62,65l0 270.79 62.78 0 0 -284.12c0,-151.01 -149.19,-129.26 -184.9,-80.68l-15.99 22.98z"/>
   <path class="fil1" d="M9961.63 8066.07l0 66.59 -62.77 0 0 48.84 62.77 0 0 279.67c0,71.7 75.17,71.68 122.98,63.87 26.02,-4.27 23.5,2.4 23.5,-41.67 0,-28.85 -38.58,5.2 -69.52,-19.48 -7.23,-5.77 -14.18,-21.53 -14.18,-33.79l0 -248.6 79.51 0 0 -48.84 -79.51 0 0 -102.1c-6.95,0.61 -62.78,17.59 -62.78,35.51z"/>
   <path class="fil1" d="M7052.89 8066.07l0 66.59 -62.77 0 0 48.84 62.77 0 0 288.55c0,79.6 116.92,53.27 142.3,53.27l0 -53.27c-23.93,0 -28.48,7.06 -50.48,0.5 -17.3,-5.15 -29.03,-13.47 -29.03,-36.01l0 -253.04 79.51 0 0 -48.84 -79.51 0 0 -102.1c-12.93,1.14 -22.91,6.66 -34.76,11.97 -11.12,4.97 -28.03,10.03 -28.03,23.54z"/>
   <path class="fil1" d="M8124.32 7977.29l0 532.72c0,18.93 16.05,13.31 54.4,13.31 9.65,0 12.56,-3.09 12.56,-13.31l0 -532.72c0,-18.94 -16.07,-13.33 -54.41,-13.33 -9.64,0 -12.55,3.1 -12.55,13.33z"/>
   <polygon class="fil1" points="9467.77,8523.32 9530.55,8523.32 9530.55,7963.96 9467.77,7963.96 "/>
   <path class="fil0" d="M14251.5 5584.49l0 235.29c0,15.06 7.34,13.31 20.92,13.31 20.49,0 12.55,-45.32 12.55,-88.78 0,-35.52 0,-71.03 0,-106.55l70.87 177.88c5.45,12.97 4.61,15.98 21.21,17.45l72.94 -189c5.05,-10.53 1.54,-4.62 6.58,-10.77l0 199.77c23.72,0 33.48,3.49 33.48,-13.31l0 -235.29c0,-17.26 -10.74,-13.32 -37.66,-13.32 -14.88,0 -13.82,16.16 -23.95,41.2l-55.58 145.25c-26.41,-20.53 -60.97,-186.45 -87.89,-186.45 -23.71,0 -33.47,-3.49 -33.47,13.32z"/>
   <path class="fil1" d="M7630.46 8185.94l0 -53.28 -62.78 0 0 390.66 62.78 0c0,-57.16 -7.39,-252.28 12.61,-292.94 23.35,-47.46 56.04,-40 104.57,-40l0 -66.6c-76.4,0 -82.64,8.44 -111.88,54.47 -4.43,6.98 -1.44,2.98 -5.3,7.69z"/>
   <polygon class="fil1" points="10145.78,8523.32 10208.56,8523.32 10208.56,8132.66 10145.78,8132.66 "/>
   <path class="fil0" d="M14029.67 5584.49l0 22.2 75.34 0 0 213.09c0,19.21 33.48,19.21 33.48,0l0 -213.09 75.33 0 0 -35.52 -171.59 0c-9.64,0 -12.56,3.09 -12.56,13.32z"/>
   <polygon class="fil1" points="10141.59,8035 10212.74,8035 10212.74,7963.96 10141.59,7963.96 "/>
  </g>
 </g>
</svg>
