<?xml version="1.0" encoding="UTF-8"?>
<!DOCTYPE svg PUBLIC "-//W3C//DTD SVG 1.1//EN" "http://www.w3.org/Graphics/SVG/1.1/DTD/svg11.dtd">
<!-- Creator: CorelDRAW 2018 (64 Bit Versión de evaluación) -->
<svg xmlns="http://www.w3.org/2000/svg" xml:space="preserve" width="190mm" height="180mm" version="1.1" style="shape-rendering:geometricPrecision; text-rendering:geometricPrecision; image-rendering:optimizeQuality; fill-rule:evenodd; clip-rule:evenodd"
viewBox="0 0 19000 18000"
 xmlns:xlink="http://www.w3.org/1999/xlink">
 <defs>
  <style type="text/css">
   <![CDATA[
    .fil0 {fill:#0086CC;fill-rule:nonzero}
   ]]>
  </style>
 </defs>
 <g id="Capa_x0020_1">
  <metadata id="CorelCorpID_0Corel-Layer"/>
  <g id="_1721633702224">
   <path class="fil0" d="M12912.09 9415.95l832.85 0 0 701.61 -1670.67 0 0 -2399.09 837.82 0 0 1697.48zm-2731.01 -132.36l0 0 -1376.98 1083.16 -1259.03 -990.17c-181.15,436.03 -618.75,740.42 -1125.24,740.42l-1076.03 0 0 -2398.53 1076.03 0c565.25,0 971.77,357.3 1124.67,740.56l1259.6 -989.89 466.71 367 -1153.34 907.01 220.79 173.87 1153.63 -907.15 466.68 367.01 -1153.47 906.71 221.22 173.86 1154.76 -906.71 0 -832.27 837.12 0 0 1696.62 833.42 0 0 702.47 -1670.54 0 0 -833.97zm-3324.94 -366.14l0 0c0,-326.21 -215.52,-510.06 -519.89,-510.06l-186.85 0 0 1020.4 182 0c282.83,0 524.74,-154.9 524.74,-510.34z"/>
   <path class="fil0" d="M9494.24 3385.35c-3079.33,0 -5576.01,2496.52 -5576.01,5575.99 0,3079.89 2496.68,5576.56 5576.01,5576.56 3079.89,0 5576.42,-2496.67 5576.42,-5576.56 0,-3079.47 -2496.53,-5575.99 -5576.42,-5575.99zm0 10548.92l0 0c-2746.42,0 -4972.94,-2226.37 -4972.94,-4972.93 0,-2746.42 2226.52,-4973.08 4972.94,-4973.08 2746.84,0 4973.36,2226.66 4973.36,4973.08 0,2746.56 -2226.52,4972.93 -4973.36,4972.93z"/>
  </g>
 </g>
</svg>
