<?xml version="1.0" encoding="UTF-8"?>
<!DOCTYPE svg PUBLIC "-//W3C//DTD SVG 1.1//EN" "http://www.w3.org/Graphics/SVG/1.1/DTD/svg11.dtd">
<!-- Creator: CorelDRAW 2018 (64 Bit Versión de evaluación) -->
<svg xmlns="http://www.w3.org/2000/svg" xml:space="preserve" width="170mm" height="170mm" version="1.1" style="shape-rendering:geometricPrecision; text-rendering:geometricPrecision; image-rendering:optimizeQuality; fill-rule:evenodd; clip-rule:evenodd"
viewBox="0 0 17000 17000"
 xmlns:xlink="http://www.w3.org/1999/xlink">
 <defs>
  <style type="text/css">
   <![CDATA[
    .fil0 {fill:#558BC8}
   ]]>
  </style>
 </defs>
 <g id="Capa_x0020_1">
  <metadata id="CorelCorpID_0Corel-Layer"/>
  <path id="HP-Inc-logo.eps" class="fil0" d="M11436.83 7008.02l-779.52 0 -1091.64 2995.19 779.54 0 1091.62 -2995.19zm-2961.97 6392.55c-48.66,0 -97.11,-0.89 -145.48,-2.29l1000.45 -2749.51 1376.82 0c241.66,0 506.94,-185.78 589.6,-412.76l1085.41 -2981.31c177.57,-488.11 -102.02,-887.45 -621.4,-887.45l-1910.07 0 -1602.67 4403.92 -0.59 0 -908.56 2496.48c-2155.55,-512.45 -3758.87,-2450.13 -3758.87,-4762.44 0,-2245.66 1512.15,-4137.94 3573.69,-4714.67l-937.49 2576.71 -0.27 0 -1558.52 4281.52 1037.5 0.09 1325.4 -3638.24 779.72 0 -1325.4 3638.24 1037.12 0.17 1235.13 -3394.33c177.68,-488.11 -101.93,-887.45 -620.83,-887.45l-872.13 0 1001.43 -2752.28c73,-3.24 146.27,-5.15 220.01,-5.15 2703.65,0 4895.36,2191.73 4895.36,4895.39 0,2703.6 -2191.71,4895.36 -4895.36,4895.36z"/>
 </g>
</svg>
