<?xml version="1.0" encoding="UTF-8"?>
<!DOCTYPE svg PUBLIC "-//W3C//DTD SVG 1.1//EN" "http://www.w3.org/Graphics/SVG/1.1/DTD/svg11.dtd">
<!-- Creator: CorelDRAW 2018 (64 Bit Versión de evaluación) -->
<svg xmlns="http://www.w3.org/2000/svg" xml:space="preserve" width="230mm" height="180mm" version="1.1" style="shape-rendering:geometricPrecision; text-rendering:geometricPrecision; image-rendering:optimizeQuality; fill-rule:evenodd; clip-rule:evenodd"
viewBox="0 0 23000 18000"
 xmlns:xlink="http://www.w3.org/1999/xlink">
 <defs>
  <style type="text/css">
   <![CDATA[
    .fil0 {fill:#EF0000}
   ]]>
  </style>
 </defs>
 <g id="Capa_x0020_1">
  <metadata id="CorelCorpID_0Corel-Layer"/>
  <g id="_2671525185792">
   <path class="fil0" d="M12452.72 10451.53c0,130.99 -43.78,243.88 -96.61,334.25 -59.93,102.57 -111.89,149.95 -206.16,213.06 29.14,-125.06 105.63,-161.08 8.13,-357.47 -195.81,-394.27 -776.71,-205.55 -776.71,194.44 0,141.79 69.66,286.1 142.18,358.57 222.6,222.46 617.86,151.31 850.2,4.98 145.92,-91.89 216.01,-194.06 278.73,-350.12l1040.91 -2615.68c3.47,-8.62 5.96,-16 10.34,-24.6 14.07,-27.61 4.28,-12.1 18.33,-28.25l330.42 1136.85c31.39,96.32 50.1,183.03 81.53,279.48l251.81 866.13 722 0 395.95 -1362.5c33.77,24.77 20.34,24.88 33.84,70.98 9.72,33.2 17.01,52.43 28.78,87.67l337.71 1048.06c10.99,32.92 20.24,60.77 28.59,87.86 11.06,35.86 10.22,67.93 48.53,67.93l628.84 0c47.77,0 76.89,-191.05 97.82,-274.82l508.13 -2010.01c6.58,-26.76 18.13,-44.22 -23.69,-44.22l-361 0c-43.81,0 -39.01,50.77 -58.23,128.11l-279.48 1059.7c-30.42,-130.51 -300.27,-898.48 -373.37,-1128.84 -10.05,-31.67 -7.75,-58.97 -45.86,-58.97l-675.43 0c-43.63,0 -52.99,87.76 -65.82,132.14 -16.06,55.53 -26.89,99.45 -43.02,154.96 -32.2,110.77 -58.93,208.87 -90.5,317.09l-172.56 596.02c-13.36,31.15 -2.16,7.82 -12.39,22.54 -23.72,-101.83 -55.19,-197.56 -84.03,-300.25l-265.32 -922.5 -1269.32 0c-19.99,85.84 -410.68,1008 -430.88,1094.66 -32.45,-23.77 -43.85,-82.92 -59.99,-126.35l-320.9 -843.6c-16.36,-41.87 -30.28,-124.71 -73.27,-124.71l-989.83 0c1.25,55.95 30.22,95.3 51.5,146.48 20.16,48.49 39.14,87.88 60.97,136.98 43.68,98.25 81.77,187.86 122.08,285.5l363.31 859.43c56.71,126.87 333.74,793.67 333.74,889.02z"/>
   <path class="fil0" d="M714.38 10439.87l978.19 0 0 -1397.42 722 0 0 1362.5c0,26.82 8.11,34.92 34.93,34.92l978.21 0c26.82,0 34.94,-8.1 34.94,-34.92l0 -3120.92 -1048.08 0 0 1304.27 -722 0 0 -1304.27 -978.19 0 0 3155.84z"/>
   <path class="fil0" d="M7410.37 8320.45c0,-39.15 0.05,-78 0.66,-117.13 0.8,-49.44 11.53,-92.48 -35.61,-92.48l-826.81 0c-26.82,0 -34.93,8.1 -34.93,34.93l0 2259.18c0,26.82 8.11,34.92 34.93,34.92l826.81 0c57.06,0 34.95,-132.24 34.95,-244.54 0,-204.86 -9.72,-1360.43 2.27,-1418.41 23.67,-114.28 583.63,-438.36 580.13,113.99l-0.56 1444.57c-0.85,51.84 -13.75,104.39 35.35,104.39l826.8 0c26.84,0 34.94,-8.1 34.94,-34.92l0 -1583.75c0,-246.53 -97.63,-421.01 -230.05,-538.52 -139.26,-123.59 -372.14,-218.43 -561.82,-218.43 -282.97,0 -516.31,141.86 -687.06,256.2z"/>
   <path class="fil0" d="M4627.16 9333.59c0,-292.7 -30.52,-978.2 326.06,-978.2 269.78,0 302.77,455.23 302.77,663.78 0,300.27 63.54,1199.44 -279.48,1199.44 -314.58,0 -349.35,-537.98 -349.35,-885.02zm-954.91 -116.45c0,426.16 56.39,701.02 346.43,992.76 101.02,101.59 217.81,173.39 360.49,233.42 376.92,158.61 886.81,132.46 1247.22,-63.93 121.29,-66.09 164.99,-104.38 270.01,-195.8 70.07,-60.99 146.46,-174.99 196.12,-258.03 149.04,-249.21 181.95,-640.77 123.24,-922.9 -18.69,-89.79 -44.36,-170.36 -72.9,-241.51 -17.5,-43.67 -27.8,-63.05 -50.64,-100.77 -58.01,-95.73 -111.43,-191.3 -204.55,-272.88 -19.29,-16.91 -21.97,-16.42 -39.39,-30.47 -18.15,-14.65 -25.17,-23.55 -43.22,-38.31 -185.41,-151.59 -421.11,-239.08 -660.19,-283.08 -130.07,-23.94 -294.5,-12.96 -429.61,11.92 -568.27,104.67 -1043.01,573.13 -1043.01,1169.58z"/>
   <path class="fil0" d="M18461.64 8355.39c183.09,0 292.53,14.22 348.7,280.14 17.16,81.19 5.91,162 19.04,248.8l16.56 262.93 -698.72 0 29.73 -517.6c26.88,-132.18 137.5,-274.27 284.69,-274.27zm-1211.1 966.54c0,188.42 42.2,360.3 94.65,499.27 60.04,159.02 135.3,251.54 234.85,370.7 171.69,205.48 550.34,376.07 823.38,376.07 343.71,0 618.15,-28.13 920.67,-208.91 154.32,-92.24 265.53,-194.62 344.95,-353.77 16.34,-32.75 112.58,-217.54 27,-217.54 -544.67,0 -348.66,-40.37 -453.67,163.52 -84.37,163.75 -300.81,279 -489.59,279 -177.13,0 -263.47,-0.61 -424.17,-111.52 -206.17,-142.29 -158.09,-367.84 -158.09,-645.42l1607.03 0c0,-297.55 9.41,-452.55 -116.57,-733.53 -76.84,-171.31 -145.1,-243.65 -264.8,-364.04 -333.71,-335.67 -977.8,-438.36 -1427.68,-222.38 -72.88,34.98 -135.94,71.07 -197.38,117.04 -325.12,243.23 -520.58,626.3 -520.58,1051.51z"/>
   <path class="fil0" d="M10344.95 8355.39c190.55,0 285.8,54.16 329.58,275.96l31.42 515.91 -698.71 0c0,-63.24 19.4,-452.62 36.87,-522.09 36.27,-144.33 118.45,-269.78 300.84,-269.78zm-1222.75 896.68c0,332.25 27.63,540.77 221.29,815.12l206.84 224.04c177.57,159.65 484.72,276.74 736.39,276.74 349.09,0 613.97,-38.85 891.82,-202.83 368.91,-217.71 480.67,-577.39 377.5,-577.39 -383.02,0 -385.87,-34.94 -415.48,73.6 -60.83,222.86 -301.41,368.92 -527.78,368.92 -212.17,0 -430.09,-49.1 -532.25,-236.32 -74.33,-136.17 -50.01,-335.59 -50.01,-520.62l1607.05 0c0,-309.89 15.12,-469.17 -124.02,-761.02 -65.52,-137.4 -105.58,-169.89 -183.67,-270.5 -22.55,-29.06 -47.83,-54.96 -74.88,-76.5 -121.84,-97.14 -198.69,-170.33 -372.76,-232.81 -564.01,-202.44 -1195.79,-68.61 -1529.58,430.05 -130.11,194.4 -230.46,426.45 -230.46,689.52z"/>
   <polygon class="fil0" points="19963.87,10439.87 20872.21,10439.87 20872.21,7284.03 19963.87,7284.03 "/>
   <polygon class="fil0" points="21151.69,10439.87 22060.01,10439.87 22060.01,7284.03 21151.69,7284.03 "/>
  </g>
 </g>
</svg>
