<?xml version="1.0" encoding="UTF-8"?>
<!DOCTYPE svg PUBLIC "-//W3C//DTD SVG 1.1//EN" "http://www.w3.org/Graphics/SVG/1.1/DTD/svg11.dtd">
<!-- Creator: CorelDRAW 2018 (64 Bit Versión de evaluación) -->
<svg xmlns="http://www.w3.org/2000/svg" xml:space="preserve" width="190mm" height="160mm" version="1.1" style="shape-rendering:geometricPrecision; text-rendering:geometricPrecision; image-rendering:optimizeQuality; fill-rule:evenodd; clip-rule:evenodd"
viewBox="0 0 19000 16000"
 xmlns:xlink="http://www.w3.org/1999/xlink">
 <defs>
  <style type="text/css">
   <![CDATA[
    .fil0 {fill:#295F92}
   ]]>
  </style>
 </defs>
 <g id="Capa_x0020_1">
  <metadata id="CorelCorpID_0Corel-Layer"/>
  <g id="_2671664414944">
   <path class="fil0" d="M1404.55 8000.11l0 773.99 -357.22 0c0,-290.32 -41.53,-926.78 90.07,-1120.5 196.09,-288.65 842.67,-285.71 842.67,267.13l0 853.37 -357.22 0 0 -833.52c0,-168.72 -218.3,-179.44 -218.3,59.53zm1389.19 119.08c0,93.07 282.48,504.47 317.54,654.91l-357.23 0c-44.64,-84.38 -109.81,-267.12 -178.61,-317.54 -36.84,69.63 -120.7,239.32 -138.91,317.54l-357.23 0c21.7,-93.14 319.1,-567.76 329.35,-623.8 14.39,-78.65 -274.92,-497.85 -309.51,-646.32l357.23 0 145.91 294.22c66.65,-16.21 51.45,-37.73 83.97,-123.88 27.37,-72.54 52.39,-104.19 67.8,-170.34l357.23 0c-37.84,71.5 -317.54,581.59 -317.54,615.21zm-2341.78 -1012.13l0 1865.5c0,70.4 216.95,119.3 325.88,150.39 601.17,171.66 1692.2,394.25 2190.14,-95.25 196.8,-193.45 75.14,-210.63 222.68,-213.91 -103.18,-195.02 119.8,-205.8 -101.76,-791.3 -94.58,-249.93 -139.5,-131.03 2.52,-399.44 150.42,110.2 476.3,744.98 476.3,1051.81l0 99.24c0,500.9 -535.52,754.13 -1051.81,754.13 -748.93,0 -1193.38,-139.79 -1842.69,-380.03 -60.35,-22.33 -147.4,-70.28 -221.26,-76.42 0,369.81 312.22,694.6 674.75,694.6l2004.41 0c101.84,0 197.21,-30.58 271.86,-65.52 254.96,-119.27 402.89,-363.66 402.89,-648.92l0 -1905.18c0,-228.13 -88.04,-382.01 -210.05,-504.39 -2.89,-2.89 -7.1,-6.99 -10.03,-9.83 -99.6,-96.17 -241.97,-178.09 -394.2,-181.32 -438.55,-9.29 -890.46,0.94 -1330.59,0.94l504.6 408.29c39.66,30.99 39.31,27.02 76.28,62.64 48.68,46.9 79.05,86.26 130.6,127.39 61.19,48.81 80.69,64.57 137.13,120.86 48.5,48.4 230.26,245.59 242.9,292.95l-178.61 0c-90.18,-134.67 -447.23,-555.37 -587,-663.29l-271.35 -244.64c-27.18,-25.54 -117.99,-104.2 -153.79,-104.2l-714.43 0c-297.16,0 -595.37,343.69 -595.37,654.9z"/>
   <path class="fil0" d="M9958.03 9528.23l793.82 0 0 -1885.33c350.93,0 396.92,-10.28 396.92,238.15 0,58.87 -64.18,99.96 -102.84,115.45 -59.83,23.99 -116.44,23.46 -194.85,23.46 0,734.42 -60.12,593.31 277.84,1289.98 35.26,72.67 61.61,147.18 99.23,218.29l813.67 0c-7.03,-84.47 -270.06,-673.66 -323.17,-808.03 -34.2,-86.52 -74.33,-189.73 -113.43,-263.64 317.04,-212.29 440.86,-659.17 291.57,-986.15 -162.38,-355.66 -445.08,-541.95 -867.09,-541.95l-1071.67 0 0 2599.77z"/>
   <path class="fil0" d="M5770.59 9528.23l793.83 0 0 -1905.18c160.22,0 317.54,4.32 317.54,138.92 0,141.76 -126.86,138.92 -218.32,138.92l0 654.91c0,139.15 357.23,-23.02 357.23,178.61 0,153.04 -202.98,119.07 -357.23,119.07l0 674.75c304.92,0 563.09,36.41 798.86,-173.59 117.88,-105.01 195.44,-231.8 228.01,-407.1 72.42,-389.81 -71.88,-639.22 -391.79,-808.5 38.35,-52.36 53.91,-38.6 102.68,-95.78 24.05,-28.2 62.35,-80.92 82.6,-115.84 219.98,-379.3 92.27,-998.96 -681.43,-998.96l-1031.98 0 0 2599.77z"/>
   <path class="fil0" d="M12279.97 7821.51l0 1706.72 793.83 0 0 -1726.56c0,-206.86 317.54,-245.68 317.54,59.53l0 1667.03 793.82 0 0 -1587.65c0,-429.13 -94.55,-764.36 -424.57,-964.63 -198.01,-120.15 -383.99,-107.04 -607.41,-107.04 -491.85,0 -873.21,412.55 -873.21,952.6z"/>
   <path class="fil0" d="M16844.47 8218.43l-714.43 1309.8 813.66 0c51.71,-107.75 208.05,-544.24 277.85,-595.37l297.67 595.37c181.05,0 695.7,-36.76 813.68,19.84 -12.58,-151.16 -674.75,-1271.76 -674.75,-1349.5l489.78 -939.1c54.47,-97.32 139.41,-220.63 165.12,-331.01l-793.83 0 -257.99 555.67c-23.49,-100.83 -91.56,-198.75 -138.03,-278.72 -50.85,-87.49 -92.23,-187.04 -139.8,-276.95l-813.68 0c19.5,83.68 107.33,213.96 158.79,317.51 57.36,115.45 113.2,205.54 172.01,324.12l343.95 648.34z"/>
   <path class="fil0" d="M7993.3 7742.12l0 932.74c0,258.63 66.41,484.21 193.05,620.63 52.97,57.07 158.13,126.19 237.38,159.55 270.67,113.88 733.42,73.19 1077.85,73.19l0 -754.13 -654.91 0c-123.44,0 -70.78,-170.02 -59.53,-218.3 300.38,-69.99 674.75,53.39 674.75,-79.38l0 -535.84c-254.22,0 -654.91,54.92 -654.91,-138.91 0,-173.02 487.33,-119.08 694.6,-119.08l0 -754.13c-463.75,0 -1038.34,-79.81 -1315.1,232.86 -122.4,138.27 -193.18,327.82 -193.18,580.8z"/>
   <path class="fil0" d="M14542.37 7960.42c0,405.7 -49.44,1012.15 155.55,1273.35 69.37,88.41 140.24,155.36 247.53,208.9 258.83,129.16 766.58,85.56 1105.2,85.56l0 -754.13c-201.42,0 -532.38,22.57 -714.45,-19.85 -38.93,-167.12 -24.24,-122.83 39.69,-218.3 112.47,0 224.92,-0.09 337.39,0 362.85,0.27 297.68,114.32 297.68,-595.37 -175.36,0 -635.07,45.18 -635.07,-99.22 0,-85.55 -6.01,-158.77 178.62,-158.77l496.14 0 0 -754.13c-938.26,0 -1508.28,-127.46 -1508.28,1031.96z"/>
   <path class="fil0" d="M4500.46 9528.23l793.83 0 0 -2540.24c0,-45.73 -13.8,-59.53 -59.53,-59.53l-734.3 0 0 2599.77z"/>
  </g>
 </g>
</svg>
