<?xml version="1.0" encoding="UTF-8"?>
<!DOCTYPE svg PUBLIC "-//W3C//DTD SVG 1.1//EN" "http://www.w3.org/Graphics/SVG/1.1/DTD/svg11.dtd">
<!-- Creator: CorelDRAW 2018 (64 Bit Versión de evaluación) -->
<svg xmlns="http://www.w3.org/2000/svg" xml:space="preserve" width="50mm" height="45mm" version="1.1" style="shape-rendering:geometricPrecision; text-rendering:geometricPrecision; image-rendering:optimizeQuality; fill-rule:evenodd; clip-rule:evenodd"
viewBox="0 0 5000 4500"
 xmlns:xlink="http://www.w3.org/1999/xlink">
 <defs>
  <style type="text/css">
   <![CDATA[
    .fil0 {fill:none}
    .fil2 {fill:#2F464A;fill-rule:nonzero}
    .fil1 {fill:#CB3538;fill-rule:nonzero}
   ]]>
  </style>
 </defs>
 <g id="Capa_x0020_1">
  <metadata id="CorelCorpID_0Corel-Layer"/>
  <g id="_1498590902736">
   <rect class="fil0" x="110.87" y="830.3" width="4707.69" height="2786.92"/>
   <g>
    <path class="fil1" d="M2017.32 2940.72l-0.65 130.64 11.44 1.64c35.93,5.6 72.2,9.49 108.66,11.66 31.93,2.47 64.02,2.99 96.04,1.56 30.59,-1.84 60.84,-6.61 90.13,-14.19 34.37,-8.12 66.26,-22.3 93.48,-41.59 24.53,-17.47 43.27,-39.89 54.45,-65.13 19.5,-42.25 19.11,-89.11 -1.08,-131.13 -10.64,-21.81 -27.38,-41.16 -48.84,-56.44 -20.74,-15.6 -45.11,-27.45 -71.61,-34.8l-118.06 -36.56c-14.11,-5 -25.58,-14.1 -32.25,-25.63 -5.19,-9.58 -4.71,-20.65 1.32,-29.89 2.11,-3.24 4.76,-6.22 7.87,-8.85 3.62,-3.05 7.67,-5.73 12.07,-7.97 1.75,-0.9 3.54,-1.74 5.36,-2.53 13.2,-5.44 27.44,-8.9 42.09,-10.22 24.99,-3 50.39,-2.79 75.31,0.67 29.42,2.66 58.6,7.01 87.3,13.03l6.1 1.13 0 -120.52 -11.28 -2.02c-29.26,-5.84 -58.91,-10.25 -88.8,-13.19 -38.74,-4.31 -77.97,-4.46 -116.76,-0.42 -49.13,3.76 -95.86,19.44 -134.42,45.11 -26.14,17.12 -46.03,40 -57.42,66.05 -17.15,39.68 -17.2,83.09 -0.14,122.8 8.83,19.73 22.94,37.51 41.29,51.98 15.91,12.79 33.89,23.67 53.43,32.31 25.72,11.52 52.99,20.46 81.24,26.61 9.33,2.33 18.6,4.79 27.82,7.38l13.98 4.28c1.34,0.45 2.67,0.89 4.01,1.36 13.78,4.12 26.39,10.6 36.98,19.04 7.35,5.74 13.02,12.83 16.56,20.7 2.18,7.19 2.21,14.73 0.1,21.93 -4.43,11.63 -14.14,21.34 -27.03,27.05 -14.06,6.1 -29.31,10.08 -45.03,11.74 -23.08,3.06 -46.49,4.05 -69.81,2.94 -30.56,-1.92 -60.97,-5.31 -91.07,-10.14 -15.74,-2.69 -31.4,-5.75 -46.94,-9.17l-5.84 -1.22z"/>
    <path class="fil1" d="M1375.44 3066.61l0 -151.67 -3.56 1.29c-40.98,16.56 -85.55,26 -131.03,27.76 -47.25,3.08 -94.2,-8.47 -131.89,-32.44 -26.92,-17.34 -46.93,-41.06 -57.42,-68.05 -11.58,-29.41 -12.92,-60.96 -3.86,-90.98 8.4,-30.7 29.01,-58.12 58.47,-77.81 26.12,-18.24 58.04,-29.73 91.85,-33.07 59.8,-5.52 120.2,3.94 173.52,27.18l3.92 1.68 0 -152.54 -8.3 -1.85c-53.38,-14.3 -109.42,-20.42 -165.42,-18.07 -51.01,1.09 -101.23,10.67 -147.73,28.19 -46.94,17.95 -88.32,44.62 -120.96,78 -102.03,107.71 -104.75,259.16 -6.63,369.37 48.29,51.54 116.08,87.91 192.32,103.19 80.37,16.3 164.56,13.83 243.36,-7.11l13.36 -3.07z"/>
    <polygon class="fil1" points="1784.27,3076.64 1784.27,2507.73 1612.37,2507.73 1612.37,3076.64 "/>
    <polygon class="fil1" points="4328.62,3010.56 4328.62,3001.96 4255.86,3001.96 4255.86,3010.56 4286.13,3010.56 4286.13,3076.64 4298.36,3076.64 4298.36,3010.56 "/>
    <polygon class="fil1" points="4335.69,3076.64 4347.28,3076.64 4347.28,3017.01 4348.83,3017.01 4374.98,3076.64 4386.64,3076.64 4414.89,3014.13 4414.89,3076.64 4427.12,3076.64 4427.12,3001.96 4408.23,3001.96 4381.73,3063.47 4354.87,3001.96 4335.69,3001.96 "/>
    <path class="fil2" d="M502.31 2050.53c1.6,17.91 11.25,34.63 27.02,46.85 15.77,12.21 36.48,19 58,19 21.5,0 42.22,-6.79 57.98,-19 15.77,-12.22 25.43,-28.94 27.02,-46.85l0 -157.67c-0.86,-18.34 -10.19,-35.67 -26.05,-48.39 -15.84,-12.71 -36.97,-19.81 -58.95,-19.81 -21.99,0 -43.12,7.1 -58.97,19.81 -15.85,12.72 -25.19,30.05 -26.05,48.39l0 157.67z"/>
    <path class="fil2" d="M972.94 2050.53c1.6,17.91 11.25,34.63 27.01,46.85 15.77,12.21 36.48,19 58.01,19 21.5,0 42.22,-6.79 57.99,-19 15.77,-12.22 25.42,-28.94 27.01,-46.85l0 -353.48c-0.86,-18.32 -10.19,-35.66 -26.04,-48.38 -15.85,-12.71 -36.98,-19.81 -58.96,-19.81 -22,0 -43.12,7.1 -58.97,19.81 -15.85,12.72 -25.19,30.06 -26.05,48.38l0 353.48z"/>
    <path class="fil2" d="M1441.06 2192.89c1.6,17.9 11.25,34.64 27.02,46.84 15.76,12.22 36.47,19 57.99,19 21.51,0 42.23,-6.78 58,-19 15.76,-12.2 25.41,-28.94 27.01,-46.84l0 -764.6c-0.86,-18.33 -10.2,-35.67 -26.05,-48.38 -15.85,-12.71 -36.98,-19.82 -58.96,-19.82 -21.99,0 -43.12,7.11 -58.96,19.82 -15.85,12.71 -25.19,30.05 -26.05,48.38l0 764.6z"/>
    <path class="fil2" d="M1911.63 2050.53c1.59,17.91 11.24,34.63 27.01,46.85 15.76,12.21 36.48,19 57.99,19 21.52,0 42.23,-6.79 58,-19 15.77,-12.22 25.42,-28.94 27.02,-46.85l0 -353.48c-0.87,-18.32 -10.21,-35.66 -26.05,-48.38 -15.86,-12.71 -36.98,-19.81 -58.97,-19.81 -21.99,0 -43.11,7.1 -58.96,19.81 -15.85,12.72 -25.18,30.06 -26.04,48.38l0 353.48z"/>
    <path class="fil2" d="M2380.1 2050.53c1.6,17.91 11.25,34.63 27.02,46.85 15.77,12.21 36.48,19 58,19 21.5,0 42.22,-6.79 57.99,-19 15.77,-12.22 25.42,-28.94 27.01,-46.85l0 -157.67c-0.86,-18.34 -10.2,-35.67 -26.04,-48.39 -15.85,-12.71 -36.98,-19.81 -58.96,-19.81 -21.99,0 -43.12,7.1 -58.97,19.81 -15.85,12.72 -25.19,30.05 -26.05,48.39l0 157.67z"/>
    <path class="fil2" d="M2850.3 2050.53c1.59,17.91 11.25,34.63 27.01,46.85 15.76,12.21 36.49,19 58.01,19 21.5,0 42.22,-6.79 57.98,-19 15.78,-12.22 25.42,-28.94 27.03,-46.85l0 -353.48c-0.87,-18.32 -10.2,-35.66 -26.05,-48.38 -15.85,-12.71 -36.98,-19.81 -58.96,-19.81 -21.99,0 -43.13,7.1 -58.97,19.81 -15.85,12.72 -25.19,30.06 -26.05,48.38l0 353.48z"/>
    <path class="fil2" d="M3318.58 2192.89c1.6,17.9 11.25,34.64 27.02,46.84 15.76,12.22 36.47,19 57.99,19 21.51,0 42.23,-6.78 58,-19 15.76,-12.2 25.42,-28.94 27.01,-46.84l0 -764.6c-0.86,-18.33 -10.2,-35.67 -26.04,-48.38 -15.85,-12.71 -36.98,-19.82 -58.97,-19.82 -21.98,0 -43.12,7.11 -58.97,19.82 -15.84,12.71 -25.18,30.05 -26.04,48.38l0 764.6z"/>
    <path class="fil2" d="M3788.4 2050.53c1.6,17.91 11.25,34.63 27.02,46.85 15.76,12.21 36.48,19 57.99,19 21.52,0 42.23,-6.79 58,-19 15.77,-12.22 25.42,-28.94 27.01,-46.85l0 -353.48c-0.86,-18.32 -10.2,-35.66 -26.04,-48.38 -15.85,-12.71 -36.99,-19.81 -58.97,-19.81 -21.99,0 -43.12,7.1 -58.96,19.81 -15.85,12.72 -25.18,30.06 -26.05,48.38l0 353.48z"/>
    <path class="fil2" d="M4257.1 2050.53c1.6,17.91 11.24,34.63 27.01,46.85 15.77,12.21 36.48,19 57.99,19 21.52,0 42.24,-6.79 58.01,-19 15.76,-12.22 25.42,-28.94 27.01,-46.85l0 -157.67c-0.86,-18.34 -10.2,-35.67 -26.05,-48.39 -15.85,-12.71 -36.98,-19.81 -58.97,-19.81 -21.98,0 -43.11,7.1 -58.95,19.81 -15.86,12.72 -25.19,30.05 -26.05,48.39l0 157.67z"/>
    <path class="fil1" d="M3171.67 3066.61l0 -151.67 -3.56 1.29c-40.98,16.56 -85.55,26 -131.03,27.76 -47.24,3.08 -94.19,-8.47 -131.88,-32.43 -26.92,-17.35 -46.94,-41.07 -57.42,-68.06 -11.58,-29.41 -12.92,-60.96 -3.87,-90.98 8.4,-30.7 29.02,-58.12 58.48,-77.81 26.11,-18.24 58.04,-29.73 91.85,-33.07 59.8,-5.52 120.2,3.94 173.53,27.18l3.9 1.68 0 -152.54 -8.3 -1.85c-53.38,-14.3 -109.42,-20.42 -165.41,-18.07 -51.01,1.09 -101.24,10.67 -147.74,28.18 -46.93,17.96 -88.3,44.64 -120.95,78.01 -102.02,107.71 -104.74,259.16 -6.63,369.37 48.29,51.54 116.08,87.91 192.32,103.19 80.37,16.3 164.56,13.83 243.36,-7.11l13.35 -3.07z"/>
    <path class="fil1" d="M3352.81 2792.43c1.67,89.93 51.71,174.46 136.28,230.22 84.57,55.76 194.7,76.84 299.94,57.4 142.9,-22.45 254.26,-116.31 279.74,-235.76 25.49,-119.45 -40.21,-239.6 -165.04,-301.83 -110.23,-56.92 -248.55,-60.16 -362.43,-8.49 -113.89,51.67 -185.83,150.32 -188.49,258.46zm249.57 -116.7l0 0c37.14,-24.76 84.58,-36.18 131.82,-31.77 47.25,4.42 90.47,24.32 120.14,55.32 29.67,31 43.36,70.57 38.07,110 -5.3,39.42 -29.15,75.49 -66.3,100.24 -37.15,24.76 -84.57,36.18 -131.83,31.77 -47.25,-4.42 -90.46,-24.32 -120.13,-55.32 -29.67,-31 -43.36,-70.57 -38.07,-110 5.29,-39.42 29.14,-75.49 66.3,-100.24z"/>
   </g>
  </g>
 </g>
</svg>
