<?xml version="1.0" encoding="UTF-8"?>
<!DOCTYPE svg PUBLIC "-//W3C//DTD SVG 1.1//EN" "http://www.w3.org/Graphics/SVG/1.1/DTD/svg11.dtd">
<!-- Creator: CorelDRAW 2018 (64 Bit Versión de evaluación) -->
<svg xmlns="http://www.w3.org/2000/svg" xml:space="preserve" width="50mm" height="45mm" version="1.1" style="shape-rendering:geometricPrecision; text-rendering:geometricPrecision; image-rendering:optimizeQuality; fill-rule:evenodd; clip-rule:evenodd"
viewBox="0 0 5000 4500"
 xmlns:xlink="http://www.w3.org/1999/xlink">
 <defs>
  <style type="text/css">
   <![CDATA[
    .str0 {stroke:black;stroke-width:7.62;stroke-miterlimit:22.9256}
    .fil3 {fill:black}
    .fil0 {fill:#ED3237}
    .fil2 {fill:#FEFEFE}
    .fil1 {fill:white}
   ]]>
  </style>
 </defs>
 <g id="Capa_x0020_1">
  <metadata id="CorelCorpID_0Corel-Layer"/>
  <g id="_2671530020272">
   <path class="fil0" d="M3261.63 2540.31l52.51 0.19c-8.63,-60.72 -6.85,-89.9 -6.08,-151.45l0.83 -31.66c9.42,13.8 57.32,158.19 63.67,182.93l62.97 0.1c20.86,-30.82 45.55,-148.57 68.83,-183.66 0.58,73.48 1.35,106.62 -3.65,183.4l101.9 0.35c-10,-82.72 -7.93,-158.83 -0.64,-242.65l-120.38 -0.42c-11.76,26.35 -37.77,117.95 -49.9,132.97 -19.38,-32.39 -35.6,-133.01 -53.81,-133.01l-116.01 0.17c8.71,49.47 11.84,196.44 -0.24,242.74z"/>
   <path class="fil0" d="M3802.17 2300.24c-39.53,9.99 -42.87,36.5 -42.93,81.08 -0.22,139.87 -10.86,159.43 95.22,159.26 120.32,-0.21 165.65,20.25 165.62,-86.17 -0.04,-138.94 10.91,-157.29 -96.43,-156.94 -32.01,0.11 -94.76,-3.98 -121.48,2.77z"/>
   <path class="fil1" d="M1536.29 2658.64c147.8,-3.77 355.58,-85.92 323.53,-246.31 -14.34,-71.78 -74.82,-137.9 -115.21,-173.32 -35.09,-30.77 -124.1,-96.01 -176.29,-115.07 8.7,17.58 38.05,55.43 52.21,73.88l161.52 221.98c-14.32,23.72 -241.85,211.87 -260.97,238.95l15.21 -0.11z"/>
   <path class="fil0" d="M2237.02 2492.96l6.82 47.02c42.91,1.78 87.71,0.55 130.9,0.59 47.67,0.05 85.96,5.57 92.22,-44.03 4.55,-36 7.97,-98.37 -16.39,-114.21 -42.67,-27.76 -124.81,17.58 -126.18,-28.23 -0.54,-18.36 1.51,-16.21 54.19,-16.07 34.51,0.08 52.52,-0.66 85.69,5.85 -1.27,-15.34 -2.66,-33.24 -8.21,-44.11 -18.18,-5.74 -145.86,-4.2 -173.44,-2.14 -27.29,2.04 -41.62,15.38 -45.93,41.86 -2.58,15.87 -2.44,75.47 0.53,91.09 12.12,63.67 128.01,9.77 140.71,40.25 16.25,39.02 -33.31,29.43 -57,29.39 -37.15,-0.06 -50.86,1.15 -83.91,-7.26z"/>
   <path class="fil0" d="M4182.58 2362.15c0,52.48 4.45,126.95 -6.73,178.35l53.15 0.33c-9.79,-76.22 -6.23,-117.54 -5.66,-197.04l99.06 195.74 119.9 0.48c1.15,-52.54 -6.06,-203.77 6.98,-242.03l-53.29 -0.68c10.68,78.13 5.85,107.3 5.69,189.96 -16.12,-12.38 -91.01,-174.59 -97.85,-189.6l-128.79 0.46c9.59,20.17 7.54,38.82 7.54,64.03z"/>
   <path class="fil0" d="M2897.23 2540.13l212.01 0.38 7.64 -44.9c-41.31,4.86 -77.49,5.63 -119.98,4.39l-1.06 -64.59c40.18,-0.71 68.35,-0.23 106.53,4.55l0.05 -50.48c-37.2,5.12 -67,5.75 -106.01,4.49l-0.34 -55.49c42.67,-1.19 75.28,-0.37 115.93,4.23l-6.9 -45.19 -207.69 -0.1c8.74,58.07 12.94,186.64 -0.18,242.71z"/>
   <path class="fil0" d="M2631.85 2540.01l103.98 0.46c-11.72,-51.92 -9.33,-189.55 -0.14,-242.93l-103.44 -0.06c6.66,65.51 11.83,179.88 -0.4,242.53z"/>
   <path class="fil1" d="M3854.29 2496.85c87.78,8.97 73.52,18.07 73.36,-103.96 -0.06,-27.55 8.5,-51.86 -19,-54.88 -19.45,-2.13 -54.3,-6.43 -57.09,16.39 -2.45,19.97 -1.05,127.95 2.73,142.45z"/>
   <g>
    <polygon class="fil2" points="1168.88,1584.57 723.29,2195.93 1171.28,2967.02 "/>
    <path class="fil3 str0" d="M1486.52 2019.76c113.94,45.74 213.86,102.29 290.89,163.83 126.18,100.82 192.53,214.78 166.48,317.05 -26.21,102.82 -140.37,172.52 -302,201.3 -58.68,10.45 -123.46,15.49 -192.33,14.85l71.77 -64.54c18.75,-1.97 36.95,-4.53 54.49,-7.65 137.85,-24.55 235.21,-83.99 257.57,-171.68 22.21,-87.23 -34.38,-184.41 -141.99,-270.4 -38.84,-31.02 -84.5,-60.57 -135.42,-87.59l-69.46 -95.17zm-508.8 614.1c-166.32,-56.18 -304.69,-133.91 -399.82,-218.31 -109.74,-97.35 -162.33,-204.3 -133.88,-298.96 28.1,-93.88 131.82,-159.35 277.47,-189.58 63.33,-13.14 134.71,-19.86 211.9,-19.34l-45.53 62.47c-34.26,2.71 -66.71,7.27 -96.99,13.56 -124.22,25.78 -212.67,81.62 -236.64,161.68 -24.27,80.74 20.58,171.94 114.18,254.97 66.26,58.78 157.13,113.78 265.48,158.06l24.79 42.69 19.04 32.76z"/>
    <polygon class="fil0" points="1168.88,1584.57 1779.03,2420.53 1171.28,2967.02 "/>
    <path class="fil3" d="M932.36 2555.79c143.28,57.43 379.13,103.34 588.97,96.46l-73.31 65.92c-165.53,-7.76 -350.54,-40.5 -469.89,-82.93l-45.77 -79.45z"/>
   </g>
  </g>
 </g>
</svg>
