<?xml version="1.0" encoding="UTF-8"?>
<!DOCTYPE svg PUBLIC "-//W3C//DTD SVG 1.1//EN" "http://www.w3.org/Graphics/SVG/1.1/DTD/svg11.dtd">
<!-- Creator: CorelDRAW 2018 (64 Bit Versión de evaluación) -->
<svg xmlns="http://www.w3.org/2000/svg" xml:space="preserve" width="50mm" height="45mm" version="1.1" style="shape-rendering:geometricPrecision; text-rendering:geometricPrecision; image-rendering:optimizeQuality; fill-rule:evenodd; clip-rule:evenodd"
viewBox="0 0 5000 4500"
 xmlns:xlink="http://www.w3.org/1999/xlink">
 <defs>
  <style type="text/css">
   <![CDATA[
    .fil1 {fill:black}
    .fil0 {fill:#005DAA}
   ]]>
  </style>
 </defs>
 <g id="Capa_x0020_1">
  <metadata id="CorelCorpID_0Corel-Layer"/>
  <g id="_2671523042848">
   <path class="fil0" d="M576.08 2337.09c-39.39,0 -58.93,-0.82 -95.66,-19.54 -18.22,-9.29 -26.64,-18.3 -40.46,-29.69 -4.91,-4.04 -7.67,-6.97 -11.88,-11.6l-9.97 -12.19c-25.15,-31.16 -43.35,-80.27 -43.35,-123.44 0,-59.62 5.53,-85.97 35.15,-132.12 9.34,-14.54 31.79,-37.05 45.38,-47.24 54.33,-40.74 127.52,-47.61 187,-16.14 22.27,11.78 37.76,25.82 54.27,43.51 14.19,15.22 29.79,41.81 37.87,60.9 20.28,47.93 22.42,118.43 0.03,166.56 -10.32,22.21 -16.25,33.1 -31.2,50.9 -2.53,3.01 -2.7,4.04 -5.37,7.11 -9.85,11.29 -10.25,9.9 -16.79,16.36 -25.68,25.31 -68.64,46.62 -105.02,46.62zm-306 -224.93l0 2.46 0 2.41c0.01,49.44 0.43,72.49 15.93,122.01 7.56,24.13 21.09,52.95 34.87,72.64l22.66 30.05c23.51,24.81 36.39,38.52 65.53,57.19 33.64,21.56 88.17,40.66 133.46,40.66 53.41,0 81.99,-1.49 131.07,-27.52 13.26,-7.03 35.59,-21.88 46.38,-31.95 3.3,-3.08 5.71,-4.76 8.78,-7.77 5.78,-5.68 10.06,-12.23 16.42,-16.75l0 71.18 99.31 0c3.1,0 4.03,-0.99 4.03,-4.27l0 -582.24c0,-3.28 -0.93,-4.27 -4.03,-4.27l-95.28 0c-6.64,0 -4.03,19.11 -4.03,32.74 0,12.34 0,24.68 0,37.01 -3.67,-2.61 -5.06,-4.93 -8.37,-8.2l-27.29 -23.72c-59.02,-47.19 -147.23,-63.15 -220.96,-45.25 -37.56,9.12 -65.81,20.88 -96.15,44.65 -3.86,3.03 -6.13,4.51 -10.02,7.87 -21.04,18.15 -43.99,42.06 -59.17,65.36 -29.16,44.74 -53.14,106.08 -53.14,165.71z"/>
   <path class="fil0" d="M1887.3 2117.86c0,57.67 5.17,93.74 25.11,142.77 10.3,25.33 23.81,48.02 39.73,68.89l24.11 28.53c4.04,3.62 5.47,4.35 9.36,8.57 38.44,41.62 114.4,75.81 172.8,75.81 54,0 95.13,-7.36 138.25,-29.87 16.51,-8.63 31.58,-18.38 45.8,-29.71 3.58,-2.85 6.29,-4.83 9.99,-7.91 2.43,-2.03 2.78,-2.7 5,-4.67 24.64,-21.98 56.77,-61.04 70.29,-92 26.07,-59.71 32.63,-106.98 32.63,-180.35 0,-3.28 -0.93,-4.27 -4.02,-4.27l-244.26 0 0 92.54 136.89 0c-20.88,95.06 -97.54,159.69 -197.1,149.27 -27.69,-2.89 -56.36,-15.8 -77.23,-30.54 -4.81,-3.4 -8.08,-5.78 -12.46,-9.56 -8.56,-7.39 -14.67,-13.59 -22.25,-21.95l-9.25 -11.55c-22.44,-29.76 -38.71,-78.14 -38.71,-118.38l0 -25.62c0,-53.37 25.23,-105.93 50.67,-132.75 17.14,-18.09 26.41,-27.03 49.99,-39.51 64.92,-34.35 144,-25.27 198.32,25.96 4.8,4.53 5.68,3.78 9.67,9.67 4.29,6.35 3.61,5.83 13.39,5.73l112.8 -0.07c-3.39,-15.42 -36.32,-61.92 -49.97,-76.55 -10.49,-11.25 -20.27,-22.03 -31.89,-31.65 -66.11,-54.73 -160.12,-73.59 -241.06,-52.11 -120.68,32.02 -216.6,160.37 -216.6,291.28z"/>
   <path class="fil0" d="M3469.63 2137.79c0,-73.87 20.91,-132.35 75.14,-176.54 49.98,-40.74 127.53,-48.74 183,-20.41 61.54,31.42 105.56,99.06 105.56,179.86l0 17.09c0,58.3 -24.3,110.65 -52,139.87 -17.23,18.16 -29.07,30.07 -53.12,41.87 -10.68,5.25 -21.21,9.49 -34.1,12.24l-41.88 5.25 -40.88 -5.06c-13.47,-3.31 -24.29,-6.59 -35.27,-12.42 -65.69,-34.88 -106.45,-101.85 -106.45,-181.75zm177.83 -320.31l1.91 0c5.28,0.3 8.62,1.52 16.2,1.42 29.58,-0.35 74.28,12.52 99.77,25.15 15.83,7.85 31.62,16.01 45.56,27.12 7.37,5.89 13.65,10.16 20.7,16.49l18.17 17.73c74.28,78.92 105.76,187.26 79.39,298.45 -4.95,20.91 -10.98,37.51 -17.79,55.16 -6.6,17.1 -15.87,33.97 -25.15,48.76l-23.04 31.09c-27.93,31.67 -49.45,52.77 -88.9,73.69 -43.81,23.22 -77.49,29.89 -131.52,29.89 -59.1,0 -127.38,-27.22 -168.07,-65.16l-26.87 -27.02c-21.78,-23.06 -30.21,-38.64 -45.04,-64.69 -4.92,-8.63 -7.24,-15.34 -11.45,-24.87 -19.93,-45.24 -26.39,-84.49 -26.39,-139.99 0,-65.12 21.21,-121.56 52.88,-170.25 15.4,-23.66 46.98,-58.56 70.85,-75.75 19.12,-13.77 23.21,-16.9 44.48,-28.28 16.12,-8.61 33.59,-15.22 52.16,-20.12 10.52,-2.77 18.69,-4.65 30.49,-6.09l31.66 -2.73z"/>
   <path class="fil0" d="M4175.57 1901.47l0.02 -51.27c0.09,-6.58 1.8,-14.21 -4.05,-14.21l-92.6 0 0 590.78 100.65 0 0 -274.75c0,-55.76 7.09,-115.92 24.59,-153.29 19.78,-42.26 57.25,-68.79 104.25,-68.79 36.58,0 66.57,0.39 96.22,26.07 46.11,39.94 50.07,107.93 50.07,177.5l0 293.26 100.66 0 0 -348.77c0,-65.97 -18.12,-131.44 -50.8,-173.89 -19.79,-25.71 -44.58,-45.92 -73.8,-58.38 -48.45,-20.67 -125.15,-28.32 -180.83,-3.45 -17.75,7.93 -26.27,13.9 -40.65,25.22 -4.81,3.78 -6.79,6.35 -11.69,10.37 -4.5,3.69 -7.05,7.02 -10.97,11.14 -2.02,2.12 -3.48,3.45 -5.3,5.78 -2.44,3.14 -2.74,4.53 -5.77,6.68z"/>
   <path class="fil0" d="M1200.15 2426.77l71.13 0c4.84,0 4.73,-5.65 9.41,-15.64l32.01 -74.24c2.66,-6.98 5.61,-12.11 8.05,-18.51l75.79 -175.85c1.65,-3.77 2.79,-5.59 4.36,-9.62l23.4 -54.9c2.55,-6.09 5.31,-11.98 8.05,-18.5l32.21 -74.03c2.79,-5.97 5.25,-12.48 8.06,-18.5 7.88,-16.93 54.38,-123.11 55,-130.99l-104.68 0c-14.15,28.36 -31.37,77.01 -45.63,108.19l-135.56 326c-4.12,-3.2 -4.11,-6.27 -6.32,-11.8l-117.52 -286.76c-3.91,-9.67 -7,-18.52 -11.26,-27.92 -3.99,-8.81 -7.71,-18.29 -10.99,-26.77l-31.2 -76.53c-1.14,-2.24 -1.5,-4.41 -5.23,-4.41l-100.66 0c-6.71,0 -2.13,5.74 1.72,15.26l30.52 74.4c2.54,5.99 5.51,12.73 7.83,18.73 18.47,47.8 42.48,100.48 61.37,148.45 19.43,49.37 42.41,100.19 61.14,148.68 4.73,12.23 10.35,24.7 15.55,37.6l57.58 139.65c1.76,4.45 1.59,8.01 5.87,8.01z"/>
   <path class="fil0" d="M2897.89 1840.26l0 586.51 398.61 0 0 -102.5c0,-3.27 -0.94,-4.27 -4.03,-4.27l-293.91 0 0 -479.74c0,-3.28 -0.94,-4.27 -4.03,-4.27l-92.61 0c-3.09,0 -4.03,0.99 -4.03,4.27z"/>
   <path class="fil0" d="M1641.7 1840.26l0 582.24c0,3.28 0.93,4.27 4.02,4.27l96.64 0 0 -586.51c0,-3.28 -0.94,-4.27 -4.03,-4.27l-92.61 0c-3.09,0 -4.02,0.99 -4.02,4.27z"/>
   <polygon class="fil0" points="2616.06,2426.77 2715.37,2426.77 2715.37,1835.99 2616.06,1835.99 "/>
   <path class="fil1" d="M2060.43 2607.56l0 170.83c0,6.45 6.88,4.27 21.47,4.27l1.86 -151.44c0.73,1.88 0.74,2.06 1.34,4.27l31.18 107.87c2.17,6.86 3.75,13.42 5.71,19.56 1.97,6.17 4.17,13.46 5.54,19.74l21.48 0 11.59 -38.95c4.24,-13.78 7.33,-25.62 11.38,-39.18 3.72,-12.4 8.07,-26.43 11.76,-38.77 2.08,-6.95 3.57,-12.82 5.7,-19.58l6.54 -20.11 0 156.59 21.48 0 0 -179.37 -36.24 0 -41.61 148.06c-0.18,-0.29 -0.42,-1.11 -0.49,-0.91l-37.25 -128.47c-1.61,-5.52 -3.96,-13.03 -5.2,-18.68 -12.42,0 -36.24,-2.86 -36.24,4.27z"/>
   <path class="fil1" d="M4006.46 2668.78l0 -11.39 -21.47 0 0 121c0,6.08 5.15,4.27 17.45,4.27 6.73,0 4.02,-25.26 4.02,-38.43 0,-14.72 0.06,-29.45 -0.03,-44.17 -0.24,-39.24 37.61,-33.63 37.61,-8.51l0 91.11 20.13 0 0 -78.29c0,-45.6 30.24,-30.78 32.53,-28.81 3.22,2.76 6.39,11.31 6.39,17.42l0 89.68 20.14 0 0 -96.8c0,-41.83 -54.22,-36.3 -59.06,-17.08l-2.68 0c-3.5,-13.89 -30.83,-18.77 -45.42,-9.74 -6.26,3.88 -5.34,6.43 -9.61,9.74z"/>
   <path class="fil1" d="M2979.76 2737.11c0,19.53 -11.48,28.47 -29.52,28.47 -21.28,0 -28.19,-14.29 -28.19,-37.01l-21.47 0c-4.25,19.33 4.58,45.77 25.45,54.14 26.06,10.45 76.55,6.49 76.55,-48.45 0,-52.95 -75.16,-50.82 -75.16,-86.83 0,-8.74 0.74,-15.14 7.03,-21.02 10.72,-10 40.12,-9.72 42.43,15.53 1.18,13 -5.23,11.18 24.36,11.18 0,-34.26 -12.66,-54.1 -46.97,-54.1 -45.56,0 -60.77,44.63 -43.25,74.35 15.8,26.81 68.74,32.93 68.74,63.74z"/>
   <path class="fil1" d="M3754.15 2661.66c0,63.56 -10.25,125.27 55.03,125.27 30.94,0 46.97,-21.23 46.97,-54.09 0,-6.33 -6.27,-4.27 -20.13,-4.27 -8.87,0 1.19,19.88 -13.91,32.23 -8.51,6.96 -34.08,10.93 -41.32,-12.09 -5.61,-17.81 -5.73,-97.59 0.18,-112.7 5.16,-13.2 15.39,-15.63 28.21,-15.63 17.77,0 21.47,14.04 21.47,32.74l22.81 0c0,-16.25 0.6,-32.16 -12.43,-43.75 -17.28,-15.37 -86.88,-25.13 -86.88,52.29z"/>
   <path class="fil1" d="M4167.52 2727.15c0,-19.67 -2.05,-52.65 19.21,-54.96 28.63,-3.1 25.07,35.95 25.07,56.38 0,34.03 -8.26,38.44 -25.5,38.44 -15.34,0 -18.78,-22.73 -18.78,-39.86zm0 102.49l-20.13 0 0 -172.25 20.13 0 0 12.81c3.92,-3.05 4.3,-6.39 10.12,-10.61 13.74,-9.95 55.64,-13.13 55.64,53.32 0,29.4 1,72.6 -37.58,72.6 -19.42,0 -17.84,-6.88 -28.18,-14.24l0 58.37z"/>
   <path class="fil1" d="M4293.67 2767.01c-19.34,0 -21.47,-6.2 -21.47,-27.05 0,-20.41 27.78,-18.51 40.26,-18.51 0,12.75 0.38,45.56 -18.79,45.56zm-36.24 -74.03l18.79 0c0,-18.76 4.83,-21.35 21.48,-21.35 16.99,0 14.76,20.93 14.76,32.74 -26.77,0 -61.74,2.86 -61.74,38.43 0,50.23 38.75,46.42 51.62,37.67 6.64,-4.52 6.83,-7.82 11.46,-13.46l0 15.65 21.48 0c0,-8.11 -1.38,-9.87 -1.39,-18.45 -0.03,-21.72 3.73,-82.57 -7.01,-96.49 -14.28,-18.48 -61.58,-21.19 -71.02,10.78 -0.63,2.1 -1.24,5 -1.53,8.68 -0.3,3.82 -1.55,5.8 3.1,5.8z"/>
   <path class="fil1" d="M2786.5 2767.01c-16.84,0 -21.47,-5.88 -21.47,-24.21 0,-24.11 26.25,-21.35 41.6,-21.35 0,14.55 -1.78,45.56 -20.13,45.56zm-38.92 -79.72l0 5.69 21.47 0c0,-21.69 8.78,-21.35 22.82,-21.35 13.4,0 14.76,18 14.76,32.74 -15.68,0 -33.27,-0.73 -46.46,7.66 -16.51,10.52 -15.27,22.89 -15.27,39.32 0,37.3 42.72,45.01 59.01,19.88l2.72 -4.22 0 15.65 21.48 0 -1.34 -39.86c0,-23.25 3.15,-61.14 -6.83,-75.33 -14.16,-20.13 -72.36,-20.34 -72.36,19.82z"/>
   <path class="fil1" d="M1942.33 2767.01c-15.92,0 -21.48,-4.51 -21.48,-25.63 0,-21.97 29.02,-19.93 41.61,-19.93 0,17.97 -2.33,45.56 -20.13,45.56zm-38.92 -74.03l21.47 0c0,-20.67 8.88,-21.35 22.81,-21.35 15.11,0 14.77,21.27 14.77,32.74 -16.48,0 -32.13,-0.77 -46.45,7.67 -25.37,14.95 -19.75,73.47 14.24,73.47 7.73,0 15.65,-0.73 21.73,-5.41 4.44,-3.42 7.03,-8.98 10.48,-11.67l0 14.23 21.47 0c0,-13.74 -1.34,-24.69 -1.34,-39.86 0,-61.59 7.79,-88.26 -44.29,-88.26 -9.7,0 -20.73,4.75 -25.61,9.85 -6.31,6.6 -9.28,15.39 -9.28,28.59z"/>
   <path class="fil1" d="M2613.37 2714.33c0,-60.37 37.15,-41.26 41.88,-34.45 9.54,13.7 12.46,87.13 -12.35,87.13 -13.5,0 -21.79,0.89 -26.3,-17.67 -2.05,-8.44 -3.23,-25.06 -3.23,-35.01zm21.47 71.18c47.17,0 48.32,-31.53 48.32,-74.02 0,-39.67 -13.62,-56.95 -48.32,-56.95 -26.38,0 -36.92,15.97 -40.88,39.21 -2.2,12.96 -2.41,36.88 0.01,51.13 1.47,8.68 3.02,15.14 6.37,21.71 6.11,11.99 17.55,18.92 34.5,18.92z"/>
   <path class="fil1" d="M2434.87 2720.03c0,-20.74 -0.63,-48.07 24.16,-48.07 24.2,0 24.16,26 24.16,46.64 0,46.03 -8.88,48.41 -29.53,48.41 -16.32,0 -18.79,-28.56 -18.79,-46.98zm-21.47 0c0,45.27 10.75,65.48 48.32,65.48 7.58,0 15.8,-1.82 21.07,-4.69 20.08,-10.9 21.87,-39.74 21.87,-63.64 0,-44.07 -11.72,-62.64 -48.31,-62.64 -35.36,0 -42.95,28.1 -42.95,65.49z"/>
   <path class="fil1" d="M2289.93 2767.01c-10.14,0 -18.37,1.05 -23.61,-14.83 -4.78,-14.5 -5.69,-58.23 2.64,-71.48 6.49,-10.3 30.1,-14.82 38.03,4.15 4.91,11.74 12.17,82.16 -17.06,82.16zm-48.32 -54.1c0,42.42 2.06,72.6 48.32,72.6 27.28,0 36.11,-15.86 40.42,-38.27 4.04,-20.97 3.35,-56.3 -5.28,-73.03 -14.01,-27.17 -61.33,-25.22 -74.37,-2.91 -6.23,10.68 -9.09,24.85 -9.09,41.61z"/>
   <path class="fil1" d="M3072.37 2767.01c-17.12,0 -28.19,-2.34 -28.19,-38.44 0,-18.44 -3,-51.12 16.22,-55.45 16.02,-3.6 25.76,2.65 29.5,16.92 3.79,14.47 1.59,29.74 1.27,45.67 -0.29,14.31 -5.52,31.3 -18.8,31.3zm-49.66 -55.52c0,21.1 -1.09,40.63 9.61,58.13 12.54,20.49 59.56,23.74 73.21,-3.03 5.61,-11.01 8.72,-34.03 8.38,-46.48 -0.14,-5.04 -1.15,-4.85 -1.31,-11.44 -0.63,-27 -8.55,-54.13 -40.23,-54.13 -15.88,0 -31.07,1.11 -40.87,16.44 -5.81,9.07 -8.79,25.75 -8.79,40.51z"/>
   <path class="fil1" d="M3923.25 2767.01c-10.13,0 -18.36,1.05 -23.6,-14.83 -4.79,-14.5 -5.7,-58.23 2.64,-71.48 5.51,-8.75 42.44,-25.3 42.44,32.21 0,19.62 0.2,54.1 -21.48,54.1zm-48.31 -54.1c0,42.42 2.05,72.6 48.31,72.6 27.28,0 36.11,-15.86 40.43,-38.27 4.03,-20.97 3.34,-56.3 -5.28,-73.03 -14.01,-27.17 -61.34,-25.22 -74.37,-2.91 -6.23,10.68 -9.09,24.85 -9.09,41.61z"/>
   <path class="fil1" d="M3413.26 2729.99c0,-25.65 -4.23,-55.15 22,-57.84 7.86,-0.8 14.87,2.18 18.83,7.41 8.47,11.17 6.14,37.08 6.14,53.28 0,32.97 -12.64,34.17 -28.18,34.17 -14.63,0 -18.79,-20.81 -18.79,-37.02zm-21.47 -19.93c0,21.32 -1.34,42.94 9.93,60.64 12.44,19.54 54.9,20.24 69.49,0.83 14.68,-19.52 14.4,-84.58 0.75,-102.38 -15.57,-20.29 -56.71,-19.83 -70.83,1 -6.01,8.87 -9.34,24.39 -9.34,39.91z"/>
   <path class="fil1" d="M4500.35 2829.64l53.69 -172.25 -22.82 0c-0.53,6.75 -10.83,41.12 -13.26,49.99 -2.3,8.4 -4.52,16.23 -6.71,24.2 -2.42,8.83 -4.92,16.56 -6.87,25.46 -0.19,-0.28 -0.43,-1.09 -0.5,-0.89l-1.65 -3.95c-0.72,-2.29 -1.29,-5.12 -1.72,-6.71l-24.31 -88.1 -22.82 0c1.11,14.11 40.22,117.83 38.25,128.7 -0.78,4.29 -2.22,7.8 -3.19,10.99l-9.56 32.56 21.47 0z"/>
   <path class="fil1" d="M3523.31 2671.63l0 -14.24 -21.47 0 0 121c0,6.08 5.15,4.27 17.44,4.27 6.21,0 4.05,-11.36 4.03,-18.5l0.14 -68.19c3.16,-31.64 42.81,-32.23 42.81,-2.99l0 89.68 20.13 0 0 -92.53c0,-43.16 -39.76,-38.5 -51.85,-30.8 -5.14,3.27 -5.35,4.64 -8.78,9.2l-2.45 3.1z"/>
   <path class="fil1" d="M3177.05 2748.5c0,41.75 39.1,49.19 63.08,19.93l0 14.23 21.47 0c-0.13,-6.43 -1.34,-5.65 -1.34,-12.81l0 -112.46 -20.13 0 0 79.72c0,41.11 -41.61,39.1 -41.61,11.39l0 -91.11 -21.47 0 0 91.11z"/>
   <path class="fil1" d="M3607.86 2685.86c0,20.53 7.36,26.97 25.07,37.47 16.87,10 32.64,10.39 32.64,29.44 0,18.3 -37.58,21.08 -37.58,-1.42l0 -7.12 -24.15 0c2.26,28.84 13.78,41.28 42.94,41.28 11.51,0 21.4,-3.13 28.06,-8.67 15.56,-12.93 17.66,-42 -0.41,-56.25 -8.37,-6.6 -14.01,-8.87 -23.61,-13.39 -41.35,-19.49 -14.99,-35.57 -8.06,-35.57 9.84,0 21.47,-1.32 21.47,19.92 24.82,0 24.65,2.4 21.21,-12.48 -8.57,-37.07 -77.58,-30.84 -77.58,6.79z"/>
   <path class="fil1" d="M4378.22 2673.05l0 -15.66 -21.47 0c3.2,14.58 1.34,103.33 1.34,125.27l20.13 0 0 -66.9c0,-17.76 1.72,-36.99 14.34,-41.75 6.67,-2.53 15.55,-2.76 21.42,0.97 6,3.83 8.53,11.2 8.53,20.85l0 86.83 20.13 0 0 -91.11c0,-48.42 -47.84,-41.45 -59.29,-25.87l-5.13 7.37z"/>
   <path class="fil1" d="M3292.47 2636.04l0 21.35 -20.13 0 0 15.66 20.13 0 0 89.68c0,23 24.1,22.99 39.44,20.48 8.34,-1.36 7.53,0.77 7.53,-13.36 0,-9.25 -12.37,1.67 -22.29,-6.25 -2.32,-1.85 -4.55,-6.9 -4.55,-10.83l0 -79.72 25.5 0 0 -15.66 -25.5 0 0 -32.74c-2.23,0.19 -20.13,5.64 -20.13,11.39z"/>
   <path class="fil1" d="M2359.72 2636.04l0 21.35 -20.13 0 0 15.66 20.13 0 0 92.53c0,25.53 37.49,17.08 45.63,17.08l0 -17.08c-7.68,0 -9.14,2.26 -16.19,0.16 -5.55,-1.65 -9.31,-4.32 -9.31,-11.55l0 -81.14 25.5 0 0 -15.66 -25.5 0 0 -32.74c-4.15,0.36 -7.35,2.13 -11.15,3.84 -3.56,1.59 -8.98,3.21 -8.98,7.55z"/>
   <path class="fil1" d="M2703.29 2607.56l0 170.83c0,6.08 5.15,4.27 17.45,4.27 3.09,0 4.03,-0.99 4.03,-4.27l0 -170.83c0,-6.07 -5.16,-4.27 -17.45,-4.27 -3.09,0 -4.03,1 -4.03,4.27z"/>
   <polygon class="fil1" points="3134.1,2782.66 3154.23,2782.66 3154.23,2603.29 3134.1,2603.29 "/>
   <path class="fil0" d="M4668.12 1840.26l0 75.45c0,4.83 2.35,4.27 6.71,4.27 6.57,0 4.02,-14.53 4.02,-28.47 0,-11.39 0,-22.78 0,-34.17l22.73 57.04c1.74,4.16 1.47,5.13 6.8,5.6l23.39 -60.61c1.62,-3.38 0.49,-1.48 2.11,-3.45l0 64.06c7.6,0 10.73,1.12 10.73,-4.27l0 -75.45c0,-5.54 -3.44,-4.27 -12.07,-4.27 -4.78,0 -4.44,5.18 -7.68,13.21l-17.82 46.58c-8.48,-6.59 -19.56,-59.79 -28.19,-59.79 -7.6,0 -10.73,-1.12 -10.73,4.27z"/>
   <path class="fil1" d="M2544.93 2674.47l0 -17.08 -20.14 0 0 125.27 20.14 0c0,-18.33 -2.37,-80.9 4.04,-93.93 7.49,-15.22 17.97,-12.83 33.53,-12.83l0 -21.36c-24.5,0 -26.5,2.71 -35.87,17.47 -1.43,2.24 -0.47,0.95 -1.7,2.46z"/>
   <polygon class="fil1" points="3351.52,2782.66 3371.65,2782.66 3371.65,2657.39 3351.52,2657.39 "/>
   <path class="fil0" d="M4596.98 1840.26l0 7.12 24.16 0 0 68.33c0,6.16 10.74,6.16 10.74,0l0 -68.33 24.15 0 0 -11.39 -55.02 0c-3.09,0 -4.03,0.99 -4.03,4.27z"/>
   <polygon class="fil1" points="3350.18,2626.07 3372.99,2626.07 3372.99,2603.29 3350.18,2603.29 "/>
  </g>
 </g>
</svg>
