<?xml version="1.0" encoding="UTF-8"?>
<!DOCTYPE svg PUBLIC "-//W3C//DTD SVG 1.1//EN" "http://www.w3.org/Graphics/SVG/1.1/DTD/svg11.dtd">
<!-- Creator: CorelDRAW 2018 (64 Bit Versión de evaluación) -->
<svg xmlns="http://www.w3.org/2000/svg" xml:space="preserve" width="50mm" height="45mm" version="1.1" style="shape-rendering:geometricPrecision; text-rendering:geometricPrecision; image-rendering:optimizeQuality; fill-rule:evenodd; clip-rule:evenodd"
viewBox="0 0 5000 4500"
 xmlns:xlink="http://www.w3.org/1999/xlink">
 <defs>
  <style type="text/css">
   <![CDATA[
    .fil0 {fill:#0086CC;fill-rule:nonzero}
   ]]>
  </style>
 </defs>
 <g id="Capa_x0020_1">
  <metadata id="CorelCorpID_0Corel-Layer"/>
  <g id="_1721633702224">
   <path class="fil0" d="M3207.52 2331.79l181.38 0 0 152.8 -363.84 0 0 -522.48 182.46 0 0 369.68zm-594.76 -28.83l0 0 -299.88 235.9 -274.2 -215.64c-39.45,94.96 -134.75,161.25 -245.06,161.25l-234.34 0 0 -522.36 234.34 0c123.11,0 211.64,77.81 244.94,161.28l274.32 -215.58 101.64 79.93 -251.18 197.53 48.08 37.86 251.24 -197.56 101.64 79.93 -251.21 197.46 48.18 37.87 251.49 -197.47 0 -181.25 182.31 0 0 369.49 181.5 0 0 152.99 -363.81 0 0 -181.63zm-724.12 -79.73l0 0c0,-71.05 -46.93,-111.09 -113.22,-111.09l-40.69 0 0 222.23 39.63 0c61.6,0 114.28,-33.74 114.28,-111.14z"/>
   <path class="fil0" d="M2463.18 1018.43c-670.63,0 -1214.36,543.7 -1214.36,1214.35 0,670.75 543.73,1214.48 1214.36,1214.48 670.74,0 1214.44,-543.73 1214.44,-1214.48 0,-670.65 -543.7,-1214.35 -1214.44,-1214.35zm0 2297.37l0 0c-598.13,0 -1083.02,-484.86 -1083.02,-1083.02 0,-598.12 484.89,-1083.05 1083.02,-1083.05 598.21,0 1083.1,484.93 1083.1,1083.05 0,598.16 -484.89,1083.02 -1083.1,1083.02z"/>
  </g>
 </g>
</svg>
