<?xml version="1.0" encoding="UTF-8"?>
<!DOCTYPE svg PUBLIC "-//W3C//DTD SVG 1.1//EN" "http://www.w3.org/Graphics/SVG/1.1/DTD/svg11.dtd">
<!-- Creator: CorelDRAW 2018 (64 Bit Versión de evaluación) -->
<svg xmlns="http://www.w3.org/2000/svg" xml:space="preserve" width="50mm" height="45mm" version="1.1" style="shape-rendering:geometricPrecision; text-rendering:geometricPrecision; image-rendering:optimizeQuality; fill-rule:evenodd; clip-rule:evenodd"
viewBox="0 0 5000 4500"
 xmlns:xlink="http://www.w3.org/1999/xlink">
 <defs>
  <style type="text/css">
   <![CDATA[
    .fil0 {fill:#558BC8}
   ]]>
  </style>
 </defs>
 <g id="Capa_x0020_1">
  <metadata id="CorelCorpID_0Corel-Layer"/>
  <path id="HP-Inc-logo.eps" class="fil0" d="M3372.39 1847.37l-232.09 0 -325.02 891.77 232.1 0 325.01 -891.77zm-881.89 1903.29c-14.48,0 -28.91,-0.26 -43.31,-0.68l297.87 -818.63 409.93 0c71.95,0 150.93,-55.31 175.55,-122.89l323.16 -887.65c52.87,-145.33 -30.37,-264.22 -185.01,-264.22l-568.7 0 -477.17 1311.2 -0.18 0 -270.51 743.29c-641.78,-152.57 -1119.15,-729.49 -1119.15,-1417.94 0,-668.62 450.22,-1232.02 1064.02,-1403.73l-279.13 767.18 -0.08 0 -464.03 1274.76 308.91 0.03 394.61 -1083.24 232.16 0 -394.62 1083.24 308.78 0.05 367.75 -1010.62c52.9,-145.33 -30.35,-264.22 -184.85,-264.22l-259.66 0 298.16 -819.46c21.73,-0.96 43.55,-1.53 65.5,-1.53 804.98,0 1457.53,652.56 1457.53,1457.54 0,804.95 -652.55,1457.52 -1457.53,1457.52z"/>
 </g>
</svg>
