<?xml version="1.0" encoding="UTF-8"?>
<!DOCTYPE svg PUBLIC "-//W3C//DTD SVG 1.1//EN" "http://www.w3.org/Graphics/SVG/1.1/DTD/svg11.dtd">
<!-- Creator: CorelDRAW 2018 (64 Bit Versión de evaluación) -->
<svg xmlns="http://www.w3.org/2000/svg" xml:space="preserve" width="50mm" height="45mm" version="1.1" style="shape-rendering:geometricPrecision; text-rendering:geometricPrecision; image-rendering:optimizeQuality; fill-rule:evenodd; clip-rule:evenodd"
viewBox="0 0 5000 4500"
 xmlns:xlink="http://www.w3.org/1999/xlink">
 <defs>
  <style type="text/css">
   <![CDATA[
    .fil0 {fill:#EF0000}
   ]]>
  </style>
 </defs>
 <g id="Capa_x0020_1">
  <metadata id="CorelCorpID_0Corel-Layer"/>
  <g id="_2671525185792">
   <path class="fil0" d="M2769.44 2502.13c0,27.28 -9.12,50.79 -20.12,69.61 -12.48,21.35 -23.3,31.22 -42.93,44.36 6.07,-26.04 22,-33.54 1.69,-74.44 -40.77,-82.1 -161.74,-42.8 -161.74,40.49 0,29.53 14.51,59.58 29.61,74.67 46.35,46.33 128.66,31.51 177.05,1.04 30.38,-19.14 44.98,-40.41 58.04,-72.91l216.76 -544.69c0.72,-1.79 1.24,-3.33 2.15,-5.12 2.93,-5.75 0.89,-2.52 3.82,-5.88l68.8 236.73c6.54,20.06 10.44,38.12 16.98,58.2l52.44 180.37 150.35 0 82.45 -283.73c7.03,5.16 4.23,5.18 7.05,14.78 2.02,6.91 3.54,10.92 5.99,18.26l70.32 218.24c2.29,6.86 4.22,12.66 5.96,18.3 2.3,7.47 2.13,14.15 10.1,14.15l130.95 0c9.95,0 16.01,-39.79 20.37,-57.23l105.82 -418.57c1.37,-5.57 3.77,-9.2 -4.94,-9.2l-75.17 0c-9.12,0 -8.13,10.57 -12.13,26.67l-58.2 220.67c-6.33,-27.17 -62.52,-187.1 -77.75,-235.07 -2.09,-6.59 -1.61,-12.27 -9.55,-12.27l-140.65 0c-9.08,0 -11.03,18.27 -13.71,27.51 -3.34,11.57 -5.59,20.71 -8.95,32.27 -6.71,23.07 -12.28,43.5 -18.85,66.03l-35.93 124.12c-2.79,6.48 -0.45,1.63 -2.58,4.69 -4.94,-21.2 -11.5,-41.14 -17.5,-62.52l-55.25 -192.1 -264.32 0c-4.17,17.87 -85.52,209.9 -89.73,227.95 -6.76,-4.95 -9.13,-17.27 -12.49,-26.31l-66.83 -175.68c-3.4,-8.72 -6.3,-25.96 -15.25,-25.96l-206.13 0c0.26,11.64 6.3,19.84 10.73,30.5 4.2,10.09 8.15,18.3 12.69,28.52 9.1,20.46 17.03,39.12 25.43,59.45l75.65 178.97c11.81,26.42 69.5,165.28 69.5,185.13z"/>
   <path class="fil0" d="M325.05 2499.7l203.7 0 0 -291 150.35 0 0 283.73c0,5.59 1.68,7.27 7.27,7.27l203.7 0c5.59,0 7.28,-1.68 7.28,-7.27l0 -649.9 -218.25 0 0 271.6 -150.35 0 0 -271.6 -203.7 0 0 657.17z"/>
   <path class="fil0" d="M1719.42 2058.36c0,-8.16 0.01,-16.25 0.14,-24.39 0.16,-10.3 2.4,-19.26 -7.42,-19.26l-172.17 0c-5.59,0 -7.27,1.68 -7.27,7.27l0 470.45c0,5.59 1.68,7.27 7.27,7.27l172.17 0c11.89,0 7.28,-27.53 7.28,-50.92 0,-42.66 -2.02,-283.29 0.47,-295.37 4.93,-23.8 121.54,-91.28 120.81,23.74l-0.12 300.82c-0.17,10.79 -2.86,21.73 7.36,21.73l172.18 0c5.59,0 7.27,-1.68 7.27,-7.27l0 -329.8c0,-51.33 -20.33,-87.67 -47.9,-112.14 -29,-25.74 -77.5,-45.48 -117,-45.48 -58.92,0 -107.51,29.54 -143.07,53.35z"/>
   <path class="fil0" d="M1139.85 2269.33c0,-60.95 -6.36,-203.7 67.9,-203.7 56.17,0 63.04,94.8 63.04,138.23 0,62.52 13.24,249.77 -58.19,249.77 -65.51,0 -72.75,-112.03 -72.75,-184.3zm-198.85 -24.25c0,88.75 11.74,145.98 72.14,206.73 21.03,21.16 45.35,36.11 75.06,48.61 78.49,33.03 184.67,27.59 259.73,-13.31 25.25,-13.76 34.35,-21.74 56.22,-40.77 14.59,-12.7 30.5,-36.44 40.84,-53.74 31.04,-51.89 37.89,-133.43 25.67,-192.18 -3.9,-18.7 -9.24,-35.48 -15.18,-50.29 -3.65,-9.1 -5.79,-13.13 -10.55,-20.99 -12.08,-19.93 -23.21,-39.83 -42.59,-56.82 -4.02,-3.52 -4.58,-3.42 -8.21,-6.35 -3.78,-3.05 -5.24,-4.9 -9,-7.97 -38.61,-31.57 -87.69,-49.79 -137.48,-58.95 -27.08,-4.99 -61.32,-2.7 -89.46,2.48 -118.33,21.8 -217.19,119.35 -217.19,243.55z"/>
   <path class="fil0" d="M4020.74 2065.63c38.12,0 60.91,2.96 72.61,58.34 3.57,16.91 1.23,33.73 3.96,51.81l3.45 54.75 -145.5 0 6.19 -107.78c5.6,-27.53 28.64,-57.12 59.29,-57.12zm-252.2 201.27c0,39.24 8.78,75.03 19.71,103.97 12.5,33.12 28.17,52.38 48.9,77.2 35.75,42.79 114.61,78.31 171.46,78.31 71.58,0 128.73,-5.86 191.72,-43.5 32.14,-19.21 55.3,-40.53 71.84,-73.67 3.4,-6.82 23.44,-45.3 5.62,-45.3 -113.42,0 -72.61,-8.41 -94.47,34.05 -17.57,34.1 -62.64,58.1 -101.96,58.1 -36.88,0 -54.86,-0.13 -88.33,-23.23 -42.93,-29.63 -32.92,-76.59 -32.92,-134.4l334.65 0c0,-61.96 1.96,-94.24 -24.27,-152.75 -16,-35.67 -30.22,-50.74 -55.15,-75.81 -69.49,-69.9 -203.61,-91.28 -297.29,-46.3 -15.18,7.28 -28.31,14.79 -41.11,24.37 -67.7,50.65 -108.4,130.42 -108.4,218.96z"/>
   <path class="fil0" d="M2330.52 2065.63c39.68,0 59.51,11.28 68.63,57.47l6.54 107.43 -145.5 0c0,-13.17 4.04,-94.25 7.68,-108.72 7.55,-30.05 24.67,-56.18 62.65,-56.18zm-254.63 186.73c0,69.18 5.76,112.61 46.08,169.74l43.08 46.65c36.97,33.25 100.93,57.63 153.34,57.63 72.7,0 127.86,-8.09 185.72,-42.24 76.82,-45.33 100.09,-120.23 78.61,-120.23 -79.77,0 -80.36,-7.28 -86.53,15.32 -12.66,46.41 -62.76,76.83 -109.9,76.83 -44.18,0 -89.56,-10.23 -110.84,-49.21 -15.47,-28.36 -10.41,-69.89 -10.41,-108.42l334.65 0c0,-64.53 3.15,-97.7 -25.82,-158.47 -13.65,-28.62 -21.99,-35.38 -38.25,-56.33 -4.7,-6.05 -9.96,-11.45 -15.59,-15.93 -25.37,-20.23 -41.38,-35.47 -77.63,-48.48 -117.45,-42.16 -249.01,-14.29 -318.52,89.55 -27.09,40.48 -47.99,88.81 -47.99,143.59z"/>
   <polygon class="fil0" points="4333.56,2499.7 4522.71,2499.7 4522.71,1842.53 4333.56,1842.53 "/>
   <polygon class="fil0" points="4580.91,2499.7 4770.06,2499.7 4770.06,1842.53 4580.91,1842.53 "/>
  </g>
 </g>
</svg>
