<?xml version="1.0" encoding="UTF-8"?>
<!DOCTYPE svg PUBLIC "-//W3C//DTD SVG 1.1//EN" "http://www.w3.org/Graphics/SVG/1.1/DTD/svg11.dtd">
<!-- Creator: CorelDRAW 2018 (64 Bit Versión de evaluación) -->
<svg xmlns="http://www.w3.org/2000/svg" xml:space="preserve" width="50mm" height="45mm" version="1.1" style="shape-rendering:geometricPrecision; text-rendering:geometricPrecision; image-rendering:optimizeQuality; fill-rule:evenodd; clip-rule:evenodd"
viewBox="0 0 5000 4500"
 xmlns:xlink="http://www.w3.org/1999/xlink">
 <defs>
  <style type="text/css">
   <![CDATA[
    .fil0 {fill:#295F92}
   ]]>
  </style>
 </defs>
 <g id="Capa_x0020_1">
  <metadata id="CorelCorpID_0Corel-Layer"/>
  <g id="_2671664414944">
   <path class="fil0" d="M435.82 2247.1l0 204.62 -94.44 0c0,-76.75 -10.98,-245.01 23.82,-296.23 51.83,-76.31 222.77,-75.53 222.77,70.62l0 225.61 -94.44 0 0 -220.36c0,-44.61 -57.71,-47.44 -57.71,15.74zm367.27 31.48c0,24.61 74.68,133.37 83.94,173.14l-94.44 0c-11.8,-22.31 -29.03,-70.62 -47.22,-83.95 -9.74,18.41 -31.91,63.27 -36.72,83.95l-94.44 0c5.73,-24.62 84.36,-150.1 87.07,-164.91 3.8,-20.8 -72.68,-131.62 -81.83,-170.87l94.44 0 38.58 77.78c17.62,-4.29 13.6,-9.98 22.2,-32.75 7.23,-19.18 13.85,-27.55 17.92,-45.03l94.44 0c-10,18.9 -83.94,153.75 -83.94,162.64zm-619.11 -267.58l0 493.19c0,18.61 57.36,31.54 86.16,39.76 158.93,45.38 447.37,104.23 579.01,-25.18 52.03,-51.15 19.86,-55.69 58.87,-56.56 -27.28,-51.55 31.67,-54.41 -26.9,-209.19 -25.01,-66.08 -36.88,-34.64 0.66,-105.61 39.77,29.14 125.93,196.96 125.93,278.08l0 26.23c0,132.42 -141.58,199.37 -278.08,199.37 -197.99,0 -315.49,-36.96 -487.15,-100.47 -15.96,-5.9 -38.97,-18.58 -58.5,-20.2 0,97.77 82.55,183.63 178.39,183.63l529.91 0c26.92,0 52.14,-8.08 71.87,-17.32 67.41,-31.53 106.52,-96.14 106.52,-171.56l0 -503.68c0,-60.31 -23.28,-100.99 -55.54,-133.34 -0.76,-0.77 -1.87,-1.85 -2.65,-2.6 -26.33,-25.43 -63.97,-47.08 -104.21,-47.94 -115.94,-2.45 -235.42,0.25 -351.78,0.25l133.41 107.94c10.48,8.2 10.39,7.15 20.16,16.56 12.87,12.4 20.9,22.81 34.53,33.68 16.18,12.91 21.33,17.07 36.25,31.96 12.83,12.79 60.88,64.92 64.22,77.44l-47.22 0c-23.84,-35.6 -118.23,-146.82 -155.19,-175.35l-71.73 -64.68c-7.19,-6.75 -31.2,-27.55 -40.66,-27.55l-188.88 0c-78.56,0 -157.4,90.87 -157.4,173.14z"/>
   <path class="fil0" d="M2697.13 2651.09l209.86 0 0 -498.43c92.78,0 104.94,-2.72 104.94,62.96 0,15.57 -16.97,26.43 -27.19,30.52 -15.82,6.35 -30.78,6.21 -51.51,6.21 0,194.16 -15.9,156.85 73.45,341.03 9.32,19.21 16.29,38.91 26.23,57.71l215.12 0c-1.86,-22.33 -71.4,-178.1 -85.44,-213.62 -9.04,-22.87 -19.65,-50.16 -29.99,-69.7 83.82,-56.12 116.55,-174.27 77.08,-260.71 -42.92,-94.03 -117.66,-143.28 -229.23,-143.28l-283.32 0 0 687.31z"/>
   <path class="fil0" d="M1590.08 2651.09l209.87 0 0 -503.68c42.36,0 83.95,1.15 83.95,36.73 0,37.48 -33.54,36.73 -57.72,36.73l0 173.14c0,36.79 94.44,-6.09 94.44,47.22 0,40.46 -53.66,31.48 -94.44,31.48l0 178.38c80.61,0 148.87,9.63 211.2,-45.89 31.16,-27.76 51.67,-61.28 60.28,-107.63 19.14,-103.05 -19.01,-168.99 -103.58,-213.74 10.14,-13.85 14.25,-10.21 27.14,-25.32 6.36,-7.46 16.49,-21.4 21.84,-30.63 58.16,-100.28 24.4,-264.1 -180.15,-264.1l-272.83 0 0 687.31z"/>
   <path class="fil0" d="M3310.99 2199.88l0 451.21 209.86 0 0 -456.45c0,-54.69 83.95,-64.95 83.95,15.73l0 440.72 209.87 0 0 -419.73c0,-113.45 -25,-202.08 -112.25,-255.02 -52.35,-31.77 -101.51,-28.3 -160.58,-28.3 -130.03,0 -230.85,109.07 -230.85,251.84z"/>
   <path class="fil0" d="M4517.72 2304.82l-188.88 346.27 215.11 0c13.67,-28.49 55,-143.88 73.45,-157.4l78.7 157.4c47.87,0 183.92,-9.72 215.12,5.25 -3.33,-39.97 -178.39,-336.22 -178.39,-356.77l129.48 -248.28c14.4,-25.72 36.86,-58.33 43.66,-87.51l-209.87 0 -68.2 146.91c-6.21,-26.66 -24.21,-52.55 -36.5,-73.69 -13.44,-23.13 -24.38,-49.45 -36.96,-73.22l-215.11 0c5.15,22.13 28.37,56.57 41.98,83.94 15.16,30.53 29.93,54.34 45.47,85.69l90.94 171.41z"/>
   <path class="fil0" d="M2177.71 2178.89l0 246.6c0,68.37 17.55,128.01 51.04,164.07 14,15.09 41.8,33.36 62.75,42.18 71.56,30.11 193.9,19.35 284.96,19.35l0 -199.37 -173.14 0c-32.64,0 -18.72,-44.95 -15.74,-57.71 79.41,-18.5 178.38,14.11 178.38,-20.99l0 -141.66c-67.21,0 -173.14,14.52 -173.14,-36.72 0,-45.75 128.84,-31.49 183.64,-31.49l0 -199.37c-122.61,0 -274.51,-21.1 -347.68,61.57 -32.36,36.55 -51.07,86.66 -51.07,153.54z"/>
   <path class="fil0" d="M3909.1 2236.61c0,107.25 -13.07,267.58 41.13,336.64 18.34,23.37 37.07,41.07 65.44,55.22 68.42,34.15 202.66,22.62 292.18,22.62l0 -199.37c-53.25,0 -140.75,5.97 -188.88,-5.25 -10.29,-44.18 -6.41,-32.47 10.49,-57.71 29.74,0 59.47,-0.02 89.2,0 95.93,0.07 78.7,30.22 78.7,-157.4 -46.36,0 -167.9,11.94 -167.9,-26.23 0,-22.62 -1.59,-41.98 47.22,-41.98l131.17 0 0 -199.37c-248.05,0 -398.75,-33.69 -398.75,272.83z"/>
   <path class="fil0" d="M1254.3 2651.09l209.86 0 0 -671.57c0,-12.09 -3.65,-15.74 -15.74,-15.74l-194.12 0 0 687.31z"/>
  </g>
 </g>
</svg>
