<?xml version="1.0" encoding="UTF-8"?>
<!DOCTYPE svg PUBLIC "-//W3C//DTD SVG 1.1//EN" "http://www.w3.org/Graphics/SVG/1.1/DTD/svg11.dtd">
<!-- Creator: CorelDRAW 2018 (64 Bit Versión de evaluación) -->
<svg xmlns="http://www.w3.org/2000/svg" xml:space="preserve" width="50mm" height="40mm" version="1.1" style="shape-rendering:geometricPrecision; text-rendering:geometricPrecision; image-rendering:optimizeQuality; fill-rule:evenodd; clip-rule:evenodd"
viewBox="0 0 5000 4000"
 xmlns:xlink="http://www.w3.org/1999/xlink">
 <defs>
  <style type="text/css">
   <![CDATA[
    .str0 {stroke:#373435;stroke-width:50;stroke-miterlimit:22.9256}
    .fil2 {fill:none}
    .fil1 {fill:#0162AC}
    .fil0 {fill:#AE0C41}
   ]]>
  </style>
 </defs>
 <g id="Capa_x0020_1">
  <metadata id="CorelCorpID_0Corel-Layer"/>
  <g id="_2434275392096">
   <path class="fil0" d="M927.54 2237.57c5.72,-31.73 11.93,-63.37 17.07,-95.2 12.36,-76.72 -28.48,-145.96 -103.62,-163.15 -61.97,-14.17 -126.14,-18.66 -189.27,-27.88 -57.39,-8.39 -116.75,-10.71 -171.54,-27.65 -84.01,-25.96 -146.47,-78.39 -156.37,-174.38 -4.83,-46.84 7.23,-89.75 38.99,-123.37 68.6,-72.59 139.68,-142.85 210.09,-213.72 23.39,-23.55 60.1,-21.61 83.77,1.86 70.9,70.28 142.6,139.75 213.34,210.18 46.84,46.64 92.15,94.83 138.92,141.56 43.85,43.79 89.89,85.44 132.59,130.31 18.69,19.65 44.33,34.74 48.59,66.77 5.69,42.83 -26.45,61.48 -50.59,84.92 -48.51,47.12 -98.13,93.12 -147.41,139.44 -19.65,18.46 -39.62,36.58 -59.45,54.86 -1.7,-1.52 -3.4,-3.03 -5.11,-4.55z"/>
  </g>
  <g id="_2434275392288">
   <path class="fil1" d="M308.1 1975.39c-3.46,18.15 -7.18,32.25 -8.63,46.59 -2.01,19.88 -3.43,39.96 -3.11,59.92 0.77,48.83 42.03,76.92 81.17,87.55 53.63,14.58 108.69,16.86 163.85,18.57 47.88,1.47 92.75,14.18 132.96,40.56 39.44,25.87 61.37,64.35 63.68,110.14 1.44,28.4 -12.27,56.01 -31.84,77.99 -22.68,25.45 -46.71,49.7 -70.67,73.98 -25.96,26.31 -52.42,52.14 -78.85,77.98 -10.45,10.22 -40.99,11.54 -51.59,1.28 -28.74,-27.8 -56.8,-56.28 -85.06,-84.57 -23.03,-23.05 -45.95,-46.2 -68.92,-69.31 -34.22,-34.42 -68.28,-69 -102.68,-103.24 -32.38,-32.22 -65.2,-63.99 -97.65,-96.15 -8.09,-8.01 -16.12,-16.27 -23.03,-25.29 -9.81,-12.78 -9.53,-31.66 2.06,-44.69 14.37,-16.17 30.25,-31.05 45.95,-46 42.92,-40.9 86.09,-81.54 132.36,-125.31z"/>
  </g>
  <g id="_2434275390080">
   <path class="fil1" d="M2824.93 2031.11c0,-82.72 0.05,-165.44 -0.01,-248.16 -0.04,-37.01 8.25,-47.25 44.88,-53.95 15.14,-2.77 30.31,-5.74 45.59,-7.32 65.79,-6.82 112.62,22.71 152.88,73.14 41.63,52.15 89.15,99.6 134.03,149.16 19.43,21.47 37.91,43.92 58.54,64.16 6.8,6.68 21.52,13.14 28.12,10.07 7.2,-3.35 12.71,-17.85 12.86,-27.58 1.07,-68.11 0.46,-136.25 0.62,-204.37 0.09,-42.16 8.46,-49.3 49.02,-57.65 31.77,-6.55 61.97,-6.15 93.53,0.5 36.29,7.65 47.26,18.11 47.25,55.02 -0.03,105.43 -0.24,210.85 -0.29,316.28 -0.02,58.39 0.18,116.79 0.18,175.18 0,43.16 -12.51,60.82 -55.69,63.64 -34.95,2.28 -70.67,-2.22 -105.59,-7.01 -12.1,-1.66 -25.2,-11.09 -33.84,-20.58 -78.63,-86.43 -156.39,-173.63 -234.41,-260.6 -1.62,-1.81 -2.85,-4.37 -4.87,-5.35 -9.57,-4.63 -23.33,-14.96 -28.16,-11.82 -7.99,5.19 -14.18,19.1 -14.37,29.45 -1.24,71.35 -0.69,142.72 -0.8,214.09 -0.06,41.63 -4.07,52.56 -44.77,58.35 -36.48,5.18 -74.76,-0.36 -112.05,-3.5 -28.55,-2.41 -32.59,-24.42 -32.51,-48.12 0.22,-68.92 0.16,-137.86 0.21,-206.8 0.01,-15.42 0.01,-30.82 0.01,-46.23 -0.12,0 -0.23,0 -0.36,0z"/>
  </g>
  <g id="_2434275388608">
   <path class="fil1" d="M1662.48 2352.35c-128.65,-3.89 -225.56,-21.33 -317.37,-63.43 -45.57,-20.9 -51.67,-59.48 -13.98,-93.04 3.01,-2.68 5.87,-5.58 8.57,-8.57 35.06,-38.99 58.5,-44.19 105.66,-20.97 66.79,32.87 137.18,49.14 211.43,46 19.78,-0.83 40.52,-4.95 58.49,-12.85 10.08,-4.44 21.5,-19.88 21.23,-30.07 -0.31,-11.51 -10.81,-29.66 -20.76,-32.84 -46.76,-15 -94.4,-28.09 -142.56,-37.64 -62.83,-12.45 -125.41,-24.68 -182.34,-55.58 -105.15,-57.03 -100.13,-190.23 -11.89,-256.87 73.71,-55.66 160.31,-67.34 248.45,-63.87 60.18,2.37 120.29,13.22 179.77,23.93 26.6,4.79 52.19,17.18 77.1,28.61 21.2,9.72 27.11,48.63 10.35,70.91 -13.46,17.9 -28.85,35.17 -46.3,49.05 -22.25,17.7 -48.17,11.79 -71.51,0.7 -66.13,-31.4 -135.32,-42.54 -207.76,-34.07 -21.31,2.48 -40.86,21.33 -40.41,39.29 0.56,22.02 15.44,33.53 34.72,38.04 58.98,13.8 118.3,26.16 177.38,39.6 58.51,13.32 114.32,31.47 164.78,67.01 36.21,25.52 56.7,102.99 43.66,147.91 -21.64,74.52 -77.48,112.61 -145.22,132.56 -54.52,16.07 -112.29,21.05 -141.49,26.19z"/>
  </g>
  <g id="_2434275389536">
   <path class="fil1" d="M2510.39 1929.69c0,-50.3 -0.19,-100.6 0.07,-150.89 0.18,-32.47 10.26,-41.72 41.41,-49.42 38.93,-9.62 76.86,-8.48 115.42,0.78 26.67,6.4 38.64,17.31 38.52,44.8 -0.56,116.75 4.13,234.02 -5.33,350.1 -8.03,98.52 -69.76,169.44 -169.07,200.67 -60.87,19.15 -124.47,31.14 -189.06,23.99 -70.84,-7.85 -141.98,-18.1 -200.79,-63.12 -58.63,-44.88 -89.23,-107.76 -91.86,-179.83 -4.05,-110.98 -1.97,-222.2 -1.7,-333.33 0.05,-22.63 12.06,-37.15 35.52,-42.81 40.21,-9.69 79.92,-10.66 120.26,-0.79 30.84,7.55 39.37,15.67 39.53,48.36 0.42,93.27 -1.34,186.58 0.78,279.8 0.65,28.3 5.5,59.26 18.2,83.96 33.79,65.66 131.06,70.82 182.8,43.83 46.93,-24.48 65.33,-64.22 65.24,-114.96 -0.08,-47.05 -0.03,-94.09 -0.03,-141.14 0.04,0 0.07,0 0.09,0z"/>
  </g>
  <g id="_2433449363904">
   <g>
    <path class="fil1" d="M4219.59 2342.27c-8.92,-0.4 -17.82,-1.07 -26.73,-1.17 -40.52,-0.47 -69.74,-16.56 -81.53,-57.74 -2.2,-7.72 -6.22,-14.9 -9.22,-22.39 -10.77,-26.74 -29.49,-36.19 -58.99,-35.26 -68.86,2.18 -137.84,1.43 -206.73,0.41 -22.55,-0.34 -33.76,9.44 -41.2,29.37 -7.58,20.31 -15.64,41.12 -27.73,58.82 -6.86,10.05 -21.44,17.26 -33.9,20.56 -40.45,10.76 -81.69,12.3 -121.67,-2.25 -29.49,-10.74 -37.91,-34.48 -24.55,-61.9 37.86,-77.75 75.13,-155.76 113.55,-233.22 43,-86.7 86.94,-172.95 130.59,-259.32 28.14,-55.69 61.42,-66.22 135.75,-62.8 64.85,2.97 94.13,35.68 117.11,91.62 30.62,74.54 70.53,145.27 106.39,217.67 38.66,78.12 77.41,156.23 115.79,234.5 21.65,44.14 5.56,74.2 -43.22,80.7 -14.43,1.91 -29.14,1.67 -43.71,2.4zm-272.15 -242.59l0 0c0,0.08 0,0.16 0,0.22 16.22,0 32.62,1.55 48.59,-0.43 15.21,-1.89 27.09,-11.21 19.79,-28.4 -15.76,-37.17 -32.67,-73.89 -50.41,-110.15 -8.33,-17.05 -27.45,-17.31 -35.79,-0.56 -17.95,36.14 -35.01,72.76 -51.06,109.78 -6.85,15.79 0.08,27.78 17.83,29.25 16.91,1.4 34.02,0.29 51.05,0.29z"/>
   </g>
  </g>
  <g id="_2433449364992">
   <path class="fil1" d="M4539.15 1728.77c82.72,0 165.45,-0.06 248.19,0.02 49.16,0.05 61.61,12.35 62.57,61.92 0.22,11.35 0.2,22.78 -1,34.03 -3.07,29.02 -18.6,42.58 -48.25,42.82 -42.17,0.36 -84.34,0.74 -126.51,0.79 -33.34,0.04 -42.27,8.29 -42.34,41.02 -0.26,118.41 -1.73,236.84 -0.04,355.22 0.98,67.38 -15.3,66.34 -67.16,74.18 -30.14,4.56 -62.95,-1.75 -93.45,-8.33 -23.67,-5.09 -32.98,-25.14 -32.85,-50.3 0.63,-122.47 0.47,-244.93 0.31,-367.4 -0.04,-41.14 -3.24,-44.07 -44.52,-44.22 -38.11,-0.14 -76.22,0.21 -114.34,-0.11 -35.39,-0.29 -49.12,-10.49 -53.57,-45.53 -2.58,-20.46 -1.08,-42.11 2.54,-62.53 4.47,-25.07 24.28,-31.83 47.64,-31.72 60.84,0.3 121.65,0.18 182.48,0.21 26.77,0.02 53.54,0 80.3,0 0,-0.02 0,-0.05 0,-0.07z"/>
  </g>
  <rect class="fil2 str0" x="41.39" y="62.58" width="4900" height="3900.01"/>
 </g>
</svg>
