<?xml version="1.0" encoding="UTF-8"?>
<!DOCTYPE svg PUBLIC "-//W3C//DTD SVG 1.1//EN" "http://www.w3.org/Graphics/SVG/1.1/DTD/svg11.dtd">
<!-- Creator: CorelDRAW 2018 (64 Bit Versión de evaluación) -->
<svg xmlns="http://www.w3.org/2000/svg" xml:space="preserve" width="190mm" height="170mm" version="1.1" style="shape-rendering:geometricPrecision; text-rendering:geometricPrecision; image-rendering:optimizeQuality; fill-rule:evenodd; clip-rule:evenodd"
viewBox="0 0 19000 17000"
 xmlns:xlink="http://www.w3.org/1999/xlink">
 <defs>
  <style type="text/css">
   <![CDATA[
    .fil1 {fill:#0162AC}
    .fil0 {fill:#AE0C41}
   ]]>
  </style>
 </defs>
 <g id="Capa_x0020_1">
  <metadata id="CorelCorpID_0Corel-Layer"/>
  <g id="_2434269288656">
   <path class="fil0" d="M4025.33 9208.49c19.62,-108.83 40.92,-217.39 58.53,-326.59 42.42,-263.16 -97.69,-500.68 -355.46,-559.66 -212.58,-48.63 -432.72,-64.02 -649.27,-95.65 -196.87,-28.78 -400.5,-36.73 -588.48,-94.84 -288.17,-89.08 -502.43,-268.92 -536.4,-598.22 -16.57,-160.67 24.81,-307.89 133.75,-423.21 235.32,-249.02 479.16,-490.04 720.69,-733.16 80.26,-80.78 206.18,-74.12 287.4,6.38 243.19,241.09 489.16,479.4 731.83,721.01 160.7,160.01 316.12,325.32 476.57,485.62 150.41,150.24 308.36,293.12 454.82,447.03 64.15,67.39 152.11,119.19 166.7,229.05 19.51,146.91 -90.73,210.88 -173.53,291.3 -166.44,161.67 -336.63,319.45 -505.71,478.34 -67.39,63.33 -135.9,125.5 -203.93,188.21 -5.84,-5.23 -11.68,-10.39 -17.51,-15.61z"/>
  </g>
  <g id="_2434269286352">
   <path class="fil1" d="M1900.36 8309.09c-11.88,62.26 -24.65,110.64 -29.61,159.81 -6.89,68.21 -11.75,137.09 -10.68,205.55 2.64,167.53 144.21,263.88 278.46,300.37 183.96,50 372.85,57.84 562.07,63.69 164.25,5.04 318.17,48.65 456.12,139.15 135.29,88.73 210.52,220.73 218.46,377.83 4.92,97.4 -42.1,192.14 -109.24,267.52 -77.79,87.3 -160.23,170.51 -242.41,253.81 -89.05,90.24 -179.83,178.85 -270.52,267.48 -35.85,35.06 -140.58,39.61 -176.98,4.4 -98.56,-95.36 -194.85,-193.06 -291.78,-290.1 -78.99,-79.08 -157.64,-158.48 -236.44,-237.77 -117.36,-118.09 -234.22,-236.72 -352.23,-354.15 -111.08,-110.53 -223.67,-219.53 -334.96,-329.85 -27.76,-27.49 -55.31,-55.8 -79.02,-86.74 -33.65,-43.87 -32.69,-108.62 7.06,-153.33 49.31,-55.47 103.79,-106.53 157.64,-157.81 147.24,-140.3 295.32,-279.71 454.06,-429.86z"/>
  </g>
  <g id="_2434269286096">
   <path class="fil1" d="M10534.23 8500.24c0,-283.77 0.18,-567.54 -0.04,-851.29 -0.15,-126.99 28.3,-162.1 153.97,-185.09 51.93,-9.5 103.97,-19.7 156.37,-25.12 225.71,-23.37 386.34,77.91 524.45,250.91 142.82,178.9 305.83,341.67 459.8,511.69 66.66,73.64 130.06,150.66 200.81,220.09 23.35,22.93 73.83,45.1 96.47,34.55 24.69,-11.49 43.61,-61.22 44.11,-94.62 3.68,-233.65 1.58,-467.37 2.13,-701.06 0.29,-144.65 29.01,-169.12 168.16,-197.77 108.98,-22.47 212.59,-21.1 320.86,1.73 124.48,26.21 162.11,62.11 162.07,188.72 -0.11,361.68 -0.8,723.33 -0.97,1084.98 -0.08,200.31 0.61,400.65 0.61,600.96 0,148.05 -42.92,208.63 -191.05,218.33 -119.89,7.81 -242.44,-7.64 -362.23,-24.08 -41.52,-5.7 -86.43,-38.02 -116.08,-70.6 -269.72,-296.47 -536.49,-595.62 -804.12,-893.96 -5.55,-6.2 -9.8,-14.99 -16.72,-18.34 -32.83,-15.9 -80.01,-51.32 -96.58,-40.58 -27.43,17.84 -48.66,65.55 -49.31,101.05 -4.25,244.74 -2.38,489.6 -2.74,734.42 -0.22,142.82 -13.98,180.29 -153.6,200.16 -125.12,17.76 -256.45,-1.22 -384.36,-12 -97.96,-8.25 -111.8,-83.76 -111.55,-165.06 0.77,-236.46 0.58,-472.95 0.72,-709.45 0.05,-52.87 0.05,-105.7 0.05,-158.57 -0.4,0 -0.8,0 -1.23,0z"/>
  </g>
  <g id="_2434269286704">
   <path class="fil1" d="M6546.49 9602.23c-441.33,-13.34 -773.79,-73.17 -1088.72,-217.57 -156.32,-71.72 -177.25,-204.07 -47.96,-319.17 10.34,-9.2 20.14,-19.14 29.39,-29.41 120.27,-133.74 200.7,-151.59 362.48,-71.94 229.1,112.77 470.57,168.56 725.3,157.79 67.86,-2.85 138.99,-16.98 200.63,-44.09 34.58,-15.2 73.76,-68.18 72.84,-103.13 -1.05,-39.5 -37.09,-101.75 -71.2,-112.67 -160.41,-51.46 -323.84,-96.37 -489.05,-129.13 -215.56,-42.7 -430.21,-84.65 -625.52,-190.64 -360.71,-195.66 -343.48,-652.6 -40.78,-881.18 252.84,-190.94 549.94,-231.03 852.3,-219.11 206.43,8.11 412.63,45.34 616.68,82.08 91.23,16.43 179.04,58.93 264.5,98.14 72.71,33.36 92.97,166.83 35.5,243.26 -46.17,61.42 -98.97,120.65 -158.85,168.28 -76.33,60.73 -165.22,40.45 -245.3,2.41 -226.85,-107.72 -464.21,-145.96 -712.72,-116.91 -73.09,8.52 -140.18,73.18 -138.61,134.78 1.92,75.54 52.95,115.04 119.08,130.51 202.36,47.33 405.85,89.75 608.51,135.87 200.72,45.66 392.18,107.93 565.26,229.87 124.23,87.54 194.53,353.29 149.78,507.39 -74.24,255.63 -265.79,386.28 -498.17,454.75 -187.02,55.11 -385.21,72.19 -485.37,89.82z"/>
  </g>
  <g id="_2434269287376">
   <path class="fil1" d="M9455.2 8152.31c0,-172.54 -0.64,-345.09 0.26,-517.6 0.61,-111.39 35.2,-143.13 142.03,-169.53 133.56,-33.02 263.69,-29.11 395.96,2.66 91.48,21.97 132.56,59.38 132.13,153.68 -1.92,400.52 14.16,802.8 -18.28,1201.02 -27.53,337.95 -239.3,581.25 -579.98,688.39 -208.82,65.67 -427,106.82 -648.56,82.28 -243.01,-26.92 -487.06,-62.1 -688.8,-216.52 -201.14,-153.96 -306.11,-369.66 -315.11,-616.9 -13.92,-380.71 -6.78,-762.27 -5.86,-1143.48 0.2,-77.61 41.37,-127.44 121.86,-146.84 137.93,-33.27 274.17,-36.6 412.53,-2.71 105.82,25.9 135.09,53.76 135.62,165.88 1.46,319.95 -4.6,640.05 2.68,959.86 2.22,97.06 18.85,203.26 62.44,287.99 115.92,225.25 449.6,242.94 627.08,150.36 161,-83.97 224.11,-220.31 223.79,-394.34 -0.25,-161.43 -0.07,-322.8 -0.07,-484.2 0.1,0 0.21,0 0.28,0z"/>
  </g>
  <g id="_2434269283696">
   <g>
    <path class="fil1" d="M15318.56 9567.67c-30.6,-1.38 -61.16,-3.69 -91.73,-4.01 -139,-1.62 -239.22,-56.84 -279.66,-198.1 -7.57,-26.46 -21.34,-51.12 -31.64,-76.81 -36.95,-91.72 -101.17,-124.15 -202.37,-120.95 -236.2,7.5 -472.83,4.91 -709.18,1.41 -77.34,-1.16 -115.8,32.4 -141.31,100.76 -26.03,69.66 -53.67,141.06 -95.15,201.79 -23.53,34.46 -73.53,59.18 -116.27,70.53 -138.79,36.9 -280.24,42.17 -417.41,-7.74 -101.16,-36.84 -130.02,-118.29 -84.22,-212.36 129.88,-266.69 257.75,-534.32 389.55,-800.03 147.51,-297.43 298.23,-593.28 447.98,-889.59 96.54,-191.04 210.68,-227.17 465.7,-215.43 222.43,10.2 322.88,122.38 401.73,314.29 105.02,255.73 241.94,498.34 364.94,746.72 132.63,267.99 265.58,535.94 397.23,804.44 74.27,151.43 19.06,254.55 -148.26,276.82 -49.5,6.56 -99.95,5.73 -149.93,8.26zm-933.61 -832.2l0 0c0,0.25 0,0.55 0,0.76 55.65,0 111.91,5.3 166.68,-1.48 52.19,-6.49 92.92,-38.46 67.87,-97.45 -54.06,-127.47 -112.06,-253.46 -172.92,-377.85 -28.58,-58.47 -94.17,-59.39 -122.75,-1.91 -61.6,123.98 -120.13,249.59 -175.19,376.59 -23.5,54.16 0.29,95.28 61.16,100.33 58.02,4.8 116.73,1.01 175.15,1.01z"/>
   </g>
  </g>
  <g id="_2434269285712">
   <path class="fil1" d="M16414.78 7463.06c283.77,0 567.58,-0.21 851.39,0.07 168.66,0.17 211.37,42.4 214.65,212.44 0.76,38.91 0.69,78.14 -3.42,116.74 -10.53,99.52 -63.82,146.04 -165.53,146.89 -144.66,1.23 -289.33,2.51 -433.99,2.71 -114.36,0.14 -144.99,28.43 -145.24,140.69 -0.9,406.22 -5.94,812.49 -0.15,1218.58 3.36,231.16 -52.47,227.59 -230.36,254.49 -103.4,15.64 -215.95,-6.03 -320.6,-28.59 -81.17,-17.47 -113.13,-86.25 -112.67,-172.55 2.17,-420.12 1.59,-840.24 1.05,-1260.36 -0.15,-141.13 -11.1,-151.18 -152.71,-151.7 -130.74,-0.47 -261.49,0.72 -392.25,-0.36 -121.41,-1.01 -168.51,-36.01 -183.77,-156.18 -8.86,-70.21 -3.71,-144.48 8.73,-214.51 15.31,-86.01 83.29,-109.19 163.4,-108.82 208.71,1.01 417.34,0.61 626.02,0.73 91.82,0.05 183.65,0 275.45,0 0,-0.1 0,-0.19 0,-0.27z"/>
  </g>
 </g>
</svg>
