<?xml version="1.0" encoding="UTF-8"?>
<!DOCTYPE svg PUBLIC "-//W3C//DTD SVG 1.1//EN" "http://www.w3.org/Graphics/SVG/1.1/DTD/svg11.dtd">
<!-- Creator: CorelDRAW 2018 (64 Bit Versión de evaluación) -->
<svg xmlns="http://www.w3.org/2000/svg" xml:space="preserve" width="40mm" height="30mm" version="1.1" style="shape-rendering:geometricPrecision; text-rendering:geometricPrecision; image-rendering:optimizeQuality; fill-rule:evenodd; clip-rule:evenodd"
viewBox="0 0 4000 3000"
 xmlns:xlink="http://www.w3.org/1999/xlink">
 <defs>
  <style type="text/css">
   <![CDATA[
    .fil1 {fill:#3B6865}
    .fil2 {fill:#507572;fill-rule:nonzero}
    .fil0 {fill:#55A695;fill-rule:nonzero}
   ]]>
  </style>
 </defs>
 <g id="Capa_x0020_1">
  <metadata id="CorelCorpID_0Corel-Layer"/>
  <path class="fil0" d="M1177.14 818.23c-33.52,19.16 -76.26,7.53 -95.42,-25.99 -19.17,-33.51 -7.54,-76.25 25.97,-95.41 44.45,-25.51 91.39,-47.56 140.12,-65.94 192.83,-72.73 409.16,-84.39 611.55,-23.92l-194.76 0c-79.55,0 -152.14,43.7 -192.21,109.38 -59.92,8.7 -118.78,23.9 -175.35,45.23 -40.98,15.46 -81.13,34.4 -119.9,56.65zm864.71 -134.35c143.7,79.96 272.52,202.76 370.22,373 31.15,54.27 59.27,113.85 83.78,178.85 13.58,36.09 -4.64,76.37 -40.73,89.96 -36.09,13.58 -76.39,-4.65 -89.97,-40.74 -21.5,-57.04 -46.53,-109.92 -74.48,-158.64 -59.31,-103.35 -131.54,-186.24 -211.86,-250.09l3.72 -17.23c14.1,-65.29 -3.15,-128.38 -40.68,-175.11z"/>
  <path class="fil0" d="M992.96 602.58c-32.46,20.84 -75.67,11.41 -96.51,-21.05 -20.83,-32.46 -11.4,-75.67 21.06,-96.51 67.05,-42.97 139.56,-78.75 215.76,-106.7 242.37,-88.93 524.8,-100.47 792.04,-18.84 267.36,81.66 519.39,256.11 700.74,538.9 58.41,91.1 109.43,193.22 151.09,306.8 13.29,36.25 -5.32,76.42 -41.55,89.7 -36.25,13.28 -76.42,-5.32 -89.7,-41.57 -38.17,-104.05 -84.56,-197.06 -137.4,-279.47 -162.13,-252.82 -386.33,-408.45 -623.64,-480.92 -237.44,-72.51 -488.27,-62.3 -703.45,16.65 -66.97,24.57 -130.31,55.75 -188.44,93.01z"/>
  <path class="fil0" d="M1328.99 1064.89c-33.82,18.42 -76.18,5.93 -94.6,-27.89 -18.42,-33.82 -5.94,-76.18 27.88,-94.6 54.28,-29.54 108.89,-51.56 162.98,-66.75l-7.01 32.46c-4.25,19.7 -5.65,39.2 -4.5,58.09l-17.02 66.5c-22.52,9.18 -45.13,19.9 -67.73,32.19zm739.12 -30.35c35.08,36.07 64.97,76.33 88.6,119.74 25.65,47.14 43.96,98.09 53.52,151.5 6.79,37.9 -18.42,74.14 -56.32,80.93 -37.89,6.78 -74.14,-18.42 -80.92,-56.32 -6.87,-38.34 -20.14,-75.13 -38.77,-109.39 -4.44,-8.14 -9.16,-16.15 -14.21,-24l48.1 -162.46z"/>
  <path class="fil1" d="M703.3 1102.39l304.68 0 237.08 892.59c23.93,84.61 68.93,73.01 86.28,-0.7l228.18 -891.89 306 0 -300.08 1013.44c-65.13,154.25 -172.26,145.84 -271.22,149.04 -115.62,-0.59 -245.16,-6.99 -297.8,-148.03l-293.12 -1014.45zm961.3 -320.44l215.45 0c22.05,0 36.2,18.05 31.44,40.11l-26.55 122.99c-4.77,22.05 -26.71,40.1 -48.78,40.1l-215.44 0c-22.07,0 -36.2,-18.05 -31.44,-40.1l26.56 -122.99c4.75,-22.06 26.69,-40.11 48.76,-40.11z"/>
  <polygon class="fil1" points="1894.48,1505.75 2117.49,1505.57 2363.03,1844.59 2407.23,1844.55 2658.15,1505.11 2880.88,1504.91 2883.05,2265.16 2653.3,2264.88 2652.02,1798.41 2617.94,1798.61 2472.41,1996.69 2295.23,1994.93 2155.7,1798.98 2120.3,1799 2117.73,2264.7 1891.86,2264.6 "/>
  <path class="fil1" d="M3095.65 1503.36l246.41 0c0,254.39 8.43,466.32 -4.98,713.46 -5.72,125.16 -131.62,229.33 -164,249.29l-239.54 -0.02c52.22,-54.43 163.4,-153.88 162.11,-239.46 0,-249.95 0,-473.31 0,-723.27z"/>
  <path class="fil2" d="M721.31 2561.39l-39.96 0 0 -160.85 39.96 0 0 160.85zm3.04 -183.07l-45.6 0 0 -32.97 45.6 0 0 32.97z"/>
  <path class="fil2" d="M997.19 2561.75l-34.49 0 0 -90.27c0,-7.26 -0.36,-14.05 -1.13,-20.35 -0.77,-6.29 -2.12,-11.36 -4.26,-15.11 -2.27,-4 -5.55,-6.94 -9.65,-8.87 -4.1,-1.93 -10.52,-4.05 -17.66,-4.05 -6.97,0 -14.41,0.48 -21.06,5.76 -7.72,6.14 -8.83,17.58 -8.61,24.99l0 107.9 -35.21 0c0,-38.97 0,-72.7 0,-111.68 -0.72,-20.06 10.95,-40.83 34.75,-48.85 9.72,-3.28 35.44,-2.27 44.52,-2.27 16.57,0 29.5,5.14 38.78,15.41 9.35,10.22 14.02,25.09 14.02,44.58l0 102.81z"/>
  <path class="fil2" d="M1218.74 2521.52l0 -95.02c-6.54,-4.81 -9.65,-6.61 -15.6,-8.08 -5.89,-1.48 -8.93,-1.56 -14.79,-1.56 -14.31,0 -25.5,5.39 -33.7,16.26 -8.19,10.86 -12.27,26.38 -12.27,46.61 0,19.22 3.11,33.79 9.37,43.8 6.21,10.02 16.33,15.04 30.29,15.04 7.28,0 14.8,-1.5 22.55,-4.5 7.72,-2.98 10.5,-6.11 14.15,-12.55zm-88.01 70.86c1.93,0.79 4.74,1.89 8.4,3.23 3.72,1.36 7.88,2.68 12.62,3.87 5.18,1.3 9.98,2.34 14.36,3.12 4.42,0.8 9.21,1.22 14.4,1.22 8.71,0 12.17,0.39 18.42,-1.3 6.35,-1.71 10.99,-3.51 13.93,-8.03 2.8,-4.31 2.72,-3.93 4.19,-9.33 1.51,-5.47 1.94,-11.86 1.94,-18.9l0 -15.1c-7.58,6.83 -8.53,6.3 -15.82,9.55 -7.26,3.26 -16.39,4.88 -27.39,4.88 -19.04,0 -34.21,-7.36 -45.51,-22.03 -11.25,-14.67 -16.9,-35.76 -16.9,-63.3 0,-14.36 1.93,-27.12 5.85,-38.19 3.88,-11.12 9.11,-20.55 15.69,-28.33 6.31,-7.43 13.74,-13.2 22.28,-17.22 8.61,-4.03 17.47,-6.04 26.69,-6.04 8.64,0 16.75,0.49 23.2,2 7.06,1.65 14.24,4 20.6,7.23 10,5.19 26.07,15.94 25.88,35.1l0 113.88c0,29.34 -6.2,50.87 -18.58,64.63 -12.35,13.72 -31.31,20.6 -56.76,20.6 -8.19,0 -16.54,-0.69 -25.09,-2.01 -8.5,-1.33 -16.5,-3.18 -23.88,-5.4l0 -34.13 1.48 0z"/>
  <path class="fil2" d="M2846.46 2564.5c-11.11,0 -21.51,-1.47 -31.2,-4.46 -9.74,-3 -17.74,-6.15 -24.1,-9.55l0 -31.36 1.47 0c2.4,1.87 5.2,4 8.41,6.29 3.21,2.34 7.49,4.72 12.84,7.2 4.75,2.24 9.94,4.16 15.65,5.9 5.7,1.67 11.63,2.92 17.73,2.53 10.54,-0.66 21.32,-3.02 27.22,-13.02 1.53,-2.59 2.75,-6.53 2.29,-11.67 -1.62,-18.5 -20.21,-22.14 -35.7,-25.34 -19.77,-4.08 -31.11,-9.02 -40.64,-21.7 -5.75,-7.67 -8.67,-17.14 -8.67,-28.06 0,-14.92 5.66,-27.11 17.03,-36.54 11.36,-9.4 26.4,-14.12 45.2,-14.12 9.28,0 18.6,1.17 27.94,3.46 9.37,2.28 17.22,5.13 23.59,8.63l0 29.94 -1.48 0c-7.14,-5.73 -14.54,-8.55 -23.31,-11.88 -8.75,-3.31 -18.71,-4.51 -27.64,-4.51 -34.15,0 -37.58,35.5 -8.24,43.5 4.17,1.13 8.84,2.11 13.97,3.15 5.1,1.03 10.51,2.25 16.21,3.65 12.34,3.05 21.08,9.89 27.28,17 6.22,7.15 9.33,16.85 9.33,29.14 0,7.11 -1.43,13.91 -4.23,20.25 -2.86,6.4 -6.99,11.88 -12.49,16.45 -5.97,4.92 -12.69,8.67 -20.19,11.27 -7.48,2.58 -16.92,3.85 -28.27,3.85z"/>
  <path class="fil2" d="M1451.22 2566.31c-25.67,0 -45.65,-7.32 -59.87,-21.92 -14.21,-14.6 -21.29,-35.38 -21.29,-62.29 0,-26.5 6.87,-47.58 20.65,-63.28 13.73,-15.7 31.74,-23.52 53.98,-23.52 10.03,0 18.89,1.45 26.56,4.4 7.73,2.88 14.47,7.47 20.22,13.69 5.81,6.23 10.23,13.82 13.29,22.82 3.07,8.97 4.63,20 4.63,32.99l0 20.42 -107.9 0c0.45,13.62 4.91,22.58 11.84,31.74 8.27,10.92 22.54,15 39.2,15 5.96,0 11.86,-0.71 17.57,-2.05 5.75,-1.34 10.92,-3.16 15.54,-5.28 4.92,-2.25 9.1,-4.4 12.45,-6.48 3.39,-2.1 6.21,-4.09 8.42,-5.93l1.57 0 -1.65 35.99c-3.2,1.25 -7.13,2.84 -11.86,4.74 -4.72,1.89 -8.94,3.38 -12.69,4.43 -5.31,1.45 -10.08,2.59 -14.36,3.38 -4.29,0.75 -9.74,1.15 -16.3,1.15zm30.08 -103.14c-0.2,-7.38 -0.67,-12.17 -2.18,-17.5 -1.52,-5.32 -3.13,-8.75 -6,-12.42 -3.17,-4.05 -7.28,-7.17 -12.25,-9.32 -4.97,-2.14 -7.5,-3.19 -14.87,-3.19 -7.23,0 -13.39,1.11 -18.45,3.29 -5.07,2.19 -9.74,5.31 -13.83,9.52 -4.11,4.24 -7.28,8.57 -9.42,13.75 -2.12,5.17 -2.58,8.99 -3.17,15.87l80.17 0z"/>
  <path class="fil2" d="M1772.8 2561.75l-34.49 0 0 -90.27c0,-7.26 -0.36,-14.05 -1.13,-20.35 -0.77,-6.29 -2.12,-11.36 -4.26,-15.11 -2.27,-4 -5.55,-6.94 -9.65,-8.87 -4.1,-1.93 -10.52,-4.05 -17.66,-4.05 -6.97,0 -14.41,0.48 -21.06,5.76 -7.72,6.14 -8.83,17.58 -8.6,24.99l0 107.9 -35.22 0c0,-38.97 0,-72.7 0,-111.68 -0.72,-20.06 10.96,-40.83 34.75,-48.85 9.72,-3.28 35.44,-2.27 44.52,-2.27 16.57,0 29.5,5.14 38.78,15.41 9.35,10.22 14.02,25.09 14.02,44.58l0 102.81z"/>
  <path class="fil2" d="M1947.73 2561.39l-39.97 0 0 -160.85 39.97 0 0 160.85zm3.04 -183.07l-45.61 0 0 -32.97 45.61 0 0 32.97z"/>
  <path class="fil2" d="M2158.47 2566.29c-25.68,0 -45.66,-7.32 -59.87,-21.92 -14.22,-14.59 -21.31,-35.37 -21.31,-62.27 0,-26.51 6.88,-47.59 20.67,-63.28 13.71,-15.7 31.73,-23.52 53.97,-23.52 10.03,0 18.89,1.45 26.56,4.39 7.73,2.89 14.47,7.48 20.22,13.69 5.82,6.24 10.23,13.82 13.29,22.83 3.07,8.96 4.62,19.99 4.62,32.98l0 20.42 -107.89 0c0.45,13.63 4.91,22.58 11.84,31.73 8.27,10.93 22.53,15 39.2,15 5.96,0 11.86,-0.7 17.57,-2.05 5.75,-1.34 10.92,-3.15 15.55,-5.28 4.91,-2.25 9.1,-4.39 12.44,-6.47 3.38,-2.1 6.21,-4.09 8.42,-5.93l1.57 0 -1.65 35.99c-3.19,1.24 -7.13,2.83 -11.86,4.72 -4.72,1.89 -8.95,3.39 -12.69,4.43 -5.31,1.46 -10.08,2.6 -14.36,3.39 -4.28,0.75 -9.74,1.15 -16.29,1.15zm30.06 -103.13c-0.19,-7.37 -0.66,-12.17 -2.18,-17.5 -1.52,-5.32 -3.12,-8.75 -5.99,-12.41 -3.16,-4.05 -7.28,-7.18 -12.25,-9.32 -4.97,-2.14 -7.49,-3.19 -14.87,-3.19 -7.24,0 -13.39,1.11 -18.44,3.29 -5.07,2.19 -9.75,5.3 -13.84,9.52 -4.11,4.24 -7.29,8.56 -9.42,13.75 -2.12,5.16 -2.58,8.98 -3.17,15.86l80.16 0z"/>
  <path class="fil2" d="M2424.64 2428.66l-1.21 0c-1.72,-0.57 -3.58,-0.87 -5.46,-1.02 -1.94,-0.16 -4.25,-0.21 -7,-0.21 -6.21,0 -12.42,1.62 -18.59,4.92 -6.15,3.3 -8.5,9.44 -8.02,14.72l0 116.71 -32.66 0 0 -128.51c-0.13,-18.25 17.51,-36.42 32.9,-40.66 4.6,-1.28 18.41,-4.21 32.43,-0.52 1.13,0.3 6.23,1.91 7.61,2.92l0 31.65z"/>
  <path class="fil2" d="M2677.78 2479.68c0,27.97 -6.14,49.49 -18.38,64.71 -12.3,15.18 -28.6,22.8 -48.97,22.8 -21.02,0 -37.57,-7.87 -49.57,-23.56 -12.06,-15.68 -18.06,-36.99 -18.06,-63.95 0,-27.71 6.18,-49.23 18.61,-64.56 12.38,-15.38 28.74,-23.05 49.02,-23.05 20.37,0 36.67,7.67 48.97,22.95 12.24,15.32 18.38,36.84 18.38,64.66zm-31.77 -1.45c0,-21.37 -3,-30.33 -10.31,-40.58 -6.39,-8.96 -12.87,-13.59 -26,-13.59 -13.21,0 -20.31,6.15 -26.63,14.81 -7.43,10.2 -9.59,19.08 -9.59,40.45 0,20.71 3.29,31.22 10.45,41.93 7.15,10.71 14.02,15.94 27.23,15.77 12.83,-0.18 21.15,-7.59 26.67,-17.73 6.07,-11.16 8.18,-19.95 8.18,-41.06z"/>
 </g>
</svg>
