<?xml version="1.0" encoding="UTF-8"?>
<!DOCTYPE svg PUBLIC "-//W3C//DTD SVG 1.1//EN" "http://www.w3.org/Graphics/SVG/1.1/DTD/svg11.dtd">
<!-- Creator: CorelDRAW 2018 (64 Bit Versión de evaluación) -->
<svg xmlns="http://www.w3.org/2000/svg" xml:space="preserve" width="15mm" height="10mm" version="1.1" style="shape-rendering:geometricPrecision; text-rendering:geometricPrecision; image-rendering:optimizeQuality; fill-rule:evenodd; clip-rule:evenodd"
viewBox="0 0 1500 1000"
 xmlns:xlink="http://www.w3.org/1999/xlink">
 <defs>
  <style type="text/css">
   <![CDATA[
    .fil1 {fill:#FEFEFE}
    .fil0 {fill:#FEFEFE;fill-rule:nonzero}
   ]]>
  </style>
 </defs>
 <g id="Capa_x0020_1">
  <metadata id="CorelCorpID_0Corel-Layer"/>
  <path class="fil0" d="M425.12 266.59c-12.83,7.33 -29.18,2.88 -36.52,-9.94 -7.33,-12.83 -2.88,-29.18 9.94,-36.52 17.01,-9.75 34.97,-18.19 53.62,-25.22 73.78,-27.83 156.56,-32.29 234,-9.16l-74.52 0c-30.44,0 -58.21,16.72 -73.55,41.85 -22.93,3.33 -45.45,9.15 -67.1,17.32 -15.67,5.91 -31.04,13.16 -45.87,21.67zm330.87 -51.41c54.99,30.6 104.28,77.59 141.66,142.73 11.92,20.77 22.68,43.56 32.06,68.43 5.2,13.81 -1.78,29.23 -15.59,34.43 -13.8,5.19 -29.22,-1.78 -34.42,-15.59 -8.23,-21.83 -17.8,-42.06 -28.5,-60.7 -22.7,-39.55 -50.33,-71.27 -81.07,-95.7l1.43 -6.59c5.39,-24.99 -1.21,-49.13 -15.57,-67.01z"/>
  <path class="fil0" d="M354.64 184.08c-12.42,7.97 -28.95,4.36 -36.92,-8.06 -7.97,-12.42 -4.37,-28.96 8.05,-36.93 25.66,-16.45 53.4,-30.13 82.56,-40.83 92.74,-34.03 200.81,-38.44 303.07,-7.21 102.3,31.25 198.74,98 268.13,206.21 22.35,34.86 41.87,73.93 57.82,117.39 5.08,13.87 -2.04,29.24 -15.91,34.32 -13.87,5.09 -29.23,-2.03 -34.32,-15.9 -14.6,-39.82 -32.35,-75.4 -52.57,-106.94 -62.04,-96.74 -147.83,-156.29 -238.63,-184.02 -90.86,-27.75 -186.83,-23.83 -269.17,6.38 -25.63,9.4 -49.87,21.32 -72.11,35.59z"/>
  <path class="fil0" d="M483.22 360.97c-12.94,7.05 -29.15,2.27 -36.2,-10.67 -7.05,-12.94 -2.27,-29.15 10.67,-36.2 20.77,-11.3 41.67,-19.73 62.36,-25.54l-2.68 12.42c-1.63,7.54 -2.16,15 -1.72,22.23l-6.51 25.45c-8.62,3.51 -17.27,7.61 -25.92,12.31zm282.82 -11.61c13.42,13.8 24.86,29.21 33.9,45.82 9.82,18.03 16.82,37.53 20.48,57.97 2.6,14.5 -7.05,28.37 -21.55,30.96 -14.5,2.6 -28.37,-7.04 -30.96,-21.55 -2.63,-14.67 -7.71,-28.74 -14.84,-41.85 -1.7,-3.12 -3.51,-6.18 -5.44,-9.19l18.41 -62.16z"/>
  <path class="fil1" d="M243.8 375.32l116.59 0 90.71 341.54c9.16,32.38 26.38,27.94 33.02,-0.26l87.31 -341.28 117.09 0 -114.82 387.79c-24.92,59.02 -65.92,55.8 -103.78,57.02 -44.24,-0.22 -93.81,-2.67 -113.95,-56.64l-112.17 -388.17zm367.84 -122.61l82.44 0c8.44,0 13.85,6.9 12.03,15.34l-10.16 47.06c-1.82,8.44 -10.22,15.35 -18.66,15.35l-82.44 0c-8.44,0 -13.85,-6.91 -12.03,-15.35l10.16 -47.06c1.82,-8.44 10.21,-15.34 18.66,-15.34z"/>
  <polygon class="fil1" points="699.6,529.67 784.94,529.59 878.89,659.32 895.8,659.3 991.81,529.42 1077.04,529.34 1077.87,820.24 989.96,820.14 989.47,641.65 976.43,641.72 920.74,717.52 852.95,716.84 799.56,641.86 786.01,641.87 785.03,820.07 698.6,820.03 "/>
  <path class="fil1" d="M1159.22 528.75l94.29 0c0,97.34 3.22,178.43 -1.91,273 -2.19,47.89 -50.36,87.75 -62.75,95.39l-91.66 -0.01c19.98,-20.83 62.52,-58.88 62.03,-91.63 0,-95.64 0,-181.11 0,-276.75z"/>
  <path class="fil0" d="M250.7 933.6l-15.29 0 0 -61.55 15.29 0 0 61.55zm1.16 -70.06l-17.45 0 0 -12.61 17.45 0 0 12.61z"/>
  <path class="fil0" d="M356.26 933.74l-13.2 0 0 -34.54c0,-2.78 -0.14,-5.38 -0.43,-7.79 -0.29,-2.41 -0.81,-4.35 -1.63,-5.79 -0.87,-1.52 -2.12,-2.65 -3.69,-3.39 -1.57,-0.74 -4.03,-1.55 -6.76,-1.55 -2.67,0 -5.51,0.19 -8.06,2.21 -2.95,2.34 -3.38,6.72 -3.29,9.56l0 41.29 -13.48 0c0,-14.92 0,-27.83 0,-42.74 -0.27,-7.67 4.2,-15.62 13.3,-18.69 3.72,-1.25 13.56,-0.87 17.04,-0.87 6.34,0 11.29,1.97 14.84,5.9 3.57,3.91 5.36,9.6 5.36,17.05l0 39.35z"/>
  <path class="fil0" d="M441.03 918.34l0 -36.36c-2.5,-1.84 -3.69,-2.53 -5.96,-3.09 -2.26,-0.56 -3.42,-0.6 -5.66,-0.6 -5.48,0 -9.76,2.07 -12.9,6.22 -3.13,4.16 -4.69,10.1 -4.69,17.84 0,7.36 1.19,12.93 3.58,16.76 2.38,3.83 6.25,5.76 11.59,5.76 2.79,0 5.67,-0.58 8.63,-1.73 2.95,-1.14 4.02,-2.33 5.41,-4.8zm-33.67 27.11c0.74,0.31 1.81,0.73 3.21,1.24 1.43,0.52 3.02,1.03 4.83,1.48 1.98,0.5 3.82,0.89 5.5,1.2 1.69,0.3 3.52,0.46 5.51,0.46 3.33,0 4.65,0.15 7.04,-0.49 2.44,-0.66 4.21,-1.35 5.33,-3.08 1.08,-1.65 1.04,-1.5 1.61,-3.57 0.58,-2.09 0.74,-4.53 0.74,-7.23l0 -5.78c-2.9,2.61 -3.27,2.41 -6.06,3.66 -2.77,1.24 -6.27,1.86 -10.47,1.86 -7.29,0 -13.09,-2.81 -17.42,-8.43 -4.3,-5.61 -6.46,-13.68 -6.46,-24.22 0,-5.49 0.73,-10.37 2.24,-14.61 1.48,-4.26 3.48,-7.87 6,-10.84 2.41,-2.84 5.26,-5.05 8.53,-6.59 3.29,-1.54 6.68,-2.31 10.2,-2.31 3.31,0 6.41,0.18 8.88,0.76 2.71,0.64 5.45,1.54 7.89,2.77 3.82,1.99 9.97,6.1 9.9,13.43l0 43.58c0,11.22 -2.37,19.46 -7.11,24.72 -4.73,5.26 -11.98,7.89 -21.72,7.89 -3.14,0 -6.33,-0.26 -9.6,-0.77 -3.26,-0.51 -6.31,-1.22 -9.14,-2.07l0 -13.06 0.57 0z"/>
  <path class="fil0" d="M1063.87 934.79c-4.25,0 -8.23,-0.57 -11.94,-1.71 -3.72,-1.15 -6.79,-2.35 -9.22,-3.65l0 -12 0.56 0c0.92,0.71 1.99,1.53 3.22,2.4 1.23,0.9 2.87,1.81 4.91,2.76 1.82,0.85 3.81,1.59 5.99,2.25 2.18,0.64 4.45,1.12 6.79,0.97 4.03,-0.25 8.15,-1.16 10.41,-4.98 0.59,-0.99 1.05,-2.49 0.88,-4.47 -0.63,-7.07 -7.74,-8.47 -13.66,-9.69 -7.56,-1.56 -11.91,-3.45 -15.55,-8.31 -2.21,-2.93 -3.32,-6.55 -3.32,-10.73 0,-5.71 2.16,-10.37 6.51,-13.98 4.35,-3.6 10.1,-5.4 17.3,-5.4 3.55,0 7.12,0.44 10.69,1.32 3.59,0.87 6.59,1.96 9.03,3.3l0 11.46 -0.57 0c-2.73,-2.2 -5.56,-3.27 -8.92,-4.55 -3.35,-1.26 -7.16,-1.72 -10.57,-1.72 -13.07,0 -14.38,13.58 -3.16,16.64 1.6,0.43 3.38,0.81 5.35,1.21 1.95,0.39 4.02,0.86 6.2,1.39 4.72,1.17 8.07,3.79 10.44,6.51 2.38,2.73 3.57,6.45 3.57,11.15 0,2.72 -0.55,5.32 -1.62,7.75 -1.09,2.44 -2.67,4.54 -4.78,6.29 -2.28,1.88 -4.85,3.32 -7.72,4.31 -2.87,0.99 -6.48,1.48 -10.82,1.48z"/>
  <path class="fil0" d="M529.99 935.48c-9.82,0 -17.46,-2.8 -22.91,-8.39 -5.44,-5.58 -8.15,-13.54 -8.15,-23.83 0,-10.14 2.64,-18.21 7.91,-24.21 5.25,-6.01 12.14,-9.01 20.65,-9.01 3.84,0 7.23,0.56 10.17,1.68 2.95,1.11 5.53,2.86 7.74,5.25 2.22,2.38 3.9,5.28 5.08,8.73 1.17,3.43 1.77,7.65 1.77,12.62l0 7.81 -41.29 0c0.17,5.22 1.88,8.64 4.53,12.15 3.17,4.18 8.62,5.74 15,5.74 2.28,0 4.54,-0.27 6.73,-0.79 2.2,-0.51 4.17,-1.2 5.94,-2.02 1.88,-0.86 3.49,-1.68 4.77,-2.47 1.29,-0.81 2.37,-1.57 3.22,-2.27l0.6 0 -0.63 13.77c-1.23,0.47 -2.73,1.08 -4.54,1.81 -1.81,0.72 -3.42,1.3 -4.86,1.7 -2.03,0.55 -3.85,0.99 -5.5,1.29 -1.63,0.29 -3.72,0.44 -6.23,0.44zm11.51 -39.47c-0.07,-2.82 -0.25,-4.65 -0.83,-6.69 -0.59,-2.04 -1.2,-3.35 -2.3,-4.76 -1.21,-1.54 -2.79,-2.74 -4.69,-3.56 -1.9,-0.82 -2.86,-1.22 -5.69,-1.22 -2.76,0 -5.12,0.42 -7.06,1.26 -1.93,0.84 -3.72,2.03 -5.29,3.64 -1.57,1.62 -2.78,3.28 -3.6,5.26 -0.81,1.98 -0.99,3.44 -1.22,6.07l30.68 0z"/>
  <path class="fil0" d="M653.04 933.74l-13.2 0 0 -34.54c0,-2.78 -0.13,-5.38 -0.43,-7.79 -0.29,-2.41 -0.81,-4.35 -1.63,-5.79 -0.87,-1.52 -2.12,-2.65 -3.69,-3.39 -1.57,-0.74 -4.03,-1.55 -6.76,-1.55 -2.66,0 -5.51,0.19 -8.06,2.21 -2.95,2.34 -3.38,6.72 -3.29,9.56l0 41.29 -13.47 0c0,-14.92 0,-27.83 0,-42.74 -0.28,-7.67 4.19,-15.62 13.29,-18.69 3.72,-1.25 13.56,-0.87 17.04,-0.87 6.34,0 11.29,1.97 14.84,5.9 3.57,3.91 5.36,9.6 5.36,17.05l0 39.35z"/>
  <path class="fil0" d="M719.98 933.6l-15.3 0 0 -61.55 15.3 0 0 61.55zm1.16 -70.06l-17.45 0 0 -12.61 17.45 0 0 12.61z"/>
  <path class="fil0" d="M800.61 935.47c-9.82,0 -17.47,-2.8 -22.91,-8.39 -5.44,-5.58 -8.15,-13.53 -8.15,-23.83 0,-10.14 2.64,-18.2 7.91,-24.21 5.25,-6 12.14,-9 20.65,-9 3.84,0 7.23,0.56 10.17,1.68 2.95,1.11 5.53,2.86 7.73,5.25 2.23,2.38 3.91,5.28 5.09,8.72 1.17,3.44 1.77,7.66 1.77,12.63l0 7.81 -41.29 0c0.17,5.21 1.88,8.64 4.53,12.14 3.17,4.18 8.63,5.74 15,5.74 2.28,0 4.54,-0.27 6.73,-0.78 2.2,-0.52 4.17,-1.21 5.95,-2.02 1.87,-0.87 3.48,-1.69 4.76,-2.48 1.29,-0.8 2.37,-1.56 3.22,-2.27l0.6 0 -0.63 13.77c-1.23,0.48 -2.73,1.09 -4.54,1.81 -1.8,0.72 -3.43,1.3 -4.85,1.7 -2.04,0.55 -3.87,0.99 -5.5,1.29 -1.64,0.29 -3.73,0.44 -6.24,0.44zm11.51 -39.46c-0.07,-2.82 -0.25,-4.66 -0.84,-6.69 -0.58,-2.04 -1.19,-3.35 -2.29,-4.76 -1.21,-1.54 -2.78,-2.74 -4.69,-3.56 -1.9,-0.82 -2.86,-1.22 -5.69,-1.22 -2.77,0 -5.12,0.42 -7.05,1.26 -1.94,0.84 -3.73,2.03 -5.3,3.64 -1.57,1.62 -2.79,3.28 -3.6,5.26 -0.82,1.97 -0.99,3.44 -1.22,6.07l30.68 0z"/>
  <path class="fil0" d="M902.47 882.81l-0.47 0c-0.66,-0.22 -1.37,-0.34 -2.09,-0.39 -0.74,-0.06 -1.63,-0.08 -2.68,-0.08 -2.38,0 -4.75,0.62 -7.11,1.88 -2.36,1.26 -3.26,3.61 -3.07,5.63l0 44.66 -12.5 0 0 -49.18c-0.05,-6.98 6.7,-13.93 12.59,-15.55 1.77,-0.49 7.05,-1.61 12.41,-0.2 0.43,0.12 2.39,0.73 2.92,1.12l0 12.11z"/>
  <path class="fil0" d="M999.32 902.33c0,10.7 -2.34,18.94 -7.03,24.77 -4.7,5.8 -10.94,8.72 -18.74,8.72 -8.04,0 -14.37,-3.02 -18.97,-9.02 -4.61,-6 -6.9,-14.15 -6.9,-24.47 0,-10.6 2.36,-18.84 7.12,-24.7 4.74,-5.89 10.99,-8.82 18.75,-8.82 7.8,0 14.04,2.93 18.74,8.78 4.69,5.86 7.03,14.1 7.03,24.74zm-12.16 -0.56c0,-8.17 -1.14,-11.6 -3.94,-15.52 -2.44,-3.43 -4.92,-5.2 -9.94,-5.2 -5.06,0 -7.78,2.35 -10.2,5.67 -2.84,3.9 -3.66,7.3 -3.66,15.47 0,7.93 1.25,11.95 3.99,16.05 2.74,4.1 5.37,6.1 10.42,6.03 4.91,-0.06 8.1,-2.91 10.21,-6.78 2.32,-4.27 3.12,-7.63 3.12,-15.72z"/>
 </g>
</svg>
