<?xml version="1.0" encoding="UTF-8"?>
<!DOCTYPE svg PUBLIC "-//W3C//DTD SVG 1.1//EN" "http://www.w3.org/Graphics/SVG/1.1/DTD/svg11.dtd">
<!-- Creator: CorelDRAW 2018 (64 Bit Versión de evaluación) -->
<svg xmlns="http://www.w3.org/2000/svg" xml:space="preserve" width="35mm" height="25mm" version="1.1" style="shape-rendering:geometricPrecision; text-rendering:geometricPrecision; image-rendering:optimizeQuality; fill-rule:evenodd; clip-rule:evenodd"
viewBox="0 0 3500 2500"
 xmlns:xlink="http://www.w3.org/1999/xlink">
 <defs>
  <style type="text/css">
   <![CDATA[
    .fil1 {fill:#FEFEFE}
    .fil0 {fill:#FEFEFE;fill-rule:nonzero}
   ]]>
  </style>
 </defs>
 <g id="Capa_x0020_1">
  <metadata id="CorelCorpID_0Corel-Layer"/>
  <path class="fil0" d="M868 605.64c-34.93,19.98 -79.47,7.85 -99.45,-27.08 -19.97,-34.92 -7.85,-79.47 27.08,-99.44 46.32,-26.58 95.23,-49.56 146.03,-68.72 200.97,-75.8 426.43,-87.95 637.38,-24.94l-203 0c-82.9,0 -158.55,45.56 -200.32,114 -62.45,9.07 -123.8,24.92 -182.76,47.15 -42.7,16.11 -84.55,35.85 -124.96,59.03zm901.23 -140.02c149.77,83.34 284.03,211.33 385.85,388.76 32.47,56.57 61.78,118.66 87.32,186.4 14.15,37.61 -4.84,79.61 -42.45,93.76 -37.61,14.15 -79.61,-4.85 -93.76,-42.46 -22.41,-59.45 -48.5,-114.56 -77.63,-165.33 -61.82,-107.72 -137.09,-194.11 -220.81,-260.66l3.88 -17.96c14.69,-68.05 -3.28,-133.8 -42.4,-182.51z"/>
  <path class="fil0" d="M676.05 380.9c-33.84,21.71 -78.87,11.89 -100.58,-21.95 -21.71,-33.83 -11.9,-78.87 21.94,-100.58 69.89,-44.8 145.44,-82.07 224.88,-111.2 252.59,-92.7 546.95,-104.72 825.48,-19.65 278.65,85.11 541.32,266.93 730.34,561.67 60.87,94.94 114.03,201.37 157.47,319.75 13.84,37.78 -5.54,79.64 -43.32,93.49 -37.77,13.84 -79.63,-5.55 -93.48,-43.32 -39.78,-108.45 -88.12,-205.39 -143.2,-291.28 -168.98,-263.5 -402.64,-425.7 -649.98,-501.23 -247.46,-75.58 -508.88,-64.92 -733.15,17.36 -69.8,25.61 -135.82,58.1 -196.4,96.94z"/>
  <path class="fil0" d="M1026.27 862.73c-35.25,19.2 -79.4,6.18 -98.6,-29.07 -19.2,-35.25 -6.18,-79.4 29.06,-98.6 56.57,-30.79 113.49,-53.74 169.86,-69.57l-7.31 33.84c-4.43,20.53 -5.9,40.85 -4.69,60.55l-17.73 69.3c-23.48,9.57 -47.04,20.73 -70.59,33.55zm770.33 -31.64c36.57,37.6 67.71,79.56 92.34,124.81 26.73,49.12 45.81,102.23 55.78,157.89 7.08,39.49 -19.2,77.27 -58.7,84.35 -39.49,7.08 -77.26,-19.2 -84.34,-58.7 -7.15,-39.96 -20.98,-78.3 -40.4,-114.01 -4.63,-8.49 -9.56,-16.83 -14.81,-25.02l50.13 -169.32z"/>
  <path class="fil1" d="M374.15 901.81l317.55 0 247.09 930.28c24.94,88.19 71.84,76.11 89.92,-0.73l237.82 -929.55 318.92 0 -312.75 1056.24c-67.88,160.75 -179.53,152 -282.67,155.33 -120.5,-0.62 -255.52,-7.28 -310.38,-154.28l-305.5 -1057.29zm1001.89 -333.97l224.56 0c22.98,0 37.73,18.81 32.76,41.8l-27.67 128.17c-4.96,23 -27.84,41.81 -50.84,41.81l-224.54 0c-22.99,0 -37.72,-18.81 -32.76,-41.81l27.67 -128.17c4.97,-22.99 27.83,-41.8 50.82,-41.8z"/>
  <polygon class="fil1" points="1615.64,1322.21 1848.07,1322.01 2103.97,1675.36 2150.04,1675.31 2411.55,1321.53 2643.69,1321.33 2645.95,2113.68 2406.51,2113.39 2405.17,1627.23 2369.65,1627.43 2217.97,1833.88 2033.31,1832.04 1887.89,1627.81 1850.99,1627.84 1848.32,2113.21 1612.91,2113.09 "/>
  <path class="fil1" d="M2867.54 1319.72l256.82 0c0,265.13 8.78,486.01 -5.19,743.58 -5.98,130.45 -137.19,239.02 -170.93,259.81l-249.66 -0.01c54.43,-56.73 170.3,-160.37 168.96,-249.57 0,-260.51 0,-493.31 0,-753.81z"/>
  <path class="fil0" d="M392.93 2422.42l-41.66 0 0 -167.64 41.66 0 0 167.64zm3.16 -190.81l-47.53 0 0 -34.35 47.53 0 0 34.35z"/>
  <path class="fil0" d="M680.45 2422.81l-35.95 0 0 -94.08c0,-7.58 -0.37,-14.65 -1.18,-21.22 -0.79,-6.56 -2.2,-11.84 -4.43,-15.75 -2.36,-4.16 -5.79,-7.23 -10.06,-9.24 -4.26,-2.02 -10.97,-4.22 -18.4,-4.22 -7.27,0 -15.02,0.5 -21.95,6.01 -8.06,6.38 -9.21,18.32 -8.97,26.03l0 112.47 -36.71 0c0,-40.63 0,-75.79 0,-116.41 -0.75,-20.9 11.42,-42.55 36.23,-50.91 10.12,-3.41 36.93,-2.37 46.39,-2.37 17.27,0 30.75,5.36 40.43,16.06 9.73,10.66 14.6,26.16 14.6,46.46l0 107.17z"/>
  <path class="fil0" d="M911.36 2380.87l0 -99.03c-6.82,-5.02 -10.05,-6.89 -16.26,-8.43 -6.14,-1.53 -9.31,-1.62 -15.41,-1.62 -14.91,0 -26.58,5.63 -35.12,16.95 -8.54,11.31 -12.79,27.49 -12.79,48.58 0,20.03 3.24,35.22 9.76,45.65 6.48,10.44 17.03,15.68 31.57,15.68 7.58,0 15.43,-1.57 23.5,-4.7 8.05,-3.11 10.95,-6.36 14.75,-13.08zm-91.72 73.85c2.01,0.83 4.93,1.98 8.75,3.37 3.87,1.41 8.21,2.8 13.15,4.03 5.4,1.36 10.4,2.43 14.97,3.26 4.6,0.83 9.6,1.27 15,1.27 9.08,0 12.69,0.4 19.2,-1.35 6.62,-1.8 11.45,-3.67 14.51,-8.38 2.93,-4.49 2.84,-4.09 4.38,-9.71 1.57,-5.72 2.02,-12.37 2.02,-19.71l0 -15.74c-7.9,7.12 -8.9,6.57 -16.49,9.97 -7.57,3.38 -17.09,5.07 -28.54,5.07 -19.85,0 -35.66,-7.67 -47.44,-22.96 -11.72,-15.3 -17.61,-37.26 -17.61,-65.97 0,-14.96 2.01,-28.26 6.11,-39.8 4.03,-11.59 9.49,-21.43 16.33,-29.53 6.58,-7.73 14.33,-13.76 23.24,-17.95 8.97,-4.19 18.2,-6.29 27.8,-6.29 9.02,0 17.46,0.5 24.19,2.08 7.36,1.72 14.83,4.17 21.47,7.55 10.41,5.4 27.17,16.59 26.97,36.57l0 118.7c0,30.56 -6.46,53.01 -19.37,67.34 -12.86,14.31 -32.62,21.48 -59.15,21.48 -8.55,0 -17.24,-0.72 -26.15,-2.1 -8.87,-1.39 -17.19,-3.31 -24.88,-5.63l0 -35.57 1.54 0z"/>
  <path class="fil0" d="M2607.81 2425.67c-11.58,0 -22.42,-1.53 -32.51,-4.66 -10.14,-3.12 -18.48,-6.4 -25.12,-9.94l0 -32.69 1.54 0c2.5,1.95 5.42,4.18 8.76,6.55 3.35,2.44 7.81,4.93 13.39,7.51 4.94,2.33 10.35,4.35 16.31,6.15 5.94,1.74 12.12,3.04 18.48,2.64 10.97,-0.69 22.21,-3.16 28.36,-13.57 1.6,-2.71 2.87,-6.8 2.39,-12.17 -1.69,-19.28 -21.07,-23.07 -37.2,-26.4 -20.6,-4.26 -32.43,-9.4 -42.37,-22.63 -5.99,-7.98 -9.03,-17.86 -9.03,-29.23 0,-15.56 5.89,-28.26 17.75,-38.1 11.84,-9.78 27.51,-14.7 47.11,-14.7 9.67,0 19.39,1.22 29.11,3.6 9.78,2.37 17.96,5.34 24.59,8.99l0 31.21 -1.54 0c-7.43,-5.98 -15.16,-8.91 -24.29,-12.38 -9.12,-3.45 -19.51,-4.71 -28.8,-4.71 -35.6,0 -39.17,37.01 -8.6,45.34 4.34,1.18 9.2,2.2 14.57,3.28 5.31,1.08 10.94,2.35 16.89,3.81 12.85,3.19 21.96,10.31 28.42,17.72 6.5,7.45 9.73,17.57 9.73,30.37 0,7.4 -1.49,14.5 -4.41,21.11 -2.97,6.66 -7.28,12.38 -13.01,17.14 -6.22,5.12 -13.23,9.04 -21.04,11.74 -7.81,2.7 -17.63,4.02 -29.48,4.02z"/>
  <path class="fil0" d="M1153.67 2427.56c-26.77,0 -47.59,-7.64 -62.41,-22.85 -14.82,-15.22 -22.2,-36.88 -22.2,-64.92 0,-27.62 7.18,-49.59 21.53,-65.95 14.31,-16.36 33.08,-24.52 56.26,-24.52 10.46,0 19.69,1.51 27.68,4.58 8.06,3.01 15.08,7.79 21.08,14.28 6.06,6.49 10.65,14.4 13.86,23.78 3.19,9.35 4.8,20.85 4.8,34.38l0 21.29 -112.45 0c0.47,14.2 5.12,23.52 12.35,33.07 8.61,11.39 23.48,15.63 40.85,15.63 6.21,0 12.36,-0.73 18.32,-2.13 5.99,-1.4 11.37,-3.29 16.2,-5.51 5.12,-2.34 9.48,-4.58 12.97,-6.74 3.53,-2.19 6.47,-4.26 8.77,-6.18l1.64 0 -1.72 37.5c-3.33,1.3 -7.43,2.96 -12.36,4.94 -4.92,1.97 -9.33,3.53 -13.23,4.62 -5.53,1.51 -10.5,2.7 -14.97,3.53 -4.46,0.78 -10.15,1.2 -16.97,1.2zm31.33 -107.5c-0.2,-7.69 -0.68,-12.68 -2.27,-18.24 -1.59,-5.54 -3.26,-9.13 -6.24,-12.95 -3.31,-4.21 -7.6,-7.47 -12.77,-9.7 -5.19,-2.24 -7.82,-3.33 -15.51,-3.33 -7.53,0 -13.95,1.16 -19.22,3.43 -5.28,2.28 -10.15,5.53 -14.42,9.92 -4.28,4.42 -7.59,8.93 -9.81,14.33 -2.22,5.38 -2.7,9.37 -3.31,16.54l83.55 0z"/>
  <path class="fil0" d="M1488.81 2422.81l-35.94 0 0 -94.08c0,-7.58 -0.38,-14.65 -1.18,-21.22 -0.8,-6.56 -2.21,-11.84 -4.43,-15.75 -2.37,-4.16 -5.79,-7.23 -10.06,-9.24 -4.27,-2.02 -10.97,-4.22 -18.41,-4.22 -7.26,0 -15.01,0.5 -21.95,6.01 -8.05,6.38 -9.21,18.32 -8.97,26.03l0 112.47 -36.7 0c0,-40.63 0,-75.79 0,-116.41 -0.75,-20.9 11.42,-42.55 36.22,-50.91 10.13,-3.41 36.93,-2.37 46.4,-2.37 17.27,0 30.75,5.36 40.42,16.06 9.74,10.66 14.6,26.16 14.6,46.46l0 107.17z"/>
  <path class="fil0" d="M1671.14 2422.42l-41.66 0 0 -167.64 41.66 0 0 167.64zm3.16 -190.81l-47.53 0 0 -34.35 47.53 0 0 34.35z"/>
  <path class="fil0" d="M1890.77 2427.53c-26.76,0 -47.58,-7.63 -62.4,-22.84 -14.82,-15.21 -22.2,-36.87 -22.2,-64.91 0,-27.62 7.17,-49.59 21.53,-65.95 14.31,-16.35 33.07,-24.51 56.26,-24.51 10.45,0 19.69,1.51 27.69,4.58 8.04,3.01 15.07,7.79 21.07,14.28 6.05,6.49 10.65,14.39 13.85,23.77 3.19,9.36 4.82,20.85 4.82,34.39l0 21.27 -112.45 0c0.46,14.21 5.1,23.53 12.33,33.08 8.62,11.39 23.49,15.62 40.86,15.62 6.21,0 12.36,-0.73 18.31,-2.12 6,-1.41 11.39,-3.29 16.21,-5.51 5.11,-2.35 9.48,-4.58 12.97,-6.75 3.53,-2.18 6.46,-4.26 8.77,-6.18l1.64 0 -1.72 37.51c-3.33,1.29 -7.43,2.95 -12.36,4.93 -4.91,1.97 -9.33,3.53 -13.22,4.62 -5.55,1.51 -10.52,2.69 -14.98,3.53 -4.46,0.78 -10.15,1.19 -16.98,1.19zm31.34 -107.48c-0.2,-7.69 -0.69,-12.68 -2.28,-18.23 -1.57,-5.55 -3.25,-9.13 -6.24,-12.95 -3.3,-4.21 -7.59,-7.47 -12.77,-9.71 -5.17,-2.23 -7.8,-3.32 -15.5,-3.32 -7.54,0 -13.95,1.15 -19.22,3.42 -5.28,2.29 -10.16,5.53 -14.42,9.92 -4.29,4.42 -7.59,8.94 -9.81,14.33 -2.22,5.38 -2.69,9.37 -3.31,16.54l83.55 0z"/>
  <path class="fil0" d="M2168.2 2284.09l-1.27 0c-1.8,-0.59 -3.73,-0.91 -5.7,-1.07 -2.02,-0.16 -4.43,-0.21 -7.29,-0.21 -6.48,0 -12.95,1.68 -19.38,5.12 -6.41,3.44 -8.86,9.84 -8.36,15.35l0 121.64 -34.04 0 0 -133.95c-0.13,-19.01 18.26,-37.95 34.29,-42.37 4.81,-1.33 19.19,-4.38 33.8,-0.53 1.18,0.3 6.5,1.97 7.95,3.03l0 32.99z"/>
  <path class="fil0" d="M2432.01 2337.27c0,29.14 -6.39,51.58 -19.16,67.45 -12.81,15.81 -29.8,23.75 -51.03,23.75 -21.91,0 -39.15,-8.2 -51.67,-24.55 -12.56,-16.34 -18.81,-38.56 -18.81,-66.65 0,-28.89 6.44,-51.32 19.39,-67.3 12.91,-16.02 29.95,-24.01 51.09,-24.01 21.23,0 38.22,7.99 51.03,23.91 12.77,15.98 19.16,38.41 19.16,67.4zm-33.11 -1.52c0,-22.27 -3.12,-31.61 -10.75,-42.29 -6.65,-9.33 -13.41,-14.17 -27.09,-14.17 -13.77,0 -21.17,6.41 -27.75,15.44 -7.76,10.62 -9.99,19.89 -9.99,42.16 0,21.58 3.42,32.54 10.88,43.7 7.47,11.16 14.62,16.62 28.37,16.44 13.38,-0.18 22.06,-7.92 27.81,-18.48 6.33,-11.63 8.52,-20.79 8.52,-42.8z"/>
 </g>
</svg>
