<?xml version="1.0" encoding="UTF-8"?>
<!DOCTYPE svg PUBLIC "-//W3C//DTD SVG 1.1//EN" "http://www.w3.org/Graphics/SVG/1.1/DTD/svg11.dtd">
<!-- Creator: CorelDRAW 2018 (64 Bit Versión de evaluación) -->
<svg xmlns="http://www.w3.org/2000/svg" xml:space="preserve" width="45mm" height="35mm" version="1.1" style="shape-rendering:geometricPrecision; text-rendering:geometricPrecision; image-rendering:optimizeQuality; fill-rule:evenodd; clip-rule:evenodd"
viewBox="0 0 4500 3500"
 xmlns:xlink="http://www.w3.org/1999/xlink">
 <defs>
  <style type="text/css">
   <![CDATA[
    .fil1 {fill:#FEFEFE}
    .fil0 {fill:#FEFEFE;fill-rule:nonzero}
   ]]>
  </style>
 </defs>
 <g id="Capa_x0020_1">
  <metadata id="CorelCorpID_0Corel-Layer"/>
  <path class="fil0" d="M1179.93 832.8c-46.5,26.59 -105.79,10.45 -132.38,-36.05 -26.59,-46.49 -10.45,-105.79 36.04,-132.38 61.67,-35.38 126.77,-65.97 194.4,-91.47 267.52,-100.9 567.64,-117.08 848.45,-33.2l-270.22 0c-110.36,0 -211.06,60.64 -266.66,151.75 -83.13,12.08 -164.8,33.17 -243.28,62.77 -56.85,21.44 -112.55,47.72 -166.35,78.58zm1199.69 -186.39c199.37,110.94 378.09,281.31 513.63,517.5 43.22,75.3 82.24,157.96 116.24,248.13 18.84,50.07 -6.44,105.97 -56.51,124.81 -50.07,18.84 -105.97,-6.45 -124.81,-56.52 -29.83,-79.14 -64.56,-152.5 -103.34,-220.09 -82.29,-143.39 -182.49,-258.39 -293.93,-346.97l5.16 -23.91c19.56,-90.59 -4.37,-178.12 -56.44,-242.95z"/>
  <path class="fil0" d="M924.41 533.63c-45.04,28.9 -104.99,15.82 -133.89,-29.22 -28.9,-45.03 -15.83,-104.99 29.21,-133.89 93.03,-59.63 193.61,-109.25 299.35,-148.03 336.25,-123.39 728.09,-139.4 1098.85,-26.15 370.94,113.29 720.6,355.33 972.21,747.67 81.03,126.38 151.8,268.06 209.62,425.65 18.43,50.29 -7.38,106.01 -57.66,124.44 -50.29,18.43 -106.01,-7.38 -124.44,-57.66 -52.96,-144.37 -117.31,-273.41 -190.63,-387.74 -224.94,-350.76 -535.98,-566.68 -865.23,-667.23 -329.41,-100.6 -677.41,-86.42 -975.95,23.12 -92.91,34.08 -180.8,77.33 -261.44,129.04z"/>
  <path class="fil0" d="M1390.62 1175.02c-46.93,25.56 -105.7,8.23 -131.26,-38.69 -25.56,-46.93 -8.23,-105.7 38.69,-131.26 75.3,-40.98 151.07,-71.53 226.11,-92.6l-9.73 45.04c-5.9,27.33 -7.85,54.38 -6.25,80.6l-23.6 92.26c-31.25,12.74 -62.62,27.59 -93.96,44.65zm1025.44 -42.11c48.67,50.05 90.13,105.91 122.92,166.14 35.58,65.39 60.98,136.08 74.25,210.18 9.42,52.57 -25.56,102.86 -78.14,112.28 -52.57,9.42 -102.85,-25.56 -112.27,-78.14 -9.52,-53.19 -27.93,-104.23 -53.78,-151.76 -6.16,-11.3 -12.73,-22.41 -19.72,-33.31l66.74 -225.39z"/>
  <path class="fil1" d="M522.53 1227.05l422.72 0 328.91 1238.36c33.21,117.39 95.64,101.31 119.7,-0.97l316.58 -1237.39 424.54 0 -416.33 1406.03c-90.35,213.99 -238.98,202.34 -376.28,206.77 -160.4,-0.82 -340.13,-9.69 -413.16,-205.37l-406.68 -1407.43zm1333.69 -444.57l298.92 0c30.59,0 50.23,25.03 43.62,55.64l-36.84 170.62c-6.6,30.61 -37.06,55.65 -67.67,55.65l-298.9 0c-30.61,0 -50.22,-25.04 -43.62,-55.65l36.84 -170.62c6.61,-30.61 37.04,-55.64 67.65,-55.64z"/>
  <polygon class="fil1" points="2175.17,1786.67 2484.57,1786.41 2825.22,2256.77 2886.54,2256.71 3234.66,1785.77 3543.67,1785.5 3546.68,2840.25 3227.94,2839.86 3226.16,2192.7 3178.88,2192.97 2976.97,2467.79 2731.16,2465.34 2537.58,2193.48 2488.46,2193.51 2484.9,2839.63 2171.53,2839.47 "/>
  <path class="fil1" d="M3841.65 1783.35l341.87 0c0,352.94 11.69,646.96 -6.91,989.83 -7.95,173.65 -182.61,318.18 -227.53,345.86l-332.34 -0.02c72.45,-75.52 226.7,-213.48 224.91,-332.22 0,-346.78 0,-656.67 0,-1003.45z"/>
  <path class="fil0" d="M547.53 3251.24l-55.45 0 0 -223.16 55.45 0 0 223.16zm4.21 -254l-63.27 0 0 -45.73 63.27 0 0 45.73z"/>
  <path class="fil0" d="M930.27 3251.75l-47.85 0 0 -125.24c0,-10.08 -0.5,-19.5 -1.57,-28.24 -1.06,-8.73 -2.94,-15.76 -5.9,-20.97 -3.15,-5.54 -7.71,-9.62 -13.39,-12.3 -5.68,-2.68 -14.6,-5.62 -24.5,-5.62 -9.67,0 -19.99,0.67 -29.22,8 -10.72,8.5 -12.26,24.39 -11.94,34.66l0 149.71 -48.86 0c0,-54.08 0,-100.88 0,-154.96 -1,-27.82 15.2,-56.64 48.22,-67.77 13.48,-4.54 49.16,-3.15 61.76,-3.15 22.99,0 40.93,7.13 53.81,21.38 12.96,14.19 19.44,34.82 19.44,61.84l0 142.66z"/>
  <path class="fil0" d="M1237.65 3195.93l0 -131.83c-9.08,-6.68 -13.38,-9.17 -21.64,-11.22 -8.18,-2.04 -12.4,-2.16 -20.52,-2.16 -19.85,0 -35.38,7.49 -46.75,22.56 -11.37,15.06 -17.02,36.6 -17.02,64.67 0,26.67 4.31,46.88 12.99,60.77 8.62,13.89 22.67,20.87 42.03,20.87 10.09,0 20.53,-2.09 31.28,-6.25 10.71,-4.14 14.57,-8.47 19.63,-17.41zm-122.1 98.3c2.68,1.11 6.57,2.63 11.65,4.49 5.16,1.88 10.93,3.72 17.51,5.36 7.19,1.81 13.84,3.24 19.92,4.34 6.13,1.1 12.79,1.69 19.98,1.69 12.08,0 16.89,0.54 25.55,-1.8 8.82,-2.39 15.25,-4.88 19.32,-11.15 3.9,-5.98 3.78,-5.45 5.83,-12.93 2.09,-7.61 2.69,-16.46 2.69,-26.24l0 -20.94c-10.52,9.47 -11.85,8.74 -21.96,13.26 -10.07,4.5 -22.74,6.76 -37.99,6.76 -26.42,0 -47.46,-10.22 -63.14,-30.57 -15.61,-20.36 -23.45,-49.6 -23.45,-87.81 0,-19.92 2.68,-37.63 8.13,-52.99 5.37,-15.43 12.64,-28.52 21.75,-39.31 8.75,-10.29 19.07,-18.31 30.93,-23.89 11.94,-5.58 24.23,-8.38 37,-8.38 12.01,0 23.25,0.67 32.21,2.78 9.79,2.29 19.74,5.55 28.58,10.04 13.86,7.2 36.17,22.09 35.9,48.68l0 158.01c0,40.69 -8.6,70.57 -25.78,89.65 -17.13,19.05 -43.43,28.59 -78.74,28.59 -11.38,0 -22.95,-0.96 -34.82,-2.79 -11.8,-1.85 -22.88,-4.41 -33.12,-7.5l0 -47.35 2.05 0z"/>
  <path class="fil0" d="M3495.91 3255.56c-15.41,0 -29.84,-2.04 -43.27,-6.2 -13.51,-4.15 -24.61,-8.52 -33.45,-13.24l0 -43.51 2.05 0c3.33,2.6 7.22,5.56 11.67,8.72 4.45,3.25 10.39,6.56 17.82,10 6.58,3.1 13.78,5.78 21.71,8.18 7.91,2.32 16.13,4.05 24.6,3.51 14.61,-0.91 29.57,-4.2 37.76,-18.06 2.13,-3.6 3.81,-9.05 3.18,-16.2 -2.26,-25.66 -28.05,-30.71 -49.53,-35.14 -27.42,-5.67 -43.16,-12.52 -56.39,-30.13 -7.98,-10.62 -12.02,-23.77 -12.02,-38.91 0,-20.71 7.84,-37.61 23.62,-50.71 15.76,-13.02 36.62,-19.57 62.71,-19.57 12.87,0 25.82,1.62 38.75,4.79 13.02,3.16 23.91,7.11 32.74,11.97l0 41.55 -2.05 0c-9.9,-7.96 -20.18,-11.87 -32.34,-16.48 -12.14,-4.6 -25.97,-6.27 -38.34,-6.27 -47.39,0 -52.14,49.26 -11.44,60.35 5.78,1.57 12.25,2.93 19.39,4.37 7.07,1.43 14.57,3.12 22.48,5.07 17.11,4.24 29.24,13.72 37.84,23.59 8.65,9.91 12.95,23.38 12.95,40.42 0,9.86 -1.98,19.3 -5.87,28.1 -3.96,8.87 -9.69,16.48 -17.32,22.82 -8.28,6.82 -17.61,12.04 -28.01,15.63 -10.39,3.59 -23.47,5.35 -39.24,5.35z"/>
  <path class="fil0" d="M1560.2 3258.07c-35.63,0 -63.34,-10.16 -83.07,-30.41 -19.73,-20.26 -29.55,-49.09 -29.55,-86.42 0,-36.77 9.55,-66.01 28.66,-87.79 19.04,-21.78 44.03,-32.64 74.89,-32.64 13.92,0 26.21,2.01 36.85,6.09 10.72,4.01 20.07,10.37 28.06,19.01 8.06,8.64 14.17,19.17 18.44,31.66 4.25,12.45 6.4,27.75 6.4,45.77l0 28.33 -149.69 0c0.62,18.91 6.81,31.32 16.43,44.03 11.47,15.16 31.26,20.81 54.39,20.81 8.26,0 16.45,-0.98 24.38,-2.84 7.97,-1.87 15.14,-4.38 21.56,-7.33 6.82,-3.12 12.63,-6.1 17.27,-8.98 4.7,-2.91 8.61,-5.67 11.68,-8.23l2.18 0 -2.29 49.93c-4.44,1.73 -9.89,3.94 -16.45,6.57 -6.55,2.62 -12.42,4.7 -17.61,6.15 -7.37,2.01 -13.99,3.59 -19.94,4.7 -5.93,1.04 -13.5,1.59 -22.59,1.59zm41.71 -143.1c-0.26,-10.23 -0.91,-16.88 -3.02,-24.27 -2.11,-7.38 -4.34,-12.16 -8.31,-17.24 -4.4,-5.61 -10.11,-9.95 -17,-12.92 -6.9,-2.98 -10.4,-4.43 -20.64,-4.43 -10.03,0 -18.57,1.54 -25.59,4.57 -7.02,3.03 -13.51,7.36 -19.19,13.2 -5.7,5.88 -10.1,11.89 -13.06,19.08 -2.95,7.16 -3.59,12.47 -4.41,22.01l111.22 0z"/>
  <path class="fil0" d="M2006.34 3251.75l-47.85 0 0 -125.24c0,-10.08 -0.5,-19.5 -1.57,-28.24 -1.06,-8.73 -2.94,-15.76 -5.9,-20.97 -3.15,-5.54 -7.71,-9.62 -13.39,-12.3 -5.68,-2.68 -14.6,-5.62 -24.5,-5.62 -9.67,0 -19.99,0.67 -29.22,8 -10.72,8.5 -12.26,24.39 -11.94,34.66l0 149.71 -48.86 0c0,-54.08 0,-100.88 0,-154.96 -1,-27.82 15.2,-56.64 48.22,-67.77 13.48,-4.54 49.16,-3.15 61.76,-3.15 22.99,0 40.93,7.13 53.81,21.38 12.96,14.19 19.44,34.82 19.44,61.84l0 142.66z"/>
  <path class="fil0" d="M2249.04 3251.24l-55.45 0 0 -223.16 55.45 0 0 223.16zm4.21 -254l-63.27 0 0 -45.73 63.27 0 0 45.73z"/>
  <path class="fil0" d="M2541.41 3258.04c-35.62,0 -63.34,-10.16 -83.07,-30.41 -19.72,-20.25 -29.55,-49.08 -29.55,-86.41 0,-36.76 9.55,-66 28.66,-87.78 19.05,-21.77 44.03,-32.63 74.89,-32.63 13.92,0 26.21,2.01 36.86,6.09 10.71,4.01 20.07,10.37 28.05,19.01 8.06,8.64 14.18,19.16 18.44,31.65 4.25,12.45 6.41,27.75 6.41,45.77l0 28.32 -149.69 0c0.62,18.91 6.8,31.32 16.42,44.03 11.48,15.16 31.27,20.8 54.39,20.8 8.27,0 16.46,-0.97 24.38,-2.83 7.98,-1.87 15.15,-4.38 21.57,-7.33 6.81,-3.13 12.62,-6.1 17.27,-8.98 4.69,-2.91 8.6,-5.67 11.67,-8.23l2.18 0 -2.29 49.93c-4.43,1.72 -9.89,3.93 -16.45,6.56 -6.54,2.62 -12.42,4.7 -17.6,6.15 -7.38,2.01 -14,3.59 -19.94,4.7 -5.94,1.04 -13.51,1.59 -22.6,1.59zm41.72 -143.08c-0.27,-10.23 -0.92,-16.88 -3.03,-24.27 -2.1,-7.38 -4.33,-12.15 -8.31,-17.23 -4.4,-5.61 -10.1,-9.95 -17,-12.93 -6.89,-2.97 -10.39,-4.42 -20.64,-4.42 -10.03,0 -18.57,1.53 -25.58,4.56 -7.03,3.04 -13.52,7.36 -19.2,13.2 -5.7,5.88 -10.1,11.9 -13.06,19.08 -2.95,7.16 -3.58,12.47 -4.4,22.01l111.22 0z"/>
  <path class="fil0" d="M2910.71 3067.09l-1.69 0c-2.39,-0.78 -4.96,-1.21 -7.58,-1.42 -2.69,-0.22 -5.9,-0.28 -9.7,-0.28 -8.63,0 -17.25,2.24 -25.8,6.82 -8.54,4.57 -11.8,13.1 -11.13,20.43l0 161.92 -45.31 0 0 -178.31c-0.18,-25.31 24.3,-50.51 45.64,-56.4 6.4,-1.77 25.55,-5.83 44.99,-0.71 1.58,0.41 8.66,2.63 10.58,4.04l0 43.91z"/>
  <path class="fil0" d="M3261.89 3137.88c0,38.8 -8.51,68.66 -25.5,89.79 -17.05,21.05 -39.67,31.62 -67.94,31.62 -29.16,0 -52.11,-10.92 -68.77,-32.68 -16.72,-21.76 -25.05,-51.33 -25.05,-88.73 0,-38.45 8.58,-68.31 25.82,-89.58 17.18,-21.33 39.87,-31.97 68,-31.97 28.27,0 50.89,10.64 67.94,31.84 16.99,21.26 25.5,51.12 25.5,89.71zm-44.08 -2.02c0,-29.64 -4.15,-42.08 -14.3,-56.3 -8.85,-12.41 -17.86,-18.85 -36.06,-18.85 -18.33,0 -28.18,8.53 -36.95,20.55 -10.32,14.14 -13.3,26.47 -13.3,56.12 0,28.73 4.56,43.31 14.49,58.17 9.94,14.86 19.46,22.12 37.77,21.88 17.81,-0.24 29.36,-10.54 37.01,-24.6 8.43,-15.48 11.34,-27.67 11.34,-56.97z"/>
 </g>
</svg>
