<?xml version="1.0" encoding="UTF-8"?>
<!DOCTYPE svg PUBLIC "-//W3C//DTD SVG 1.1//EN" "http://www.w3.org/Graphics/SVG/1.1/DTD/svg11.dtd">
<!-- Creator: CorelDRAW 2018 (64 Bit Versión de evaluación) -->
<svg xmlns="http://www.w3.org/2000/svg" xml:space="preserve" width="46mm" height="40mm" version="1.1" style="shape-rendering:geometricPrecision; text-rendering:geometricPrecision; image-rendering:optimizeQuality; fill-rule:evenodd; clip-rule:evenodd"
viewBox="0 0 4600 4000"
 xmlns:xlink="http://www.w3.org/1999/xlink">
 <defs>
  <style type="text/css">
   <![CDATA[
    .fil1 {fill:#3B6865}
    .fil2 {fill:#507572;fill-rule:nonzero}
    .fil0 {fill:#55A695;fill-rule:nonzero}
   ]]>
  </style>
 </defs>
 <g id="Capa_x0020_1">
  <metadata id="CorelCorpID_0Corel-Layer"/>
  <path class="fil0" d="M989.81 1007.54c-54.27,30.87 -123.48,12.13 -154.5,-41.88 -31.04,-53.99 -12.21,-122.86 42.05,-153.73 71.97,-41.11 147.97,-76.63 226.87,-106.25 312.22,-117.19 662.48,-135.97 990.17,-38.54l-315.33 0c-128.81,0 -246.34,70.41 -311.22,176.24 -97.01,14.02 -192.32,38.51 -283.91,72.88 -66.35,24.91 -131.36,55.43 -194.13,91.28zm1400.07 -216.48c232.67,128.84 441.24,326.7 599.43,601.01 50.43,87.44 95.96,183.44 135.65,288.17 21.99,58.15 -7.51,123.05 -65.95,144.95 -58.43,21.88 -123.68,-7.49 -145.67,-65.64 -34.81,-91.91 -75.34,-177.11 -120.59,-255.61 -96.03,-166.53 -212.98,-300.09 -343.03,-402.97l6.02 -27.76c22.83,-105.2 -5.1,-206.85 -65.86,-282.15z"/>
  <path class="fil0" d="M691.6 660.07c-52.56,33.57 -122.52,18.38 -156.26,-33.92 -33.73,-52.3 -18.46,-121.93 34.1,-155.51 108.56,-69.23 225.96,-126.88 349.34,-171.92 392.42,-143.29 849.71,-161.88 1282.41,-30.35 432.88,131.57 840.95,412.66 1134.58,868.31 94.57,146.79 177.18,311.33 244.63,494.34 21.52,58.41 -8.61,123.13 -67.27,144.53 -58.7,21.4 -123.74,-8.57 -145.24,-66.98 -61.8,-167.65 -136.91,-317.52 -222.47,-450.3 -262.5,-407.37 -625.51,-658.13 -1009.74,-774.9 -384.45,-116.83 -790.57,-100.38 -1138.97,26.83 -108.44,39.59 -210.99,89.83 -305.11,149.87z"/>
  <path class="fil0" d="M1235.67 1404.97c-54.76,29.68 -123.34,9.56 -153.17,-44.94 -29.82,-54.49 -9.61,-122.74 45.14,-152.42 87.89,-47.6 176.31,-83.08 263.89,-107.55l-11.35 52.3c-6.88,31.74 -9.15,63.16 -7.29,93.6l-27.55 107.15c-36.47,14.79 -73.08,32.06 -109.67,51.86zm1196.73 -48.9c56.79,58.12 105.19,122.99 143.45,192.93 41.53,75.96 71.18,158.05 86.66,244.11 10.99,61.07 -29.83,119.46 -91.19,130.4 -61.35,10.93 -120.05,-29.68 -131.02,-90.75 -11.13,-61.77 -32.61,-121.05 -62.78,-176.25 -7.18,-13.12 -14.83,-26.02 -23,-38.67l77.88 -261.77z"/>
  <path class="fil1" d="M222.61 1465.39l493.31 0 383.86 1438.21c38.75,136.33 111.61,117.64 139.7,-1.13l369.45 -1437.08 495.45 0 -485.87 1632.93c-105.45,248.54 -278.91,234.99 -439.13,240.15 -187.21,-0.95 -396.95,-11.27 -482.18,-238.52l-474.59 -1634.56zm1556.46 -516.31l348.83 0c35.71,0 58.62,29.08 50.91,64.63l-42.99 198.17c-7.72,35.53 -43.24,64.61 -78.98,64.61l-348.82 0c-35.74,0 -58.61,-29.08 -50.91,-64.61l43.01 -198.17c7.69,-35.55 43.21,-64.63 78.95,-64.63z"/>
  <polygon class="fil1" points="2151.27,2115.32 2512.35,2115.03 2909.91,2661.28 2981.47,2661.22 3387.74,2114.29 3748.37,2113.96 3751.88,3338.93 3379.89,3338.48 3377.82,2586.87 3322.64,2587.19 3087.01,2906.36 2800.13,2903.52 2574.21,2587.79 2516.9,2587.82 2512.74,3338.19 2147.03,3338.03 "/>
  <path class="fil1" d="M4096.11 2111.47l398.96 0c0,409.89 13.65,751.36 -8.06,1149.57 -9.26,201.67 -213.11,369.52 -265.54,401.68l-387.84 -0.03c84.55,-87.71 264.57,-247.95 262.48,-385.84 0,-402.74 0,-762.63 0,-1165.38z"/>
  <path class="fil2" d="M251.77 3816.24l-64.7 0 0 -259.17 64.7 0 0 259.17zm4.92 -294.98l-73.83 0 0 -53.12 73.83 0 0 53.12z"/>
  <path class="fil2" d="M698.45 3816.82l-55.85 0 0 -145.45c0,-11.7 -0.58,-22.64 -1.82,-32.79 -1.25,-10.13 -3.44,-18.3 -6.9,-24.35 -3.68,-6.44 -8.99,-11.18 -15.63,-14.29 -6.64,-3.11 -17.03,-6.52 -28.59,-6.52 -11.29,0 -23.33,0.77 -34.1,9.28 -12.5,9.89 -14.3,28.32 -13.94,40.26l0 173.86 -57.01 0c0,-62.79 0,-117.14 0,-179.95 -1.16,-32.32 17.73,-65.78 56.27,-78.71 15.73,-5.28 57.38,-3.65 72.08,-3.65 26.83,0 47.76,8.28 62.79,24.82 15.14,16.47 22.7,40.43 22.7,71.84l0 165.65z"/>
  <path class="fil2" d="M1057.16 3752l0 -153.1c-10.58,-7.75 -15.62,-10.65 -25.25,-13.02 -9.54,-2.39 -14.46,-2.52 -23.95,-2.52 -23.17,0 -41.29,8.69 -54.57,26.2 -13.26,17.5 -19.86,42.51 -19.86,75.1 0,30.97 5.03,54.45 15.17,70.58 10.05,16.14 26.44,24.23 49.04,24.23 11.79,0 23.97,-2.42 36.51,-7.25 12.5,-4.8 17,-9.84 22.91,-20.22zm-142.49 114.17c3.12,1.28 7.67,3.05 13.6,5.21 6.02,2.19 12.75,4.32 20.43,6.23 8.39,2.1 16.16,3.77 23.25,5.03 7.16,1.29 14.91,1.97 23.32,1.97 14.1,0 19.7,0.62 29.82,-2.1 10.28,-2.75 17.79,-5.65 22.55,-12.94 4.54,-6.94 4.41,-6.33 6.79,-15.03 2.44,-8.81 3.14,-19.11 3.14,-30.45l0 -24.33c-12.27,11 -13.81,10.15 -25.62,15.38 -11.75,5.26 -26.53,7.87 -44.34,7.87 -30.83,0 -55.39,-11.86 -73.69,-35.5 -18.21,-23.64 -27.36,-57.62 -27.36,-101.99 0,-23.14 3.12,-43.7 9.47,-61.54 6.28,-17.91 14.75,-33.11 25.4,-45.64 10.22,-11.98 22.25,-21.27 36.08,-27.75 13.94,-6.49 28.28,-9.73 43.21,-9.73 13.99,0 27.12,0.79 37.57,3.22 11.43,2.66 23.05,6.45 33.35,11.65 16.19,8.36 42.21,25.68 41.9,56.56l0 183.49c0,47.27 -10.04,81.96 -30.08,104.13 -20,22.11 -50.7,33.2 -91.9,33.2 -13.26,0 -26.78,-1.12 -40.63,-3.24 -13.76,-2.15 -26.71,-5.13 -38.66,-8.7l0 -55 2.4 0z"/>
  <path class="fil2" d="M3692.64 3821.25c-17.99,0 -34.83,-2.37 -50.52,-7.19 -15.77,-4.83 -28.72,-9.9 -39.02,-15.38l0 -50.53 2.38 0c3.89,3.01 8.42,6.44 13.62,10.13 5.19,3.77 12.12,7.61 20.79,11.6 7.69,3.61 16.09,6.71 25.34,9.51 9.23,2.69 18.83,4.71 28.7,4.08 17.07,-1.07 34.52,-4.87 44.08,-20.98 2.47,-4.18 4.45,-10.52 3.7,-18.81 -2.62,-29.8 -32.72,-35.67 -57.8,-40.83 -32.01,-6.57 -50.37,-14.53 -65.8,-34.96 -9.31,-12.36 -14.04,-27.62 -14.04,-45.21 0,-24.04 9.17,-43.68 27.58,-58.88 18.39,-15.14 42.74,-22.75 73.18,-22.75 15.03,0 30.12,1.89 45.24,5.58 15.17,3.67 27.88,8.26 38.19,13.9l0 48.24 -2.39 0c-11.56,-9.23 -23.55,-13.77 -37.74,-19.14 -14.17,-5.33 -30.3,-7.27 -44.76,-7.27 -55.29,0 -60.84,57.2 -13.34,70.09 6.75,1.83 14.31,3.4 22.62,5.08 8.26,1.66 17.02,3.63 26.25,5.88 19.98,4.92 34.13,15.94 44.17,27.39 10.07,11.52 15.1,27.15 15.1,46.96 0,11.45 -2.31,22.41 -6.85,32.62 -4.63,10.32 -11.31,19.15 -20.22,26.51 -9.67,7.93 -20.55,13.97 -32.69,18.16 -12.11,4.15 -27.4,6.2 -45.77,6.2z"/>
  <path class="fil2" d="M1433.58 3824.17c-41.57,0 -73.92,-11.8 -96.94,-35.32 -23.01,-23.53 -34.47,-57.01 -34.47,-100.37 0,-42.7 11.12,-76.66 33.43,-101.96 22.23,-25.3 51.4,-37.9 87.4,-37.9 16.24,0 30.59,2.34 43.01,7.09 12.51,4.64 23.43,12.04 32.74,22.06 9.4,10.04 16.56,22.27 21.51,36.77 4.98,14.45 7.5,32.23 7.5,53.16l0 32.9 -174.7 0c0.73,21.94 7.95,36.38 19.17,51.14 13.39,17.6 36.49,24.17 63.47,24.17 9.65,0 19.2,-1.14 28.45,-3.3 9.31,-2.16 17.68,-5.09 25.16,-8.51 7.96,-3.63 14.73,-7.09 20.16,-10.44 5.48,-3.39 10.05,-6.59 13.63,-9.56l2.54 0 -2.67 57.99c-5.18,2.02 -11.55,4.58 -19.2,7.64 -7.65,3.05 -14.48,5.45 -20.55,7.14 -8.6,2.33 -16.32,4.17 -23.25,5.44 -6.95,1.21 -15.77,1.86 -26.39,1.86zm48.7 -166.19c-0.32,-11.89 -1.08,-19.61 -3.53,-28.2 -2.46,-8.57 -5.07,-14.09 -9.71,-20.01 -5.14,-6.52 -11.79,-11.55 -19.84,-15.02 -8.05,-3.44 -12.14,-5.14 -24.07,-5.14 -11.71,0 -21.68,1.79 -29.88,5.31 -8.21,3.52 -15.77,8.55 -22.39,15.34 -6.65,6.83 -11.79,13.8 -15.25,22.15 -3.43,8.33 -4.18,14.49 -5.13,25.57l129.8 0z"/>
  <path class="fil2" d="M1954.25 3816.82l-55.84 0 0 -145.45c0,-11.7 -0.58,-22.64 -1.83,-32.79 -1.25,-10.13 -3.43,-18.3 -6.9,-24.35 -3.67,-6.44 -8.98,-11.18 -15.62,-14.29 -6.64,-3.11 -17.03,-6.52 -28.59,-6.52 -11.29,0 -23.34,0.77 -34.1,9.28 -12.5,9.89 -14.3,28.32 -13.93,40.26l0 173.86 -57.02 0c0,-62.79 0,-117.14 0,-179.95 -1.17,-32.32 17.74,-65.78 56.26,-78.71 15.74,-5.28 57.38,-3.65 72.08,-3.65 26.83,0 47.77,8.28 62.79,24.82 15.14,16.47 22.7,40.43 22.7,71.84l0 165.65z"/>
  <path class="fil2" d="M2237.49 3816.24l-64.72 0 0 -259.17 64.72 0 0 259.17zm4.92 -294.98l-73.85 0 0 -53.12 73.85 0 0 53.12z"/>
  <path class="fil2" d="M2578.7 3824.14c-41.58,0 -73.93,-11.8 -96.94,-35.32 -23.02,-23.51 -34.5,-56.99 -34.5,-100.34 0,-42.71 11.14,-76.68 33.47,-101.96 22.19,-25.3 51.37,-37.9 87.38,-37.9 16.24,0 30.59,2.34 43,7.08 12.52,4.65 23.43,12.05 32.74,22.06 9.43,10.05 16.57,22.26 21.52,36.78 4.97,14.44 7.48,32.21 7.48,53.14l0 32.9 -174.69 0c0.73,21.96 7.95,36.39 19.18,51.13 13.39,17.61 36.47,24.17 63.46,24.17 9.65,0 19.21,-1.13 28.45,-3.31 9.31,-2.15 17.68,-5.07 25.18,-8.5 7.95,-3.63 14.73,-7.08 20.14,-10.43 5.47,-3.38 10.06,-6.59 13.63,-9.55l2.55 0 -2.67 57.99c-5.17,1.99 -11.55,4.56 -19.21,7.6 -7.64,3.05 -14.49,5.46 -20.54,7.14 -8.6,2.35 -16.32,4.19 -23.25,5.46 -6.93,1.21 -15.78,1.86 -26.38,1.86zm48.67 -166.18c-0.31,-11.87 -1.07,-19.6 -3.53,-28.19 -2.46,-8.57 -5.05,-14.1 -9.7,-20 -5.11,-6.52 -11.78,-11.57 -19.83,-15.02 -8.05,-3.44 -12.13,-5.14 -24.08,-5.14 -11.72,0 -21.68,1.79 -29.85,5.31 -8.21,3.52 -15.79,8.54 -22.41,15.34 -6.66,6.83 -11.81,13.79 -15.26,22.15 -3.43,8.31 -4.17,14.47 -5.13,25.55l129.79 0z"/>
  <path class="fil2" d="M3009.66 3602.38l-1.96 0c-2.78,-0.92 -5.79,-1.41 -8.84,-1.65 -3.14,-0.26 -6.88,-0.34 -11.33,-0.34 -10.06,0 -20.11,2.61 -30.1,7.93 -9.96,5.32 -13.76,15.21 -12.99,23.72l0 188.05 -52.88 0 0 -207.06c-0.21,-29.41 28.35,-58.69 53.27,-65.52 7.45,-2.06 29.81,-6.78 52.51,-0.84 1.83,0.49 10.09,3.08 12.32,4.71l0 51z"/>
  <path class="fil2" d="M3419.52 3684.58c0,45.07 -9.94,79.74 -29.75,104.27 -19.92,24.46 -46.31,36.74 -79.29,36.74 -34.04,0 -60.83,-12.69 -80.26,-37.97 -19.53,-25.26 -29.24,-59.6 -29.24,-103.04 0,-44.65 10,-79.32 30.13,-104.02 20.04,-24.78 46.53,-37.14 79.37,-37.14 32.98,0 59.37,12.36 79.29,36.98 19.81,24.68 29.75,59.36 29.75,104.18zm-51.43 -2.33c0,-34.44 -4.86,-48.87 -16.7,-65.39 -10.34,-14.44 -20.84,-21.9 -42.09,-21.9 -21.39,0 -32.89,9.91 -43.12,23.87 -12.03,16.43 -15.53,30.74 -15.53,65.17 0,33.37 5.33,50.31 16.92,67.56 11.58,17.26 22.7,25.69 44.09,25.41 20.77,-0.29 34.24,-12.23 43.18,-28.56 9.83,-17.99 13.25,-32.15 13.25,-66.16z"/>
 </g>
</svg>
